<svg width="40" height="40" viewBox="0 0 40 40" fill="none" xmlns="http://www.w3.org/2000/svg">
<path opacity="0.2" d="M19.7902 39.5904C17.1252 39.6127 14.4828 39.0992 12.0201 38.0804C9.67086 37.1163 7.53626 35.6956 5.74011 33.9005C3.93891 32.1031 2.50851 29.9694 1.53015 27.6204C-0.51005 22.624 -0.51005 17.0269 1.53015 12.0305C2.8101 9.05494 4.79732 6.43699 7.31921 4.40424C9.84111 2.37149 12.8214 0.985457 16.0009 0.366518C19.1803 -0.252421 22.4628 -0.0855689 25.5631 0.852724C28.6634 1.79102 31.4875 3.47233 33.7902 5.75043C35.5856 7.55658 37.0211 9.68782 38.0201 12.0305C39.0502 14.5002 39.5807 17.1495 39.5807 19.8254C39.5807 22.5013 39.0502 25.1507 38.0201 27.6204C37.0229 29.964 35.5872 32.0956 33.7902 33.9005C31.9904 35.6959 29.8525 37.1165 27.5001 38.0804C25.0576 39.0963 22.4355 39.6098 19.7902 39.5904V39.5904ZM18.2501 24.1104H21.17C21.1628 23.3157 21.2707 22.5242 21.4901 21.7604C21.9205 20.7764 22.6122 19.9292 23.4901 19.3105C24.3731 18.6184 25.1108 17.7586 25.6603 16.7805C26.0963 15.9407 26.3194 15.0067 26.3102 14.0605C26.3434 13.2787 26.2078 12.4988 25.9127 11.7741C25.6176 11.0494 25.1701 10.3967 24.6002 9.86041C23.3543 8.76175 21.7295 8.19149 20.0702 8.27045C18.5542 8.24457 17.0646 8.66913 15.7902 9.49042C14.5661 10.2949 13.6254 11.463 13.1002 12.8304L15.7201 13.8304C16.0378 12.965 16.6052 12.2134 17.3502 11.6705C18.1064 11.1548 19.005 10.889 19.92 10.9105C20.9114 10.8646 21.8847 11.1889 22.6503 11.8204C22.9796 12.1144 23.2399 12.4775 23.4127 12.8837C23.5856 13.2899 23.6668 13.7293 23.6503 14.1705C23.6493 14.9059 23.4261 15.6239 23.0101 16.2304C22.481 16.9825 21.8482 17.6558 21.1302 18.2304C20.2599 18.9518 19.5161 19.8138 18.9301 20.7805C18.414 21.8117 18.173 22.9587 18.2301 24.1104H18.2501ZM19.9801 31.3304C20.2881 31.3285 20.5911 31.2511 20.8622 31.1047C21.1332 30.9583 21.3641 30.7476 21.5345 30.491C21.705 30.2345 21.81 29.9398 21.84 29.6332C21.8699 29.3267 21.824 29.0174 21.7064 28.7327C21.5888 28.448 21.403 28.1966 21.1654 28.0006C20.9278 27.8045 20.6457 27.6697 20.3439 27.6082C20.042 27.5468 19.7298 27.5604 19.4344 27.648C19.1391 27.7356 18.8698 27.8944 18.6503 28.1104C18.2985 28.4677 18.1012 28.949 18.1012 29.4504C18.1012 29.9518 18.2985 30.4332 18.6503 30.7905C18.8214 30.9635 19.0254 31.1004 19.2504 31.1932C19.4754 31.2859 19.7167 31.3325 19.9601 31.3304H19.9801Z" fill="#15152C"/>
</svg>
