<svg width="36" height="44" viewBox="0 0 36 44" fill="none" xmlns="http://www.w3.org/2000/svg">
<path opacity="0.2" d="M3.29135 43.83C2.85904 43.8339 2.43018 43.7519 2.02988 43.5886C1.62957 43.4253 1.26574 43.184 0.959564 42.8788C0.653393 42.5735 0.410946 42.2105 0.24643 41.8107C0.0819129 41.4109 -0.00135823 40.9823 0.00131251 40.5499V12.6C-0.0335622 10.6887 0.62759 8.83002 1.86142 7.37C3.05766 5.92249 4.72494 4.9419 6.57138 4.59998V0H12.0514V4.38H23.0514V0H28.5313V4.59998C30.3778 4.9419 32.0451 5.92249 33.2413 7.37C34.482 8.82672 35.1472 10.6869 35.1114 12.6V40.5499C35.1141 40.9823 35.0306 41.4109 34.8661 41.8107C34.7015 42.2105 34.4593 42.5735 34.1532 42.8788C33.847 43.184 33.4832 43.4253 33.0829 43.5886C32.6825 43.7519 32.2537 43.8339 31.8214 43.83H3.29135ZM25.2013 30.1399H28.4913V22.45H6.57138V25.73H25.2013V30.1399Z" fill="#15152C"/>
</svg>
