<svg width="40" height="32" viewBox="0 0 40 32" fill="none" xmlns="http://www.w3.org/2000/svg">
<path d="M2.93997 31.39C2.55506 31.3895 2.17407 31.3114 1.8201 31.1602C1.46613 31.0089 1.14639 30.7878 0.879914 30.51C0.600292 30.245 0.377946 29.9255 0.226594 29.5712C0.0752422 29.2169 -0.00178756 28.8353 3.14809e-05 28.4501V2.94006C-0.00178756 2.55479 0.0752422 2.17327 0.226594 1.81897C0.377946 1.46467 0.600292 1.14505 0.879914 0.880005C1.14639 0.602248 1.46613 0.381192 1.8201 0.22998C2.17407 0.0787692 2.55506 0.000509455 2.93997 0H36.2898C37.0648 0.0153496 37.8038 0.330109 38.3518 0.878174C38.8999 1.42624 39.2147 2.16513 39.23 2.94006V28.4501C39.2147 29.225 38.8999 29.9639 38.3518 30.512C37.8038 31.06 37.0648 31.3747 36.2898 31.39H2.93997ZM19.6399 16.5601L36.3098 5.62012V2.92004L19.6399 13.6201L2.95999 2.92004V5.62012L19.6399 16.5601Z" fill="#15152C"/>
</svg>
