<svg width="143" height="107" viewBox="0 0 143 107" fill="none" xmlns="http://www.w3.org/2000/svg">
<g opacity="0.5">
<path d="M142.37 24.9835C141.816 40.2863 133.423 50.9574 125.253 61.3453C117.99 70.6022 109.253 78.6015 99.3906 85.0228C99.8421 86.0029 100.242 87.0058 100.589 88.0275C101.392 90.4013 101.946 92.9167 102.41 97.5269C102.41 97.6041 102.41 97.6857 102.432 97.763C102.495 98.1609 102.436 98.5688 102.262 98.9323C102.088 99.2958 101.807 99.5976 101.457 99.7976C92.0118 103.997 81.7838 106.15 71.4463 106.113C61.1087 106.077 50.8961 103.853 41.4809 99.5873C41.1332 99.3861 40.8544 99.0845 40.6812 98.7222C40.5079 98.3599 40.4483 97.9537 40.5102 97.5569V97.5569C40.9784 92.9468 41.5282 90.4313 42.3357 88.0576C42.6797 87.0354 43.0783 86.0324 43.5298 85.0528C33.6677 78.6316 24.9302 70.6322 17.6676 61.3754C9.50217 50.9574 1.1048 40.2863 0.554992 24.9835C0.473381 22.8372 0.0567338 6.42268 8.1019 1.37469C12.277 -1.23945 16.8128 0.387409 21.4432 2.0572C34.3593 6.70169 41.0557 19.18 42.7781 22.6612C43.5126 24.1507 44.6938 27.5847 47.052 34.427C50.5699 44.6346 52.9624 52.9706 54.8566 59.624C55.8445 63.0881 57.1546 67.7798 58.6322 73.4287C60.9894 72.6445 63.4114 72.0699 65.8698 71.7117C67.3966 71.4802 68.9355 71.3368 70.4787 71.2825V71.2524C70.7966 71.2524 71.1273 71.2524 71.4624 71.2524C71.7974 71.2524 72.1239 71.2524 72.4417 71.2524V71.2567C73.985 71.3109 75.5239 71.4542 77.0506 71.686C79.5077 72.044 81.9282 72.6186 84.2839 73.403C85.7615 67.7669 87.0716 63.0623 88.0595 59.5983C89.9581 52.9449 92.3549 44.6088 95.8642 34.4012C98.2223 27.559 99.4035 24.125 100.16 22.6355C101.878 19.1714 108.578 6.6931 121.49 2.03144C126.108 0.38741 130.643 -1.23945 134.819 1.37469C142.868 6.43985 142.447 22.8243 142.37 24.9835Z" fill="#15152C"/>
</g>
</svg>
