<svg width="173" height="116" viewBox="0 0 173 116" fill="none" xmlns="http://www.w3.org/2000/svg">
<g opacity="0.5">
<path d="M28.2289 69.7256C33.5384 72.8288 39.3088 74.7843 45.2815 76.1081C70.4427 81.7384 95.6944 81.7255 120.972 76.9677C128.994 75.4591 136.806 73.164 144.225 69.6612C145.087 69.2572 145.72 68.8961 145.702 67.7185C145.625 61.3403 145.823 54.9536 145.595 48.584C144.794 25.8608 128.499 6.24922 106.184 1.65471C99.7336 0.31375 93.0073 0.386815 88.4901 0C80.8724 0.35673 75.3475 0.262175 69.9173 0.936953C47.5552 3.71773 28.9738 23.0843 27.2514 45.5067C26.6786 52.9336 26.9327 60.4249 26.9241 67.8861C26.9069 68.5093 27.6174 69.3689 28.2289 69.7256Z" fill="#15152C"/>
<path d="M167.458 73.2457C166.292 72.7467 165.07 72.3916 163.819 72.1884C160.171 71.7156 156.498 71.303 152.847 71.0408C150.521 70.8732 148.174 71.0107 145.681 71.0107C145.681 74.4792 145.616 77.8875 145.715 81.3258C145.754 82.6883 145.285 83.4361 144.04 83.9046C139.967 85.3917 135.996 87.2398 131.828 88.4002C104.436 95.999 76.7729 96.2741 48.9461 91.0822C41.8064 89.7498 34.8993 87.5922 28.4658 84.0894C27.2816 83.4447 26.7433 82.7141 26.7821 81.2743C26.9069 77.909 26.8208 74.5308 26.8208 70.6497C21.7438 70.9807 16.8691 71.144 12.0333 71.6726C9.45993 71.9766 6.93612 72.6078 4.52323 73.5508C1.0438 74.8918 -0.0930372 77.1912 0.893086 80.7628C1.47745 82.8461 2.34688 84.8391 3.47682 86.6854C6.37059 91.3873 10.4787 94.9417 15.0046 98.0234C25.4127 105.106 37.0868 109.043 49.2993 111.545C67.0753 115.185 85.0193 115.787 103.041 114.325C116.58 113.221 129.821 110.595 142.447 105.416C151.339 101.763 159.719 97.2067 166.17 89.9045C168.297 87.4547 170.025 84.6859 171.29 81.6997C173.047 77.5866 171.609 74.8789 167.458 73.2457Z" fill="#15152C"/>
</g>
</svg>
