<svg width="141" height="95" viewBox="0 0 141 95" fill="none" xmlns="http://www.w3.org/2000/svg">
<path opacity="0.5" d="M137.732 1.08588C136.883 0.468774 135.876 0.107164 134.83 0.0433303C133.784 -0.0205035 132.74 0.215724 131.823 0.72505C70.4103 34.9705 8.86005 1.08553 8.25255 0.72505C7.3322 0.199465 6.28078 -0.0494076 5.22357 0.00812735C4.16636 0.0656623 3.14804 0.427614 2.28964 1.05C1.43125 1.67239 0.76948 2.52933 0.382458 3.51895C-0.00456417 4.50857 -0.100506 5.58907 0.106728 6.63171C3.81039 23.5891 10.8825 39.6221 20.8997 53.7712C19.9149 55.5335 19.3922 57.5184 19.3808 59.5391C19.3772 61.1327 19.6868 62.7112 20.2916 64.1845C20.8964 65.6579 21.7844 66.9971 22.9053 68.1253C24.0262 69.2534 25.3583 70.1487 26.8242 70.7594C28.29 71.3701 29.8612 71.6841 31.4482 71.6841C33.4513 71.6692 35.4181 71.1444 37.1644 70.1589C40.3929 72.553 43.8527 74.6152 47.4918 76.3147C48.5145 81.5576 51.3195 86.281 55.4273 89.6762C59.535 93.0715 64.6896 94.9283 70.0099 94.9283C75.3302 94.9283 80.4855 93.0715 84.5932 89.6762C88.701 86.281 91.506 81.5576 92.5287 76.3147C96.1678 74.6152 99.6276 72.553 102.856 70.1589C104.602 71.1444 106.569 71.6692 108.572 71.6841C110.159 71.6841 111.73 71.3701 113.196 70.7594C114.662 70.1487 115.994 69.2534 117.115 68.1253C118.235 66.9971 119.124 65.6579 119.729 64.1845C120.334 62.7112 120.643 61.1327 120.64 59.5391C120.628 57.5184 120.106 55.5335 119.121 53.7712C129.138 39.6221 136.21 23.5891 139.914 6.63171C140.114 5.59466 140.014 4.52172 139.628 3.53926C139.241 2.55679 138.584 1.70567 137.732 1.08588V1.08588ZM109.87 47.6432C109.441 47.5696 109.007 47.5232 108.572 47.5044C105.372 47.5044 102.303 48.7813 100.039 51.0538C97.7765 53.3263 96.5056 56.4079 96.5056 59.6217C96.5228 60.0771 96.5684 60.5309 96.6431 60.9804C95.0442 62.1879 93.3757 63.2996 91.6456 64.3084C90.0769 59.8026 87.1515 55.8975 83.2753 53.1349C79.399 50.3722 74.7632 48.8882 70.0099 48.8882C65.2566 48.8882 60.6215 50.3722 56.7452 53.1349C52.869 55.8975 49.9436 59.8026 48.3749 64.3084C46.6505 63.2803 44.9826 62.1604 43.3774 60.9533C43.406 60.5101 43.406 60.0649 43.3774 59.6217C43.3774 56.4079 42.1058 53.3263 39.8428 51.0538C37.5798 48.7813 34.5104 47.5044 31.31 47.5044C30.884 47.5217 30.4597 47.5682 30.0399 47.6432C23.0048 37.9255 17.5605 27.1416 13.9134 15.6992C34.0712 24.0179 78.5012 36.9671 125.72 16.0593C122.147 27.3682 116.796 38.031 109.87 47.6432V47.6432Z" fill="#15152C"/>
</svg>
