<svg width="144" height="124" viewBox="0 0 144 124" fill="none" xmlns="http://www.w3.org/2000/svg">
<g opacity="0.5">
<path d="M130.515 59.6627C119.1 42.1694 106.296 25.6221 92.2266 10.181C92.5066 12.6443 92.9935 16.3221 93.8768 20.7363C96.1476 32.0968 100.93 37.902 104.11 51.4158C109.544 74.5116 112.784 81.3632 113.055 86.7291C113.426 93.9167 116.317 101.543 120.285 106.539C123.862 111.031 130.859 114.446 136.129 112.137C141.73 109.696 142.894 101.901 143.389 98.6108C145.561 84.2658 138.344 71.6951 130.515 59.6627Z" fill="#15152C"/>
<path d="M55.5975 41.7736H48.2251V56.5449H55.4467C58.2991 56.5449 60.4276 55.9376 61.8323 54.7232C63.1982 53.5088 63.9221 51.7087 63.9221 49.3702C63.9221 47.0318 63.1982 45.1929 61.7935 43.8235C60.3889 42.454 58.3336 41.7736 55.5975 41.7736Z" fill="#15152C"/>
<path d="M102.473 58.3321C98.7873 41.8464 94.2716 25.5572 88.9432 9.52647C88.2538 7.43782 86.6854 2.95475 82.6523 0.943612C79.7267 -0.503373 76.8398 -0.00812555 72.7421 0.599091C72.7421 0.599091 68.4333 1.28383 55.6017 2.91599C40.5122 4.85392 36.1173 -2.36378 28.1977 0.943612C23.6217 2.84278 20.9029 6.98133 16.2968 19.0955C9.60518 36.7522 5.95562 53.1169 2.4224 81.4279C-0.00776115 101.104 0.104268 106.406 3.75383 111.47C8.3901 117.813 15.5341 119.411 28.1891 122.03C44.235 125.32 56.7995 124.028 81.3252 121.345C97.5565 119.562 103.33 118.003 106.747 113.102C109.595 109.041 109.634 104.33 108.721 94.9503C107.169 79.2401 104.662 68.7796 102.473 58.3321ZM76.9733 84.6534H66.4685C65.5162 83.8955 64.9087 82.681 64.6415 80.9714C64.389 79.3124 64.2622 77.6367 64.2624 75.9586V72.3885C64.2624 69.839 63.5816 67.9054 62.1726 66.4972C60.7636 65.089 58.829 64.3698 56.3212 64.3698H48.225V84.6534H38.0433V33.9099H55.5974C61.4142 33.9099 65.9385 35.2406 69.2046 37.859C72.4706 40.4773 74.0692 44.2024 74.0692 48.9138C74.1239 51.317 73.4032 53.674 72.0139 55.6362C70.6092 57.5354 68.597 59.0556 65.9816 60.2312C68.9977 61.0925 71.1134 62.5869 72.4448 64.6368C73.7762 66.6867 74.4225 69.2706 74.4225 72.311V76.0318C74.4288 77.5312 74.6213 79.0241 74.9956 80.4761C75.3748 82.0351 76.0211 83.172 76.969 83.9213L76.9733 84.6534Z" fill="#15152C"/>
</g>
</svg>
