<svg width="206" height="206" viewBox="0 0 206 206" fill="none" xmlns="http://www.w3.org/2000/svg">
<path opacity="0.5" d="M192.941 102.867C192.941 53.1198 152.613 12.792 102.866 12.792C53.1195 12.792 12.7917 53.1198 12.7917 102.867C12.7917 152.614 53.1195 192.941 102.866 192.941C152.613 192.941 192.941 152.614 192.941 102.867Z" fill="white"/>
<path opacity="0.25" d="M205.733 102.866C205.733 46.0548 159.678 0 102.866 0C46.0548 0 0 46.0548 0 102.866C0 159.678 46.0548 205.733 102.866 205.733C159.678 205.733 205.733 159.678 205.733 102.866Z" fill="white"/>
<path d="M180.149 102.866C180.149 60.1838 145.548 25.583 102.866 25.583C60.184 25.583 25.5833 60.1838 25.5833 102.866C25.5833 145.548 60.184 180.149 102.866 180.149C145.548 180.149 180.149 145.548 180.149 102.866Z" fill="white"/>
</svg>
