<svg width="76" height="76" viewBox="0 0 76 76" fill="none" xmlns="http://www.w3.org/2000/svg">
<path d="M37.9099 75.8199C27.8556 75.8199 18.213 71.8259 11.1035 64.7164C3.99401 57.6069 0 47.9644 0 37.91V37.91C0 27.8557 3.99401 18.2131 11.1035 11.1036C18.213 3.99413 27.8556 0 37.9099 0V0C47.9643 0 57.6068 3.99413 64.7163 11.1036C71.8258 18.2131 75.8201 27.8557 75.8201 37.91V37.91C75.8201 47.9644 71.8258 57.6069 64.7163 64.7164C57.6068 71.8259 47.9643 75.8199 37.9099 75.8199V75.8199Z" fill="white"/>
<path d="M20.45 49.14C20.45 48.7343 20.6113 48.3451 20.8982 48.0581C21.1852 47.7712 21.5742 47.61 21.98 47.61H55.5799C55.9848 47.6126 56.3726 47.7747 56.659 48.0611C56.9453 48.3474 57.1073 48.7351 57.1099 49.14V49.14C57.1099 49.341 57.0703 49.5399 56.9934 49.7255C56.9166 49.9111 56.804 50.0799 56.6619 50.222C56.5198 50.364 56.3512 50.4767 56.1656 50.5536C55.9799 50.6305 55.7808 50.6701 55.5799 50.6701H21.98C21.7787 50.6714 21.5791 50.6327 21.3929 50.5563C21.2066 50.4799 21.0374 50.3672 20.8951 50.2249C20.7527 50.0825 20.6402 49.9133 20.5638 49.7271C20.4873 49.5409 20.4487 49.3413 20.45 49.14ZM20.45 38.45C20.45 38.0442 20.6113 37.6551 20.8982 37.3682C21.1852 37.0813 21.5742 36.9201 21.98 36.9201H55.5799C55.9848 36.9227 56.3726 37.0846 56.659 37.371C56.9453 37.6574 57.1073 38.045 57.1099 38.45V38.45C57.1073 38.855 56.9453 39.2426 56.659 39.529C56.3726 39.8153 55.9848 39.9774 55.5799 39.98H21.98C21.5742 39.98 21.1852 39.8188 20.8982 39.5319C20.6113 39.245 20.45 38.8558 20.45 38.45V38.45ZM20.45 27.76C20.4487 27.5587 20.4873 27.3592 20.5638 27.173C20.6402 26.9868 20.7527 26.8175 20.8951 26.6752C21.0374 26.5329 21.2066 26.4202 21.3929 26.3438C21.5791 26.2674 21.7787 26.2287 21.98 26.23H55.5799C55.7808 26.23 55.9799 26.2696 56.1656 26.3465C56.3512 26.4234 56.5198 26.5361 56.6619 26.6781C56.804 26.8202 56.9166 26.9888 56.9934 27.1745C57.0703 27.3601 57.1099 27.5591 57.1099 27.76V27.76C57.1073 28.165 56.9453 28.5527 56.659 28.839C56.3726 29.1254 55.9848 29.2875 55.5799 29.2901H21.98C21.5742 29.2901 21.1852 29.1289 20.8982 28.842C20.6113 28.555 20.45 28.1658 20.45 27.76Z" fill="black"/>
</svg>
