<svg width="548" height="224" viewBox="0 0 548 224" fill="none" xmlns="http://www.w3.org/2000/svg">
<path fill-rule="evenodd" clip-rule="evenodd" d="M360.662 78.5864C322.333 130.374 275.151 194.124 155 224H35.5417C15.9125 224 0 208.092 0 188.469V36.5311C0 16.9078 15.9125 1 35.5417 1H464.473C415.021 5.13988 390.529 38.2313 360.662 78.5864ZM548 36.5311V36.4892C548 27.0637 544.263 18.0242 537.612 11.3594C530.96 4.69451 521.939 0.950242 512.533 0.950242C502.236 0.950172 493.413 0.950195 484.198 0.950219L465.087 0.950242C464.882 0.966334 464.677 0.982921 464.473 1H512.458C532.088 1 548 16.9078 548 36.5311ZM548 188.461C548 194.607 546.411 200.588 543.462 205.854C537.373 216.684 525.77 224 512.458 224H155C155 224 155 224 155 224H512.573C521.973 223.989 530.983 220.24 537.626 213.577C539.934 211.261 541.891 208.659 543.462 205.854C546.352 200.715 548 194.784 548 188.469V188.461Z" fill="white"/>
</svg>
