<svg width="11" height="23" viewBox="0 0 11 23" fill="none" xmlns="http://www.w3.org/2000/svg">
<path d="M4.05119 5.21992C4.34186 5.40634 4.61601 5.61697 4.87101 5.84981C5.247 6.25927 5.45713 6.79392 5.46086 7.34981C5.46086 8.16981 5.46105 8.98976 5.41105 9.79976C5.30105 11.1698 5.19115 12.5399 5.01115 13.8999C4.74115 16.0599 4.43076 18.2198 4.11076 20.3698C3.99733 20.9302 3.84364 21.4818 3.6508 22.02C3.59012 22.1683 3.49034 22.2971 3.36174 22.3928C3.23313 22.4884 3.08084 22.5473 2.92131 22.5627C2.76178 22.5781 2.60102 22.5496 2.45646 22.4804C2.31191 22.4112 2.18899 22.3038 2.101 22.1699C1.8049 21.6959 1.57295 21.1848 1.41105 20.6499C1.03023 19.3892 0.781981 18.092 0.670819 16.7797C0.510819 15.2597 0.291054 13.7799 0.161054 12.2099C-0.0122397 10.7163 -0.0458159 9.20976 0.060956 7.70991C0.0856985 7.22441 0.23954 6.7542 0.506757 6.3481C0.773974 5.942 1.14489 5.61469 1.58098 5.39985C1.46059 4.56887 1.61903 3.7215 2.03117 2.98994C2.43345 2.22195 3.00824 1.55766 3.71086 1.04976C4.37396 0.571102 5.13453 0.245079 5.9384 0.0946788C6.74226 -0.0557218 7.56946 -0.0266562 8.36076 0.179884C8.97133 0.253641 9.53364 0.549071 9.94084 1.00996C10.0906 1.19401 10.1926 1.41204 10.2377 1.64497C10.2828 1.8779 10.2694 2.11831 10.1991 2.34492C10.1289 2.57153 10.0038 2.77746 9.83488 2.94404C9.66594 3.11062 9.45845 3.23269 9.23088 3.29976C8.90314 3.37868 8.5679 3.42238 8.23088 3.42988L7.28117 3.49995C7.14117 3.49995 7.03119 3.55994 7.05119 3.73994C7.05119 4.28994 6.66084 4.58987 6.19084 4.66987C5.72084 4.74987 5.07115 4.88996 4.51115 5.00996C4.35154 5.06531 4.19756 5.13558 4.05119 5.21992Z" fill="white"/>
</svg>
