<svg width="19" height="41" viewBox="0 0 19 41" fill="none" xmlns="http://www.w3.org/2000/svg">
<path d="M8.1001 9.61014C8.61587 9.93197 9.10116 10.3003 9.55005 10.7102C10.1977 11.4446 10.5535 12.391 10.5501 13.3702C10.5501 14.8102 10.55 16.2602 10.45 17.6902C10.27 20.1102 10.06 22.5302 9.76001 24.9302C9.27335 28.7502 8.73657 32.5635 8.14991 36.3702C7.95717 37.359 7.68993 38.3318 7.3501 39.2802C7.24219 39.5416 7.06518 39.7688 6.83814 39.9374C6.6111 40.106 6.34248 40.2097 6.06104 40.2375C5.7796 40.2652 5.49582 40.2158 5.24024 40.0948C4.98465 39.9737 4.76697 39.7855 4.61011 39.5502C4.08993 38.7081 3.67652 37.8044 3.37989 36.8601C2.70694 34.6323 2.27138 32.3396 2.08008 30.0202C1.79008 27.3302 1.41995 24.6502 1.18995 21.9602C0.877582 19.3052 0.817381 16.6266 1.01001 13.9602C1.06199 13.1247 1.3299 12.317 1.78736 11.6159C2.24482 10.9148 2.8763 10.3443 3.62012 9.96024C3.41634 8.49218 3.6933 6.9976 4.40992 5.70023C5.13305 4.34706 6.15991 3.17983 7.40992 2.29019C8.58034 1.44047 9.92507 0.861463 11.3467 0.595126C12.7683 0.328789 14.2312 0.381742 15.6299 0.750155C16.7089 0.871575 17.7021 1.39682 18.4099 2.22025C18.6654 2.54378 18.8384 2.92456 18.9138 3.32987C18.9892 3.73518 18.9648 4.15276 18.8428 4.54654C18.7207 4.94032 18.5046 5.29853 18.2131 5.59012C17.9217 5.88171 17.5636 6.09798 17.1699 6.22025C16.5876 6.34721 15.9954 6.42413 15.3999 6.45023C14.8399 6.45023 14.28 6.52021 13.72 6.56021C13.47 6.56021 13.2801 6.67015 13.3101 6.99015C13.4001 7.99015 12.61 8.49017 11.79 8.64017C10.79 8.81017 9.79004 9.01015 8.79004 9.24015C8.54744 9.33838 8.31617 9.46243 8.1001 9.61014Z" fill="#15152C"/>
</svg>
