<svg width="46" height="47" viewBox="0 0 46 47" fill="none" xmlns="http://www.w3.org/2000/svg">
<path d="M45.7544 12.3305C45.76 12.0994 45.6852 11.8733 45.5429 11.691C45.4007 11.5087 45.2002 11.3813 44.9746 11.3305C44.8021 11.3059 44.627 11.3059 44.4546 11.3305H34.2343H34.3442C35.6829 10.9827 36.8458 10.1518 37.6084 8.99777C38.3709 7.84379 38.6796 6.44844 38.4746 5.08054C38.3851 4.30653 38.1388 3.55883 37.7509 2.88303C37.3631 2.20723 36.8418 1.61743 36.2187 1.14963C35.5956 0.681828 34.8836 0.345767 34.1264 0.161958C33.3693 -0.0218505 32.5827 -0.0495069 31.8144 0.0805374C30.354 0.278766 28.9566 0.801467 27.7246 1.61044C26.003 2.7263 24.4418 4.07207 23.0844 5.61044C22.9344 5.78044 22.8646 5.77044 22.7046 5.61044C21.8173 4.63323 20.8578 3.72404 19.8344 2.89047C18.4146 1.6838 16.7497 0.800108 14.9546 0.300508C13.506 -0.0974691 11.9651 0.00823355 10.5844 0.600435C9.51131 1.11166 8.6213 1.94028 8.03464 2.97409C7.44797 4.00791 7.19272 5.19702 7.30417 6.38046C7.35318 7.25946 7.61337 8.11375 8.06247 8.87094C8.51156 9.62814 9.13641 10.2659 9.88425 10.7304C10.4326 11.0597 11.0256 11.3089 11.6445 11.4704H1.23434C1.06909 11.4492 0.901309 11.4662 0.743621 11.52C0.585932 11.5738 0.44249 11.663 0.324675 11.7809C0.20686 11.8987 0.117737 12.0419 0.063933 12.1996C0.010129 12.3572 -0.00710126 12.5253 0.0141283 12.6905C0.0141283 14.4705 0.0141283 16.2505 0.0141283 18.0305C-0.0132143 18.196 -0.000711534 18.3656 0.0502611 18.5254C0.101234 18.6852 0.189468 18.8306 0.307585 18.9497C0.425703 19.0688 0.570571 19.1581 0.729949 19.2104C0.889326 19.2627 1.05887 19.2764 1.22458 19.2505H20.9043C21.3243 19.2505 21.3242 19.2505 21.3242 18.8205V11.9005C21.3242 11.5005 21.3246 11.5005 21.7046 11.5005H24.0644C24.4544 11.5005 24.4546 11.5005 24.4546 11.9005V18.8404C24.4546 19.0004 24.5243 19.0904 24.6943 19.0904H44.6445C44.7855 19.1075 44.9284 19.0943 45.0639 19.0517C45.1995 19.0092 45.3242 18.9382 45.4301 18.8436C45.5361 18.749 45.6211 18.6329 45.6787 18.503C45.7363 18.3732 45.7652 18.2325 45.7641 18.0904C45.7641 16.1604 45.7644 14.2405 45.7544 12.3305ZM20.4643 8.07053C20.4643 8.14053 20.3141 8.07053 20.2441 8.07053H13.2441C12.8849 8.08041 12.5269 8.02967 12.1845 7.9205C11.6598 7.71987 11.221 7.34285 10.9438 6.85422C10.6666 6.36559 10.5681 5.79576 10.665 5.2424C10.762 4.68904 11.0482 4.18665 11.4751 3.82138C11.9019 3.45612 12.4427 3.25073 13.0044 3.24045C14.2274 3.26496 15.4136 3.66275 16.4043 4.38046C17.8881 5.34352 19.2338 6.50426 20.4043 7.83054C20.4143 7.90054 20.5143 7.98053 20.4643 8.07053V8.07053ZM31.0141 8.07053H25.5044C25.4244 8.07053 25.3344 8.07053 25.2944 8.07053C25.2544 8.07053 25.2945 7.95048 25.3745 7.90048C26.6191 6.46525 28.072 5.22473 29.6845 4.22043C30.627 3.60594 31.7294 3.28256 32.8545 3.2905C33.319 3.29356 33.7711 3.4403 34.1489 3.71066C34.5267 3.98103 34.8115 4.36178 34.9643 4.80051C35.1532 5.25874 35.1998 5.76318 35.0981 6.24826C34.9965 6.73335 34.7514 7.17662 34.3945 7.52048C33.9596 7.90034 33.4016 8.10989 32.8242 8.11045C32.2342 8.12045 31.6141 8.11045 31.0141 8.11045V8.07053Z" fill="white"/>
<path d="M20.8344 22.2202H3.23428C2.75428 22.2202 2.7543 22.2203 2.7543 22.7003C2.7543 30.1603 2.7543 37.6235 2.7543 45.0902C2.74724 45.2965 2.78275 45.5021 2.85879 45.694C2.93482 45.8859 3.04976 46.0601 3.19619 46.2056C3.34262 46.3511 3.51747 46.4648 3.70986 46.5396C3.90226 46.6143 4.1081 46.6486 4.31435 46.6403C9.82435 46.6403 15.3141 46.6403 20.8441 46.6403C21.3441 46.6403 21.3441 46.6403 21.3441 46.1503V22.7003C21.3141 22.2203 21.3144 22.2202 20.8344 22.2202Z" fill="white"/>
<path d="M43.0142 22.6703C43.0142 22.2203 43.0145 22.2202 42.5645 22.2202H24.8945C24.4445 22.2202 24.4443 22.2203 24.4443 22.6703V46.1403C24.4443 46.6303 24.4443 46.6302 24.9443 46.6302C30.4743 46.6302 36.0042 46.6302 41.5342 46.6302C41.7306 46.6329 41.9259 46.5963 42.1079 46.5223C42.2899 46.4484 42.4549 46.3387 42.5938 46.1998C42.7326 46.0609 42.8426 45.8956 42.9165 45.7136C42.9904 45.5316 43.0271 45.3367 43.0244 45.1403C43.0044 37.6503 43.0142 30.1603 43.0142 22.6703Z" fill="white"/>
</svg>
