<svg width="467" height="536" viewBox="0 0 467 536" fill="none" xmlns="http://www.w3.org/2000/svg">
<path opacity="0.2" d="M132.697 287.874C129.506 285.91 126.437 284.315 123.492 282.351C99.525 266.616 77.1584 248.565 56.7182 228.46C33.4163 204.381 16.5344 174.834 7.62167 142.532C0.846047 117.602 -1.43744 91.6648 0.873298 65.9337C1.60123 51.7053 3.82026 37.5937 7.49881 23.8299C8.13364 21.5566 8.95709 19.3391 9.95603 17.2007C11.8411 12.1722 15.3211 7.90231 19.8658 5.04215C24.4106 2.18198 29.767 0.888858 35.1156 1.36492C45.296 2.30251 55.1877 5.26825 64.2067 10.083C102.566 28.1225 133.893 58.3302 153.317 96.0108C159.591 108.822 164.924 122.074 169.274 135.66C174.552 150.882 179.215 166.349 183.511 181.816C189.375 202.753 193.724 224.085 196.522 245.647C196.442 246.628 196.442 247.613 196.522 248.593C207.649 243.559 219.721 240.954 231.933 240.954C244.145 240.954 256.217 243.559 267.344 248.593C267.958 244.42 268.325 240.614 268.938 236.318C272.925 210.126 279.041 184.302 287.227 159.105C292.382 143.515 296.801 127.557 303.061 112.335C321.05 67.2157 355.423 30.5622 399.291 9.71435C407.624 5.22519 416.68 2.23406 426.048 0.876423C429.412 -0.0473109 432.934 -0.243818 436.38 0.301013C439.826 0.845844 443.117 2.11861 446.032 4.03518C448.947 5.95175 451.42 8.46889 453.287 11.4166C455.153 14.3643 456.37 17.6746 456.856 21.1296C460.143 32.1279 462.525 43.377 463.976 54.7641C466.491 72.0381 466.984 89.5462 465.447 106.935C461.731 144.952 447.303 181.135 423.839 211.275C409.796 229.099 393.261 244.809 374.743 257.923C360.873 268.357 346.513 277.931 332.275 287.997L331.415 288.857L334.729 293.397C340.623 302.349 344.128 312.662 344.914 323.351C345.548 330.61 346.614 337.822 348.106 344.953C349.571 352.083 353.117 358.619 358.294 363.735C362.713 368.4 367.01 373.189 371.674 377.731C380.178 386.227 386.597 396.578 390.43 407.973C394.263 419.367 395.408 431.493 393.768 443.402C392.57 456.709 387.774 469.438 379.897 480.228C372.419 492.444 361.94 502.546 349.457 509.568C328.261 520.678 305.432 528.342 281.827 532.276C243.157 538.178 203.74 537.058 165.468 528.964C145.199 524.736 125.89 516.784 108.518 505.517C99.2562 499.692 91.2352 492.097 84.9163 483.165C78.5974 474.234 74.1049 464.142 71.6952 453.469C68.0499 440.376 67.9582 426.549 71.4315 413.409C74.9049 400.269 81.816 388.291 91.4549 378.711C94.6462 375.519 97.4694 371.962 100.783 369.016C111.106 359.472 117.237 346.235 117.843 332.189C117.843 327.525 118.704 322.858 119.44 318.194C120.804 307.009 125.413 296.469 132.697 287.874V287.874Z" fill="#15152C"/>
<rect x="197.666" y="444.88" width="16.7337" height="16.7337" fill="white"/>
<rect x="232.807" y="444.88" width="16.7337" height="16.7337" fill="white"/>
<rect x="215.237" y="444.88" width="16.7337" height="16.7337" fill="white"/>
<rect x="250.377" y="444.88" width="16.7337" height="16.7337" fill="white"/>
<rect x="267.948" y="462.45" width="16.7337" height="16.7337" fill="white"/>
<rect x="180.096" y="462.45" width="16.7337" height="16.7337" fill="white"/>
<rect x="154.708" y="330.176" width="13.5961" height="13.5961" fill="white"/>
<rect x="183.26" y="330.176" width="13.5961" height="13.5961" fill="white"/>
<rect x="168.984" y="330.176" width="13.5961" height="13.5961" fill="white"/>
<rect x="197.536" y="344.452" width="13.5961" height="13.5961" fill="white"/>
<rect x="140.432" y="344.452" width="13.5961" height="13.5961" fill="white"/>
<rect x="269.412" y="330.176" width="13.5961" height="13.5961" fill="white"/>
<rect x="297.964" y="330.176" width="13.5961" height="13.5961" fill="white"/>
<rect x="283.688" y="330.176" width="13.5961" height="13.5961" fill="white"/>
<rect x="312.24" y="344.452" width="13.5961" height="13.5961" fill="white"/>
<rect x="255.136" y="344.452" width="13.5961" height="13.5961" fill="white"/>
<rect x="204.752" y="386.992" width="13.5961" height="13.5961" fill="white"/>
<rect x="233.304" y="386.992" width="13.5961" height="13.5961" fill="white"/>
<rect x="233.304" y="400.928" width="13.5961" height="13.5961" fill="white"/>
<rect x="219.028" y="386.992" width="13.5961" height="13.5961" fill="white"/>
<rect x="219.028" y="400.928" width="13.5961" height="13.5961" fill="white"/>
<rect x="247.292" y="386.992" width="13.5961" height="13.5961" fill="white"/>
</svg>
