<svg width="593" height="103" viewBox="0 0 593 103" fill="none" xmlns="http://www.w3.org/2000/svg">
<path d="M161.8 18.2812H430.78" stroke="#C7C7CC" stroke-width="30" stroke-miterlimit="10" stroke-linecap="round"/>
<g style="mix-blend-mode:multiply" opacity="0.75">
<g style="mix-blend-mode:multiply">
<path d="M161.8 18.2812H430.78" stroke="#E1EAFF" stroke-width="30" stroke-miterlimit="10" stroke-linecap="round"/>
</g>
</g>
<path d="M356 33.3208H161.8C157.822 33.3208 154.006 31.7405 151.193 28.9275C148.38 26.1144 146.8 22.299 146.8 18.3208C146.8 14.3426 148.38 10.5272 151.193 7.71411C154.006 4.90107 157.822 3.3208 161.8 3.3208H356C359.978 3.3208 363.794 4.90107 366.607 7.71411C369.42 10.5272 371 14.3426 371 18.3208C371 22.299 369.42 26.1144 366.607 28.9275C363.794 31.7405 359.978 33.3208 356 33.3208Z" fill="url(#paint0_linear_159_376)"/>
<path d="M161.8 87.5811H430.78" stroke="#C7C7CC" stroke-width="30" stroke-miterlimit="10" stroke-linecap="round"/>
<g style="mix-blend-mode:multiply" opacity="0.75">
<g style="mix-blend-mode:multiply">
<path d="M161.8 87.5811H430.78" stroke="#E1EAFF" stroke-width="30" stroke-miterlimit="10" stroke-linecap="round"/>
</g>
</g>
<path d="M296.28 102.581H161.8C157.822 102.581 154.006 101.001 151.193 98.1877C148.38 95.3747 146.8 91.5593 146.8 87.5811C146.8 83.6028 148.38 79.7874 151.193 76.9744C154.006 74.1613 157.822 72.5811 161.8 72.5811H296.28C300.258 72.5811 304.074 74.1613 306.887 76.9744C309.7 79.7874 311.28 83.6028 311.28 87.5811C311.28 91.5593 309.7 95.3747 306.887 98.1877C304.074 101.001 300.258 102.581 296.28 102.581V102.581Z" fill="url(#paint1_linear_159_376)"/>
<path opacity="0.5" d="M67.5437 7.17766C67.9436 7.42787 68.3199 7.71402 68.6679 8.03276C69.1842 8.59797 69.4741 9.33455 69.4821 10.101C69.4821 11.2205 69.482 12.3477 69.4045 13.4673C69.2649 15.341 69.1021 17.2226 68.8695 19.0885C68.487 22.0585 68.0709 25.0232 67.6212 27.9827C67.4717 28.7515 67.2645 29.5078 67.001 30.2451C66.9182 30.4488 66.7816 30.6261 66.606 30.758C66.4304 30.8898 66.2221 30.9714 66.0039 30.9937C65.7856 31.0161 65.5655 30.9785 65.3669 30.885C65.1683 30.7914 64.9987 30.6455 64.8765 30.4628C64.4732 29.8053 64.1529 29.1003 63.9228 28.3637C63.4055 26.6332 63.0679 24.8536 62.915 23.0535C62.6902 20.9621 62.4032 18.8707 62.2249 16.7793C61.9827 14.7151 61.936 12.6326 62.0854 10.5595C62.1191 9.90319 62.3236 9.26719 62.6786 8.71476C63.0336 8.16232 63.5267 7.71288 64.1089 7.41094C63.9509 6.26957 64.1658 5.10758 64.7214 4.09892C65.2821 3.04687 66.0783 2.13929 67.0474 1.44762C67.9549 0.786992 68.9975 0.336831 70.0997 0.129762C71.202 -0.0773066 72.3362 -0.0361369 73.4206 0.250293C74.2572 0.344693 75.0273 0.753149 75.5761 1.39334C75.7742 1.64487 75.9083 1.94092 75.9668 2.25603C76.0252 2.57115 76.0063 2.89572 75.9117 3.20186C75.817 3.50801 75.6495 3.78661 75.4235 4.01331C75.1975 4.24001 74.9199 4.40815 74.6147 4.50321C74.1638 4.60574 73.7043 4.66559 73.2423 4.68202C72.8081 4.72866 72.374 4.73634 71.9398 4.77521C71.746 4.77521 71.5987 4.8529 71.622 5.10169C71.6918 5.87916 71.087 6.26801 70.4435 6.38463C69.6681 6.5168 68.8928 6.67995 68.1175 6.851C67.9142 6.93704 67.7216 7.04676 67.5437 7.17766V7.17766Z" fill="#15152C"/>
<path d="M11.0708 9.22656H13.9761L18.8345 22.6055L23.6807 9.22656H26.5981L19.9941 27H17.6626L11.0708 9.22656ZM9.60596 9.22656H12.4502L12.9629 21.519V27H9.60596V9.22656ZM25.2065 9.22656H28.063V27H24.7061V21.519L25.2065 9.22656ZM38.5122 24.1924V18.1011C38.5122 17.6535 38.4349 17.2669 38.2803 16.9414C38.1257 16.6159 37.8896 16.3636 37.5723 16.1846C37.2549 16.0055 36.8521 15.916 36.3638 15.916C35.9325 15.916 35.554 15.9893 35.2285 16.1357C34.9111 16.2822 34.667 16.4897 34.4961 16.7583C34.3252 17.0187 34.2397 17.3198 34.2397 17.6616H31.0049C31.0049 17.1164 31.1351 16.5996 31.3955 16.1113C31.6559 15.6149 32.0262 15.1755 32.5063 14.793C32.9946 14.4023 33.5765 14.0972 34.252 13.8774C34.9355 13.6577 35.7005 13.5479 36.5469 13.5479C37.5479 13.5479 38.439 13.7188 39.2202 14.0605C40.0096 14.3942 40.6281 14.8988 41.0757 15.5742C41.5314 16.2497 41.7593 17.1001 41.7593 18.1255V23.8872C41.7593 24.5464 41.8 25.112 41.8813 25.584C41.9709 26.0479 42.1011 26.4507 42.272 26.7925V27H38.9883C38.8337 26.6663 38.7157 26.2432 38.6343 25.7305C38.5529 25.2096 38.5122 24.6969 38.5122 24.1924ZM38.9639 18.9556L38.9883 20.8721H36.9497C36.4451 20.8721 36.0016 20.925 35.6191 21.0308C35.2367 21.1284 34.9233 21.2749 34.6792 21.4702C34.4351 21.6574 34.252 21.8853 34.1299 22.1538C34.0078 22.4142 33.9468 22.7113 33.9468 23.0449C33.9468 23.3704 34.02 23.6634 34.1665 23.9238C34.3211 24.1842 34.5409 24.3918 34.8257 24.5464C35.1187 24.6929 35.4604 24.7661 35.8511 24.7661C36.4207 24.7661 36.9172 24.6522 37.3403 24.4243C37.7635 24.1883 38.0931 23.9035 38.3291 23.5698C38.5651 23.2362 38.6912 22.9188 38.7075 22.6177L39.6353 24.0093C39.5213 24.3429 39.3504 24.6969 39.1226 25.0713C38.8947 25.4456 38.6017 25.7956 38.2437 26.1211C37.8856 26.4466 37.4543 26.7152 36.9497 26.9268C36.4451 27.1383 35.8592 27.2441 35.1919 27.2441C34.3374 27.2441 33.5724 27.0732 32.897 26.7314C32.2215 26.3896 31.6885 25.9217 31.2979 25.3276C30.9072 24.7336 30.7119 24.0581 30.7119 23.3013C30.7119 22.6014 30.8421 21.9829 31.1025 21.4458C31.363 20.9087 31.7495 20.457 32.2622 20.0908C32.7749 19.7165 33.4097 19.4357 34.1665 19.2485C34.9315 19.0532 35.8063 18.9556 36.791 18.9556H38.9639ZM47.1914 13.792L49.5474 17.9912L51.9399 13.792H55.4434L51.5615 20.2617L55.6021 27H52.0986L49.5718 22.5933L47.0327 27H43.5293L47.5576 20.2617L43.7002 13.792H47.1914ZM83.6294 9.22656L76.9155 28.5259H74.4619L81.1758 9.22656H83.6294ZM91.0635 27H87.2305L87.2549 24.3633H91.0635C92.097 24.3633 92.9637 24.1354 93.6636 23.6797C94.3634 23.2158 94.8924 22.5526 95.2505 21.6899C95.6086 20.8192 95.7876 19.7775 95.7876 18.5649V17.6494C95.7876 16.7135 95.6859 15.8875 95.4824 15.1714C95.279 14.4552 94.9779 13.853 94.5791 13.3647C94.1885 12.8765 93.7043 12.5062 93.1265 12.2539C92.5487 12.0016 91.8854 11.8755 91.1367 11.8755H87.1572V9.22656H91.1367C92.3249 9.22656 93.4072 9.42594 94.3838 9.82471C95.3685 10.2235 96.2189 10.7972 96.9351 11.5459C97.6593 12.2865 98.2127 13.1735 98.5952 14.207C98.9858 15.2406 99.1812 16.3962 99.1812 17.6738V18.5649C99.1812 19.8345 98.9858 20.9901 98.5952 22.0317C98.2127 23.0653 97.6593 23.9523 96.9351 24.6929C96.2189 25.4334 95.3644 26.0031 94.3716 26.4019C93.3787 26.8006 92.276 27 91.0635 27ZM89.1104 9.22656V27H85.7534V9.22656H89.1104ZM109.069 24.1924V18.1011C109.069 17.6535 108.992 17.2669 108.837 16.9414C108.682 16.6159 108.446 16.3636 108.129 16.1846C107.812 16.0055 107.409 15.916 106.92 15.916C106.489 15.916 106.111 15.9893 105.785 16.1357C105.468 16.2822 105.224 16.4897 105.053 16.7583C104.882 17.0187 104.796 17.3198 104.796 17.6616H101.562C101.562 17.1164 101.692 16.5996 101.952 16.1113C102.213 15.6149 102.583 15.1755 103.063 14.793C103.551 14.4023 104.133 14.0972 104.809 13.8774C105.492 13.6577 106.257 13.5479 107.104 13.5479C108.104 13.5479 108.996 13.7188 109.777 14.0605C110.566 14.3942 111.185 14.8988 111.632 15.5742C112.088 16.2497 112.316 17.1001 112.316 18.1255V23.8872C112.316 24.5464 112.357 25.112 112.438 25.584C112.528 26.0479 112.658 26.4507 112.829 26.7925V27H109.545C109.39 26.6663 109.272 26.2432 109.191 25.7305C109.11 25.2096 109.069 24.6969 109.069 24.1924ZM109.521 18.9556L109.545 20.8721H107.506C107.002 20.8721 106.558 20.925 106.176 21.0308C105.793 21.1284 105.48 21.2749 105.236 21.4702C104.992 21.6574 104.809 21.8853 104.687 22.1538C104.564 22.4142 104.503 22.7113 104.503 23.0449C104.503 23.3704 104.577 23.6634 104.723 23.9238C104.878 24.1842 105.097 24.3918 105.382 24.5464C105.675 24.6929 106.017 24.7661 106.408 24.7661C106.977 24.7661 107.474 24.6522 107.897 24.4243C108.32 24.1883 108.65 23.9035 108.886 23.5698C109.122 23.2362 109.248 22.9188 109.264 22.6177L110.192 24.0093C110.078 24.3429 109.907 24.6969 109.679 25.0713C109.451 25.4456 109.158 25.7956 108.8 26.1211C108.442 26.4466 108.011 26.7152 107.506 26.9268C107.002 27.1383 106.416 27.2441 105.749 27.2441C104.894 27.2441 104.129 27.0732 103.454 26.7314C102.778 26.3896 102.245 25.9217 101.854 25.3276C101.464 24.7336 101.269 24.0581 101.269 23.3013C101.269 22.6014 101.399 21.9829 101.659 21.4458C101.92 20.9087 102.306 20.457 102.819 20.0908C103.332 19.7165 103.966 19.4357 104.723 19.2485C105.488 19.0532 106.363 18.9556 107.348 18.9556H109.521ZM118.896 25.5352L122.436 13.792H125.89L120.592 29.002C120.47 29.3275 120.312 29.6815 120.116 30.064C119.929 30.4465 119.677 30.8086 119.359 31.1504C119.042 31.5003 118.643 31.7852 118.163 32.0049C117.691 32.2246 117.117 32.3345 116.442 32.3345C116.149 32.3345 115.889 32.3141 115.661 32.2734C115.433 32.2327 115.193 32.1799 114.94 32.1147V29.6978C115.022 29.7059 115.115 29.71 115.221 29.71C115.335 29.7181 115.433 29.7222 115.514 29.7222C115.986 29.7222 116.377 29.6652 116.686 29.5513C116.995 29.4455 117.243 29.2705 117.431 29.0264C117.626 28.7904 117.789 28.4811 117.919 28.0986L118.896 25.5352ZM117.15 13.792L120.141 23.521L120.666 26.9268L118.444 27.3296L113.671 13.792H117.15Z" fill="#878793"/>
<path d="M62.5234 91.3633V94H53.0752V91.3633H62.5234ZM54.1006 76.2266V94H50.7437V76.2266H54.1006ZM61.2905 83.563V86.1387H53.0752V83.563H61.2905ZM62.4868 76.2266V78.8755H53.0752V76.2266H62.4868ZM67.7725 83.6118V94H64.5498V80.792H67.5771L67.7725 83.6118ZM67.2598 86.9199H66.3076C66.3158 85.9596 66.446 85.0889 66.6982 84.3076C66.9505 83.5264 67.3045 82.855 67.7603 82.2935C68.2241 81.7319 68.7734 81.3006 69.4082 80.9995C70.043 80.6984 70.751 80.5479 71.5322 80.5479C72.167 80.5479 72.7407 80.6374 73.2534 80.8164C73.7661 80.9954 74.2056 81.2803 74.5718 81.6709C74.9461 82.0615 75.231 82.5742 75.4263 83.209C75.6297 83.8356 75.7314 84.6087 75.7314 85.5283V94H72.4844V85.5039C72.4844 84.9017 72.3949 84.4256 72.2158 84.0757C72.0449 83.7257 71.7926 83.4775 71.459 83.3311C71.1335 83.1846 70.7306 83.1113 70.2505 83.1113C69.7541 83.1113 69.3187 83.2131 68.9443 83.4165C68.5781 83.6118 68.2689 83.8844 68.0166 84.2344C67.7725 84.5843 67.5853 84.9871 67.4551 85.4429C67.3249 85.8986 67.2598 86.391 67.2598 86.9199ZM84.5083 94.2441C83.5073 94.2441 82.6081 94.0814 81.8105 93.7559C81.013 93.4303 80.3335 92.9787 79.772 92.4009C79.2186 91.8149 78.7913 91.1354 78.4902 90.3623C78.1973 89.5811 78.0508 88.7428 78.0508 87.8477V87.3594C78.0508 86.3421 78.1973 85.4185 78.4902 84.5884C78.7832 83.7502 79.1982 83.0299 79.7354 82.4277C80.2725 81.8255 80.9154 81.3617 81.6641 81.0361C82.4128 80.7106 83.2388 80.5479 84.1421 80.5479C85.078 80.5479 85.904 80.7065 86.6201 81.0239C87.3363 81.3332 87.9344 81.7726 88.4146 82.3423C88.8947 82.9119 89.2568 83.5955 89.501 84.3931C89.7451 85.1825 89.8672 86.0573 89.8672 87.0176V88.3726H79.5156V86.1509H86.6934V85.9067C86.6771 85.394 86.5794 84.9261 86.4004 84.5029C86.2214 84.0716 85.9447 83.7298 85.5703 83.4775C85.196 83.2171 84.7118 83.0869 84.1177 83.0869C83.6375 83.0869 83.2184 83.1927 82.8604 83.4043C82.5104 83.6077 82.2174 83.9007 81.9814 84.2832C81.7536 84.6576 81.5827 85.1051 81.4688 85.626C81.3548 86.1468 81.2979 86.7246 81.2979 87.3594V87.8477C81.2979 88.401 81.3711 88.9137 81.5176 89.3857C81.6722 89.8577 81.896 90.2687 82.189 90.6187C82.4901 90.9604 82.8481 91.229 83.2632 91.4243C83.6864 91.6115 84.1665 91.7051 84.7036 91.7051C85.3791 91.7051 85.9894 91.5749 86.5347 91.3145C87.0881 91.0459 87.5682 90.6512 87.9751 90.1304L89.5986 91.8149C89.3219 92.2218 88.9476 92.6125 88.4756 92.9868C88.0117 93.3612 87.4502 93.6663 86.791 93.9023C86.1318 94.1302 85.3709 94.2441 84.5083 94.2441ZM95.2505 83.4897V94H92.0278V80.792H95.0796L95.2505 83.4897ZM99.2666 80.7065L99.2178 83.7095C99.0387 83.6769 98.8353 83.6525 98.6074 83.6362C98.3877 83.62 98.1802 83.6118 97.9849 83.6118C97.4884 83.6118 97.0531 83.681 96.6787 83.8193C96.3044 83.9495 95.991 84.1408 95.7388 84.3931C95.4946 84.6453 95.3075 84.9546 95.1772 85.3208C95.047 85.6789 94.9738 86.0858 94.9575 86.5415L94.2617 86.4561C94.2617 85.6178 94.3472 84.8407 94.5181 84.1245C94.689 83.4084 94.9372 82.7817 95.2627 82.2446C95.5882 81.7075 95.9951 81.2925 96.4834 80.9995C96.9798 80.6984 97.5495 80.5479 98.1924 80.5479C98.3714 80.5479 98.5627 80.5641 98.7661 80.5967C98.9777 80.6211 99.1445 80.6577 99.2666 80.7065ZM109.191 80.792H112.121V93.5972C112.121 94.7935 111.86 95.8066 111.339 96.6367C110.827 97.4749 110.106 98.1097 109.179 98.541C108.251 98.9805 107.173 99.2002 105.944 99.2002C105.415 99.2002 104.841 99.127 104.223 98.9805C103.612 98.834 103.022 98.6021 102.453 98.2847C101.891 97.9754 101.423 97.5726 101.049 97.0762L102.501 95.1719C102.941 95.6846 103.437 96.0711 103.991 96.3315C104.544 96.6001 105.142 96.7344 105.785 96.7344C106.436 96.7344 106.99 96.6123 107.445 96.3682C107.909 96.1322 108.263 95.7822 108.507 95.3184C108.76 94.8626 108.886 94.3011 108.886 93.6338V83.8071L109.191 80.792ZM100.268 87.5547V87.2983C100.268 86.2892 100.39 85.3737 100.634 84.5518C100.878 83.7217 101.228 83.0096 101.684 82.4155C102.147 81.8215 102.705 81.3617 103.356 81.0361C104.015 80.7106 104.756 80.5479 105.578 80.5479C106.448 80.5479 107.181 80.7065 107.775 81.0239C108.377 81.3413 108.874 81.793 109.264 82.3789C109.663 82.9648 109.972 83.6606 110.192 84.4663C110.42 85.2638 110.595 86.1427 110.717 87.103V87.7988C110.603 88.7347 110.42 89.5933 110.167 90.3745C109.923 91.1558 109.598 91.8394 109.191 92.4253C108.784 93.0031 108.279 93.4507 107.677 93.7681C107.075 94.0854 106.367 94.2441 105.553 94.2441C104.739 94.2441 104.007 94.0773 103.356 93.7437C102.705 93.41 102.147 92.9421 101.684 92.3398C101.228 91.7376 100.878 91.0296 100.634 90.2158C100.39 89.402 100.268 88.515 100.268 87.5547ZM103.49 87.2983V87.5547C103.49 88.1243 103.547 88.6574 103.661 89.1538C103.775 89.6502 103.95 90.0897 104.186 90.4722C104.422 90.8465 104.719 91.1395 105.077 91.3511C105.435 91.5627 105.862 91.6685 106.359 91.6685C107.026 91.6685 107.571 91.5301 107.995 91.2534C108.426 90.9686 108.751 90.582 108.971 90.0938C109.199 89.5973 109.346 89.0399 109.411 88.4214V86.5049C109.37 86.0166 109.28 85.5649 109.142 85.1499C109.012 84.7349 108.829 84.3768 108.593 84.0757C108.357 83.7746 108.056 83.5386 107.689 83.3677C107.323 83.1968 106.888 83.1113 106.383 83.1113C105.895 83.1113 105.468 83.2212 105.102 83.4409C104.735 83.6525 104.434 83.9495 104.198 84.332C103.962 84.7145 103.783 85.158 103.661 85.6626C103.547 86.1672 103.49 86.7124 103.49 87.2983ZM118.896 92.5352L122.436 80.792H125.89L120.592 96.002C120.47 96.3275 120.312 96.6815 120.116 97.064C119.929 97.4465 119.677 97.8086 119.359 98.1504C119.042 98.5003 118.643 98.7852 118.163 99.0049C117.691 99.2246 117.117 99.3345 116.442 99.3345C116.149 99.3345 115.889 99.3141 115.661 99.2734C115.433 99.2327 115.193 99.1799 114.94 99.1147V96.6978C115.022 96.7059 115.115 96.71 115.221 96.71C115.335 96.7181 115.433 96.7222 115.514 96.7222C115.986 96.7222 116.377 96.6652 116.686 96.5513C116.995 96.4455 117.243 96.2705 117.431 96.0264C117.626 95.7904 117.789 95.4811 117.919 95.0986L118.896 92.5352ZM117.15 80.792L120.141 90.521L120.666 93.9268L118.444 94.3296L113.671 80.792H117.15Z" fill="#878793"/>
<path d="M476.583 76.1777V94H473.348V79.9497L469.063 81.3657V78.7534L476.216 76.1777H476.583ZM490.376 76.2266L483.663 95.5259H481.209L487.923 76.2266H490.376ZM504.122 91.4609V94H492.085V91.8271L497.859 85.5894C498.462 84.9058 498.938 84.3117 499.288 83.8071C499.638 83.3026 499.886 82.8468 500.032 82.4399C500.187 82.0249 500.264 81.6302 500.264 81.2559C500.264 80.7106 500.167 80.2345 499.971 79.8276C499.776 79.4126 499.491 79.0911 499.117 78.8633C498.75 78.6354 498.299 78.5215 497.762 78.5215C497.168 78.5215 496.659 78.6598 496.236 78.9365C495.821 79.2051 495.503 79.5794 495.284 80.0596C495.072 80.5397 494.966 81.089 494.966 81.7075H491.731C491.731 80.6577 491.976 79.7015 492.464 78.8389C492.952 77.9681 493.652 77.2723 494.563 76.7515C495.475 76.2306 496.557 75.9702 497.811 75.9702C499.031 75.9702 500.065 76.1737 500.911 76.5806C501.757 76.9793 502.4 77.549 502.84 78.2896C503.279 79.0301 503.499 79.9131 503.499 80.9385C503.499 81.5081 503.405 82.0697 503.218 82.623C503.031 83.1764 502.767 83.7257 502.425 84.271C502.091 84.8081 501.692 85.3534 501.229 85.9067C500.765 86.4601 500.248 87.0257 499.678 87.6035L496.211 91.4609H504.122Z" fill="#878793"/>
<path d="M480.049 16.5874V19.5781C480.049 20.9453 479.911 22.1131 479.634 23.0815C479.358 24.05 478.959 24.8434 478.438 25.4619C477.917 26.0723 477.295 26.5239 476.57 26.8169C475.846 27.1017 475.04 27.2441 474.153 27.2441C473.445 27.2441 472.786 27.1546 472.176 26.9756C471.565 26.7884 471.016 26.5036 470.528 26.1211C470.048 25.7305 469.633 25.234 469.283 24.6318C468.941 24.0296 468.676 23.3094 468.489 22.4712C468.31 21.633 468.221 20.6686 468.221 19.5781V16.5874C468.221 15.2202 468.359 14.0565 468.636 13.0962C468.921 12.1359 469.323 11.3506 469.844 10.7402C470.365 10.1299 470.988 9.68636 471.712 9.40967C472.436 9.12484 473.242 8.98242 474.129 8.98242C474.845 8.98242 475.504 9.07194 476.106 9.25098C476.717 9.43001 477.262 9.71077 477.742 10.0933C478.23 10.4676 478.646 10.9559 478.987 11.5581C479.329 12.1522 479.59 12.8683 479.769 13.7065C479.956 14.5366 480.049 15.4969 480.049 16.5874ZM476.827 20.0176V16.1357C476.827 15.4521 476.786 14.8581 476.705 14.3535C476.631 13.8408 476.521 13.4054 476.375 13.0474C476.229 12.6893 476.045 12.4004 475.826 12.1807C475.606 11.9528 475.354 11.786 475.069 11.6802C474.784 11.5744 474.471 11.5215 474.129 11.5215C473.706 11.5215 473.327 11.6069 472.994 11.7778C472.66 11.9406 472.379 12.201 472.151 12.5591C471.924 12.9172 471.749 13.3932 471.626 13.9873C471.513 14.5732 471.456 15.2894 471.456 16.1357V20.0176C471.456 20.7012 471.492 21.2993 471.565 21.812C471.647 22.3247 471.761 22.7642 471.907 23.1304C472.062 23.4966 472.245 23.7977 472.457 24.0337C472.676 24.2616 472.929 24.4325 473.213 24.5464C473.498 24.6522 473.812 24.7051 474.153 24.7051C474.585 24.7051 474.963 24.6196 475.289 24.4487C475.622 24.2778 475.903 24.0093 476.131 23.6431C476.359 23.2687 476.53 22.7845 476.644 22.1904C476.766 21.5882 476.827 20.8639 476.827 20.0176ZM482.869 25.4253C482.869 24.937 483.036 24.526 483.37 24.1924C483.703 23.8587 484.155 23.6919 484.725 23.6919C485.294 23.6919 485.746 23.8587 486.08 24.1924C486.413 24.526 486.58 24.937 486.58 25.4253C486.58 25.9054 486.413 26.3123 486.08 26.646C485.746 26.9715 485.294 27.1343 484.725 27.1343C484.155 27.1343 483.703 26.9715 483.37 26.646C483.036 26.3123 482.869 25.9054 482.869 25.4253ZM501.436 16.5874V19.5781C501.436 20.9453 501.298 22.1131 501.021 23.0815C500.744 24.05 500.346 24.8434 499.825 25.4619C499.304 26.0723 498.681 26.5239 497.957 26.8169C497.233 27.1017 496.427 27.2441 495.54 27.2441C494.832 27.2441 494.173 27.1546 493.562 26.9756C492.952 26.7884 492.403 26.5036 491.915 26.1211C491.434 25.7305 491.019 25.234 490.669 24.6318C490.328 24.0296 490.063 23.3094 489.876 22.4712C489.697 21.633 489.607 20.6686 489.607 19.5781V16.5874C489.607 15.2202 489.746 14.0565 490.022 13.0962C490.307 12.1359 490.71 11.3506 491.231 10.7402C491.752 10.1299 492.374 9.68636 493.099 9.40967C493.823 9.12484 494.629 8.98242 495.516 8.98242C496.232 8.98242 496.891 9.07194 497.493 9.25098C498.104 9.43001 498.649 9.71077 499.129 10.0933C499.617 10.4676 500.032 10.9559 500.374 11.5581C500.716 12.1522 500.976 12.8683 501.155 13.7065C501.342 14.5366 501.436 15.4969 501.436 16.5874ZM498.213 20.0176V16.1357C498.213 15.4521 498.173 14.8581 498.091 14.3535C498.018 13.8408 497.908 13.4054 497.762 13.0474C497.615 12.6893 497.432 12.4004 497.212 12.1807C496.993 11.9528 496.74 11.786 496.456 11.6802C496.171 11.5744 495.857 11.5215 495.516 11.5215C495.092 11.5215 494.714 11.6069 494.38 11.7778C494.047 11.9406 493.766 12.201 493.538 12.5591C493.31 12.9172 493.135 13.3932 493.013 13.9873C492.899 14.5732 492.842 15.2894 492.842 16.1357V20.0176C492.842 20.7012 492.879 21.2993 492.952 21.812C493.034 22.3247 493.147 22.7642 493.294 23.1304C493.449 23.4966 493.632 23.7977 493.843 24.0337C494.063 24.2616 494.315 24.4325 494.6 24.5464C494.885 24.6522 495.198 24.7051 495.54 24.7051C495.971 24.7051 496.35 24.6196 496.675 24.4487C497.009 24.2778 497.29 24.0093 497.518 23.6431C497.745 23.2687 497.916 22.7845 498.03 22.1904C498.152 21.5882 498.213 20.8639 498.213 20.0176ZM511.763 9.22656L505.049 28.5259H502.596L509.31 9.22656H511.763ZM521.773 9.17773V27H518.538V12.9497L514.253 14.3657V11.7534L521.407 9.17773H521.773ZM539.791 24.4609V27H527.754V24.8271L533.528 18.5894C534.131 17.9058 534.607 17.3117 534.957 16.8071C535.306 16.3026 535.555 15.8468 535.701 15.4399C535.856 15.0249 535.933 14.6302 535.933 14.2559C535.933 13.7106 535.835 13.2345 535.64 12.8276C535.445 12.4126 535.16 12.0911 534.786 11.8633C534.419 11.6354 533.968 11.5215 533.431 11.5215C532.837 11.5215 532.328 11.6598 531.905 11.9365C531.49 12.2051 531.172 12.5794 530.953 13.0596C530.741 13.5397 530.635 14.089 530.635 14.7075H527.4C527.4 13.6577 527.645 12.7015 528.133 11.8389C528.621 10.9681 529.321 10.2723 530.232 9.75146C531.144 9.23063 532.226 8.97021 533.479 8.97021C534.7 8.97021 535.734 9.17367 536.58 9.58057C537.426 9.97933 538.069 10.549 538.509 11.2896C538.948 12.0301 539.168 12.9131 539.168 13.9385C539.168 14.5081 539.074 15.0697 538.887 15.623C538.7 16.1764 538.436 16.7257 538.094 17.271C537.76 17.8081 537.361 18.3534 536.897 18.9067C536.434 19.4601 535.917 20.0257 535.347 20.6035L531.88 24.4609H539.791Z" fill="#878793"/>
<defs>
<linearGradient id="paint0_linear_159_376" x1="146.8" y1="18.2808" x2="371" y2="18.2808" gradientUnits="userSpaceOnUse">
<stop stop-color="#64D2CC"/>
<stop offset="1" stop-color="#7DD9A3"/>
</linearGradient>
<linearGradient id="paint1_linear_159_376" x1="146.8" y1="87.5811" x2="311.28" y2="87.5811" gradientUnits="userSpaceOnUse">
<stop stop-color="#64D2CC"/>
<stop offset="1" stop-color="#7DD9A3"/>
</linearGradient>
</defs>
</svg>
