<svg width="71" height="71" viewBox="0 0 71 71" fill="none" xmlns="http://www.w3.org/2000/svg">
<path d="M42.9399 40.81C43.4715 40.8087 43.997 40.698 44.4839 40.4846C44.9708 40.2713 45.4088 39.9599 45.77 39.57C46.1643 39.1967 46.4785 38.7471 46.6934 38.2486C46.9083 37.75 47.0194 37.2128 47.02 36.6699C47.0184 36.1404 46.9061 35.617 46.6909 35.1332C46.4757 34.6494 46.1622 34.2157 45.77 33.8599C45.4033 33.4779 44.9628 33.174 44.4756 32.9663C43.9884 32.7587 43.4646 32.6516 42.9351 32.6516C42.4055 32.6516 41.8812 32.7587 41.394 32.9663C40.9069 33.174 40.4669 33.4779 40.1001 33.8599C39.7079 34.2157 39.3939 34.6494 39.1787 35.1332C38.9635 35.617 38.8517 36.1404 38.8501 36.6699C38.8507 37.2128 38.9619 37.75 39.1768 38.2486C39.3917 38.7471 39.7058 39.1967 40.1001 39.57C40.4633 39.9602 40.9026 40.2717 41.3911 40.485C41.8797 40.6983 42.4069 40.8089 42.9399 40.81ZM35.6597 48.6599C35.0301 48.6925 34.4009 48.5966 33.8096 48.3783C33.2182 48.16 32.6771 47.8237 32.2197 47.3899C31.7875 46.9413 31.4515 46.4094 31.2315 45.8266C31.0114 45.2437 30.9121 44.6222 30.9399 43.9999V29.5199C30.9069 28.894 31.0034 28.2681 31.2236 27.6813C31.4439 27.0945 31.783 26.5595 32.2197 26.1099C32.6815 25.6843 33.2237 25.3554 33.8145 25.1425C34.4052 24.9295 35.0326 24.8368 35.6597 24.8699H52.8198C53.4485 24.836 54.0779 24.9283 54.6704 25.1412C55.2629 25.3542 55.8067 25.6835 56.27 26.1099C56.7067 26.5595 57.0459 27.0945 57.2661 27.6813C57.4864 28.2681 57.5828 28.894 57.5498 29.5199V43.9999C57.5777 44.6222 57.4789 45.2437 57.2588 45.8266C57.0387 46.4094 56.7023 46.9413 56.27 47.3899C55.8111 47.8245 55.2684 48.1612 54.6753 48.3795C54.0822 48.5979 53.451 48.6933 52.8198 48.6599H35.6597ZM12.8198 59.6599C12.3251 59.6556 11.8364 59.5515 11.3828 59.3539C10.9292 59.1563 10.5198 58.8692 10.1797 58.5099C9.80719 58.17 9.50985 57.7561 9.30665 57.2946C9.10344 56.8331 8.99918 56.3342 9 55.83V17.5499C9.04403 16.551 9.46042 15.6047 10.1675 14.8976C10.8746 14.1905 11.8209 13.774 12.8198 13.73H51.1001C51.6045 13.7286 52.1033 13.8328 52.5649 14.036C53.0265 14.2393 53.4403 14.5369 53.7798 14.9099C54.14 15.2493 54.4278 15.6583 54.6255 16.1121C54.8232 16.5658 54.9265 17.055 54.9297 17.5499V20.9999H35.6597C34.5285 20.9653 33.4025 21.1621 32.3501 21.5783C31.2977 21.9944 30.3416 22.6211 29.54 23.4199C28.7426 24.2105 28.1152 25.1561 27.6973 26.1984C27.2793 27.2406 27.0795 28.3575 27.1099 29.48V43.96C27.0821 45.0876 27.2849 46.2089 27.7056 47.2555C28.1262 48.3021 28.7558 49.2519 29.5562 50.0466C30.3565 50.8414 31.3108 51.4645 32.3604 51.8777C33.4099 52.2909 34.5323 52.4857 35.6597 52.45H54.9297V55.9199C54.9044 56.9277 54.4931 57.8873 53.7803 58.6001C53.0674 59.313 52.1079 59.7246 51.1001 59.7499L12.8198 59.6599Z" fill="#15152C"/>
<path d="M57.36 29.14C64.5783 29.14 70.43 23.2883 70.43 16.0699C70.43 8.85158 64.5783 3 57.36 3C50.1416 3 44.29 8.85158 44.29 16.0699C44.29 23.2883 50.1416 29.14 57.36 29.14Z" fill="white"/>
<path d="M63.6899 14.35V17.7499H59.0498V22.3999H55.6401V17.7499H51.02V14.35H55.6401V9.72998H59.0498V14.35H63.6899Z" fill="url(#paint0_linear_148_227)"/>
<defs>
<linearGradient id="paint0_linear_148_227" x1="51.02" y1="16.0699" x2="63.6899" y2="16.0699" gradientUnits="userSpaceOnUse">
<stop stop-color="#64D2CC"/>
<stop offset="1" stop-color="#68B589"/>
</linearGradient>
</defs>
</svg>
