<svg width="63" height="58" viewBox="0 0 63 58" fill="none" xmlns="http://www.w3.org/2000/svg">
<path d="M34.54 38.4301C35.0716 38.4288 35.5971 38.3181 36.084 38.1048C36.5709 37.8914 37.0089 37.58 37.3701 37.1901C37.7644 36.8168 38.0786 36.3672 38.2935 35.8687C38.5084 35.3701 38.6195 34.833 38.6201 34.2901C38.6185 33.7605 38.5062 33.2371 38.291 32.7533C38.0758 32.2695 37.7623 31.8358 37.3701 31.48C37.0034 31.098 36.5629 30.7941 36.0757 30.5864C35.5885 30.3788 35.0647 30.2717 34.5352 30.2717C34.0056 30.2717 33.4813 30.3788 32.9941 30.5864C32.507 30.7941 32.067 31.098 31.7002 31.48C31.308 31.8358 30.994 32.2695 30.7788 32.7533C30.5636 33.2371 30.4518 33.7605 30.4502 34.2901C30.4508 34.833 30.562 35.3701 30.7769 35.8687C30.9918 36.3672 31.3059 36.8168 31.7002 37.1901C32.0634 37.5803 32.5027 37.8918 32.9912 38.1051C33.4798 38.3184 34.007 38.429 34.54 38.4301ZM27.2598 46.28C26.6302 46.3126 26.001 46.2168 25.4097 45.9984C24.8183 45.7801 24.2772 45.4438 23.8198 45.01C23.3876 44.5614 23.0516 44.0295 22.8315 43.4467C22.6115 42.8639 22.5122 42.2424 22.54 41.62V27.14C22.507 26.5141 22.6035 25.8882 22.8237 25.3014C23.044 24.7146 23.3831 24.1796 23.8198 23.73C24.2816 23.3044 24.8238 22.9755 25.4146 22.7626C26.0053 22.5496 26.6327 22.4569 27.2598 22.49H44.4199C45.0486 22.4561 45.678 22.5484 46.2705 22.7614C46.863 22.9743 47.4068 23.3037 47.8701 23.73C48.3068 24.1796 48.646 24.7146 48.8662 25.3014C49.0865 25.8882 49.1829 26.5141 49.1499 27.14V41.62C49.1778 42.2424 49.0789 42.8639 48.8589 43.4467C48.6388 44.0295 48.3024 44.5614 47.8701 45.01C47.4112 45.4446 46.8685 45.7813 46.2754 45.9996C45.6823 46.218 45.0511 46.3134 44.4199 46.28H27.2598ZM4.41993 57.28C3.92517 57.2757 3.43652 57.1716 2.98291 56.974C2.52931 56.7764 2.11993 56.4893 1.77979 56.13C1.40729 55.7901 1.10994 55.3762 0.906743 54.9147C0.703542 54.4532 0.599281 53.9543 0.600102 53.4501V15.1701C0.64413 14.1711 1.06051 13.2248 1.76758 12.5177C2.47465 11.8106 3.42095 11.3941 4.41993 11.3501H42.7002C43.2046 11.3487 43.7034 11.4529 44.165 11.6561C44.6266 11.8594 45.0404 12.1571 45.3799 12.53C45.7401 12.8695 46.0279 13.2784 46.2256 13.7322C46.4233 14.186 46.5266 14.6751 46.5298 15.1701V18.62H27.2598C26.1286 18.5854 25.0026 18.7822 23.9502 19.1984C22.8978 19.6145 21.9417 20.2412 21.1401 21.0401C20.3427 21.8306 19.7153 22.7762 19.2974 23.8185C18.8794 24.8608 18.6796 25.9776 18.71 27.1001V41.5801C18.6822 42.7077 18.885 43.829 19.3057 44.8756C19.7263 45.9222 20.3559 46.872 21.1563 47.6668C21.9566 48.4615 22.9109 49.0846 23.9605 49.4978C25.01 49.9111 26.1324 50.1058 27.2598 50.0701H46.5298V53.5401C46.5045 54.5479 46.0932 55.5074 45.3804 56.2202C44.6675 56.9331 43.708 57.3447 42.7002 57.37L4.41993 57.28Z" fill="#15152C"/>
<path d="M48.9601 26.7601C56.1784 26.7601 62.0301 20.9084 62.0301 13.6901C62.0301 6.4717 56.1784 0.620117 48.9601 0.620117C41.7417 0.620117 35.8901 6.4717 35.8901 13.6901C35.8901 20.9084 41.7417 26.7601 48.9601 26.7601Z" fill="white"/>
<path d="M55.29 11.9701V15.37H50.6499V20.02H47.2402V15.37H42.6201V11.9701H47.2402V7.3501H50.6499V11.9701H55.29Z" fill="url(#paint0_linear_18_374)"/>
<defs>
<linearGradient id="paint0_linear_18_374" x1="42.6201" y1="13.6901" x2="55.29" y2="13.6901" gradientUnits="userSpaceOnUse">
<stop stop-color="#64D2CC"/>
<stop offset="1" stop-color="#68B589"/>
</linearGradient>
</defs>
</svg>
