<svg width="18" height="19" viewBox="0 0 18 19" fill="none" xmlns="http://www.w3.org/2000/svg">
<path fill-rule="evenodd" clip-rule="evenodd" d="M9.50648 0.601519C9.50946 3.5069 9.51093 6.4124 9.51093 9.31802L9.50721 12.5897C9.50919 14.4172 9.50919 16.2448 9.50721 18.0725C9.50684 18.2037 9.51725 18.3022 9.66596 18.3673C11.1538 19.0265 12.9652 18.4204 13.75 16.9939C13.895 16.7307 13.8961 16.7281 13.6311 16.5965C13.3874 16.476 13.1434 16.3559 12.8994 16.2357C12.4655 16.022 12.0314 15.8082 11.5985 15.5926C11.3271 15.4573 11.2416 15.2532 11.3531 15.0402C11.4587 14.8398 11.6952 14.7985 11.9554 14.9338C11.9753 14.9442 11.9951 14.9546 12.0149 14.965C12.1597 15.0409 12.3044 15.1168 12.4503 15.19C12.661 15.2956 12.8739 15.397 13.0868 15.4985C13.584 15.7355 14.0812 15.9725 14.5516 16.2615C14.6832 16.3422 14.791 16.3466 14.9304 16.2823C16.238 15.6782 16.9797 14.3516 16.8065 12.9199C16.8002 12.8492 16.7789 12.7808 16.744 12.719C16.7091 12.6573 16.6615 12.6037 16.6042 12.5618C16.3018 12.3358 15.978 12.1396 15.6376 11.9763C15.4357 11.8759 15.2337 11.7758 15.0316 11.6756C14.5566 11.4402 14.0815 11.2047 13.608 10.9658C13.3745 10.8483 13.3017 10.6393 13.3987 10.4453C13.4957 10.2512 13.7017 10.1869 13.9248 10.2966C13.9769 10.3223 14.0291 10.348 14.0813 10.3737C14.807 10.7312 15.5327 11.0888 16.251 11.4606C16.425 11.5506 16.5053 11.5216 16.6079 11.3692C16.9795 10.8219 17.1731 10.1734 17.1623 9.51205C17.1515 8.85071 16.9369 8.20881 16.5477 7.67399C16.4585 7.55167 16.444 7.46059 16.5183 7.32526C16.8507 6.71479 16.9909 6.0623 16.8842 5.37078C16.6968 4.15058 16.0228 3.30291 14.8959 2.80807C14.7531 2.74672 14.6672 2.77535 14.6014 2.9196C14.5441 3.04383 14.4806 3.16578 14.4169 3.28791C14.3777 3.36317 14.3385 3.43849 14.3006 3.51446C14.2049 3.70666 14.1098 3.89919 14.0146 4.09173C13.8271 4.47128 13.6396 4.85088 13.4474 5.22801C13.3422 5.43436 13.1336 5.50314 12.9451 5.40982C12.7566 5.3165 12.6845 5.1109 12.786 4.90382C13.1727 4.11365 13.5652 3.32671 13.9638 2.54298C13.9962 2.4877 14.016 2.42589 14.0216 2.36203C14.0272 2.29818 14.0185 2.23388 13.9962 2.1738C13.8543 1.76246 13.6307 1.38407 13.3388 1.06142C13.0469 0.738766 12.6927 0.478518 12.2975 0.296337C11.9024 0.114156 11.4745 0.0138115 11.0395 0.00134337C10.6046 -0.0111248 10.1717 0.0645403 9.76673 0.223786C9.57786 0.298143 9.50648 0.392204 9.50648 0.601519ZM8.63672 18.0292C8.63374 15.1234 8.63225 12.2175 8.63225 9.31162V6.247C8.63225 5.82504 8.63214 5.40308 8.63203 4.98113C8.63164 3.50698 8.63126 2.03283 8.63559 0.558683C8.63634 0.38729 8.57686 0.304009 8.42071 0.24378C8.01029 0.0832463 7.57276 0.00334319 7.1321 0.00844166C5.81486 0.0221977 4.60992 0.8747 4.16898 2.11237C4.13366 2.21313 4.13625 2.28302 4.21433 2.36184C4.69318 2.84628 4.95678 3.45117 5.17391 4.08321C5.19905 4.15343 5.20882 4.22824 5.20253 4.30256C5.18655 4.47024 5.09546 4.57842 4.93373 4.61895C4.76123 4.66208 4.5969 4.59181 4.52477 4.44124C4.48765 4.36401 4.45901 4.28382 4.43009 4.20282C4.41933 4.17269 4.40853 4.14245 4.39724 4.11221C4.24481 3.71068 4.06636 3.32625 3.78715 2.99165C3.53731 2.69199 3.52281 2.68604 3.16552 2.84293C1.43486 3.60137 0.728105 5.62426 1.61295 7.30436C1.69066 7.45233 1.68174 7.54825 1.58656 7.68581C0.922178 8.64836 0.800972 9.68192 1.2196 10.7753C1.29582 10.975 1.30548 10.975 1.49695 10.8635C1.85759 10.6573 2.23859 10.4889 2.63388 10.3612C2.85769 10.2902 3.06403 10.3857 3.13355 10.5876C3.19899 10.7779 3.09898 10.975 2.88557 11.0616C2.79393 11.0988 2.70098 11.1333 2.60803 11.1678C2.51509 11.2022 2.42214 11.2367 2.33049 11.2739C2.0234 11.4007 1.77058 11.5468 1.6345 11.9085C1.41626 12.487 1.24897 13.0577 1.32816 13.679C1.48357 14.8962 2.12564 15.7595 3.22835 16.2889C3.32985 16.3376 3.39492 16.325 3.46407 16.2317C3.98606 15.5275 4.7274 15.1565 5.53157 14.8843C5.59063 14.8657 5.6522 14.8563 5.71412 14.8564C5.90373 14.8542 6.04165 14.9624 6.07882 15.1356C6.09555 15.2183 6.08384 15.3042 6.04557 15.3794C6.0073 15.4546 5.94473 15.5147 5.86803 15.5498C5.82233 15.5708 5.77386 15.5868 5.72573 15.6027C5.6971 15.6122 5.6686 15.6216 5.64087 15.632C5.15011 15.8138 4.67869 16.0279 4.29761 16.4027C4.20467 16.4941 4.1883 16.5767 4.23998 16.6983C4.91254 18.2821 6.8012 19.055 8.3917 18.401C8.5735 18.3267 8.63672 18.2281 8.63672 18.0292Z" fill="#9600FF"/>
</svg>
