<svg width="120" height="262" viewBox="0 0 120 262" fill="none" xmlns="http://www.w3.org/2000/svg">
<path d="M47.4267 60.2309C50.8967 62.8009 54.4267 64.6809 56.9867 67.4709C61.3617 72.2796 63.8297 78.5206 63.9267 85.0209C64.1367 94.5009 63.9865 104.021 63.2765 113.471C62.0765 129.371 60.6867 145.281 58.6867 161.101C55.5167 186.251 51.9467 211.351 48.1467 236.421C47.1467 242.931 44.8466 249.271 42.8366 255.591C40.6066 262.591 29.4466 264.691 24.7866 257.381C21.3658 251.829 18.658 245.869 16.7267 239.641C11.9867 225.041 9.72666 209.891 8.14666 194.641C6.25666 176.921 3.79654 159.261 2.27654 141.521C0.776542 124.111 -0.66338 106.631 1.10662 89.1309C2.34662 76.7609 7.52654 68.8409 18.2765 62.4609C16.7165 52.5409 18.9967 43.2509 23.4767 34.4609C28.1167 25.3509 34.9166 18.1109 43.0366 11.9809C59.4266 -0.389114 77.8566 -2.0191 97.1266 1.8709C103.997 3.2509 110.697 5.38093 115.467 11.5309C122.807 20.9809 118.867 34.7809 107.277 38.1509C103.567 39.2209 99.5567 39.3009 95.6667 39.6709C91.9867 40.0209 88.2766 40.1309 84.5866 40.4209C82.9366 40.5509 81.6666 41.1109 81.8766 43.2409C82.4966 49.6009 77.3066 53.1009 71.8766 54.0509C65.3566 55.2109 58.8766 56.5509 52.3867 58.0509C50.6067 58.4009 48.9667 59.5209 47.4267 60.2309Z" fill="#C7C7CC"/>
<path d="M45.4167 227.901C45.3667 228.351 45.3068 228.801 45.2468 229.251C44.4268 235.481 42.1867 243.051 40.8967 249.191C38.9667 258.361 31.2966 258.441 26.0466 250.901C22.6566 246.041 21.0467 238.221 19.3967 232.331C18.9867 230.861 18.5968 229.331 18.2368 227.901H45.4167Z" fill="#D7374A"/>
<path d="M45.2468 227.901H18.2468C25.2468 233.251 39.8968 232.901 45.2468 227.901H18.2468Z" fill="url(#paint0_linear_157_325)"/>
<path d="M19.2666 140.611H7.95679C7.20796 140.608 6.49073 140.309 5.96216 139.779C5.43359 139.248 5.13671 138.53 5.13672 137.781V137.781C5.13671 137.032 5.43359 136.314 5.96216 135.783C6.49073 135.253 7.20796 134.954 7.95679 134.951H19.2666C20.0172 134.951 20.7371 135.249 21.2678 135.78C21.7986 136.311 22.0967 137.03 22.0967 137.781V137.781C22.0967 138.532 21.7986 139.251 21.2678 139.782C20.7371 140.313 20.0172 140.611 19.2666 140.611V140.611Z" fill="#C7C7CC"/>
<path d="M19.2666 177.321H10.7368C9.98798 177.321 9.26946 177.024 8.73901 176.496C8.20857 175.967 7.90938 175.25 7.90674 174.501C7.90674 173.75 8.20487 173.03 8.7356 172.5C9.26632 171.969 9.98625 171.671 10.7368 171.671H19.2666C20.0172 171.671 20.7371 171.969 21.2678 172.5C21.7986 173.03 22.0967 173.75 22.0967 174.501V174.501C22.094 175.25 21.7948 175.967 21.2644 176.496C20.734 177.024 20.0154 177.321 19.2666 177.321V177.321Z" fill="#C7C7CC"/>
<defs>
<linearGradient id="paint0_linear_157_325" x1="18.2368" y1="229.831" x2="45.2468" y2="229.831" gradientUnits="userSpaceOnUse">
<stop stop-color="#DFC2CA"/>
<stop offset="1" stop-color="#FF4158"/>
</linearGradient>
</defs>
</svg>
