<svg width="119" height="262" viewBox="0 0 119 262" fill="none" xmlns="http://www.w3.org/2000/svg">
<path d="M47.09 60.2329C50.55 62.8029 54.0898 64.6928 56.6398 67.4828C61.0164 72.2905 63.485 78.5322 63.5802 85.0329C63.7902 94.5129 63.6398 104.033 62.9298 113.483C61.7298 129.383 60.3398 145.293 58.3498 161.113C55.1698 186.263 51.6 211.363 47.8 236.423C46.8 242.943 44.5099 249.283 42.4899 255.603C40.2699 262.603 29.1099 264.703 24.4899 257.393C21.0743 251.836 18.3701 245.873 16.4401 239.643C11.6901 225.053 9.43976 209.903 7.84976 194.643C5.96976 176.923 3.51013 159.263 1.98013 141.523C0.490131 124.113 -0.949791 106.633 0.810209 89.1229C2.06021 76.7629 7.23013 68.8428 17.9801 62.4628C16.4201 52.5328 18.7001 43.2528 23.1901 34.4628C27.8201 25.3528 34.6301 18.1129 42.7501 11.9829C59.1301 -0.397148 77.56 -2.01713 96.84 1.87287C103.7 3.24287 110.41 5.3729 115.18 11.5329C122.51 20.9829 118.58 34.7829 106.98 38.1429C103.28 39.2229 99.26 39.2929 95.38 39.6729C91.69 40.0229 87.9802 40.1229 84.2902 40.4129C82.6402 40.5429 81.3702 41.1129 81.5802 43.2429C82.2002 49.5929 77.0202 53.0929 71.5802 54.0529C65.0502 55.2129 58.58 56.5529 52.09 58.0529C50.352 58.6035 48.6762 59.3341 47.09 60.2329V60.2329Z" fill="#C7C7CC"/>
<path d="M113.34 19.3531C113.34 19.3531 116.22 8.04314 90.9402 4.49314C65.6602 0.943136 54.8702 8.01318 41.7302 16.9132C28.5902 25.8132 19.3402 53.7132 21.7302 58.8132C24.1202 63.9132 20.01 65.9032 20.01 65.9032C2.67 74.9032 4.4799 104.233 5.4099 112.803C5.6399 114.903 5.78012 117.003 5.88012 119.113C6.19012 125.583 6.65988 132.043 7.13988 138.493C8.39988 155.493 10.43 172.353 11.97 189.293C13.31 203.883 15.13 218.373 19.03 232.293C20.67 238.183 22.2899 246.003 25.6799 250.863C30.9299 258.403 38.6 258.323 40.53 249.153C41.82 243.023 44.0601 235.453 44.8801 229.213C48.0001 205.213 50.94 181.213 53.55 157.213C55.07 143.213 56.1501 129.213 57.0901 115.213C57.0901 115.213 58.5901 86.7832 57.0901 77.6932C55.5901 68.6032 41.3 60.6231 41.3 60.6231C40.85 56.1931 68.1199 51.0931 68.1199 51.0931C80.5399 48.8731 77.4299 43.7732 77.4299 43.7732C77.4299 43.7732 66.1299 32.9132 91.4299 35.1332C116.73 37.3532 113.34 19.3531 113.34 19.3531Z" fill="url(#paint0_linear_547_42)"/>
<path d="M18.9199 140.613H7.61963C6.8708 140.613 6.15251 140.316 5.62207 139.788C5.09163 139.259 4.79269 138.542 4.79004 137.793V137.793C4.79004 137.042 5.08792 136.323 5.61865 135.792C6.14938 135.261 6.86907 134.963 7.61963 134.963H18.9199C19.6705 134.963 20.3902 135.261 20.9209 135.792C21.4516 136.323 21.75 137.042 21.75 137.793V137.793C21.75 138.164 21.6765 138.532 21.5342 138.874C21.3918 139.217 21.1833 139.529 20.9204 139.791C20.6575 140.053 20.3452 140.26 20.002 140.401C19.6587 140.542 19.2911 140.614 18.9199 140.613Z" fill="#C7C7CC"/>
<path d="M18.9199 177.363H10.3896C9.63909 177.363 8.9194 177.065 8.38867 176.534C7.85794 176.003 7.56006 175.284 7.56006 174.533V174.533C7.5627 173.784 7.86165 173.067 8.39209 172.538C8.92253 172.01 9.64082 171.713 10.3896 171.713H18.9199C19.2911 171.712 19.6587 171.784 20.002 171.925C20.3452 172.066 20.6575 172.273 20.9204 172.535C21.1833 172.797 21.3918 173.109 21.5342 173.451C21.6765 173.794 21.75 174.162 21.75 174.533V174.533C21.7513 174.905 21.6789 175.274 21.5371 175.618C21.3954 175.962 21.1869 176.274 20.9238 176.537C20.6608 176.8 20.3483 177.009 20.0044 177.15C19.6604 177.292 19.2919 177.364 18.9199 177.363V177.363Z" fill="#C7C7CC"/>
<defs>
<linearGradient id="paint0_linear_547_42" x1="8.33993" y1="116.433" x2="65.18" y2="130.983" gradientUnits="userSpaceOnUse">
<stop stop-color="#70FFE2"/>
<stop offset="1" stop-color="#68B589"/>
</linearGradient>
</defs>
</svg>
