<svg width="119" height="262" viewBox="0 0 119 262" fill="none" xmlns="http://www.w3.org/2000/svg">
<path d="M47.1369 60.2309C50.6069 62.8009 54.137 64.6809 56.697 67.4709C61.0719 72.2796 63.5399 78.5206 63.6369 85.0209C63.8469 94.5009 63.6967 104.021 62.9867 113.471C61.7867 129.371 60.3969 145.281 58.3969 161.101C55.2269 186.251 51.6569 211.351 47.8569 236.421C46.8569 242.931 44.5568 249.271 42.5468 255.591C40.3168 262.591 29.1568 264.691 24.4968 257.381C21.076 251.829 18.3682 245.869 16.4369 239.641C11.6969 225.041 9.43686 209.891 7.85686 194.641C5.96686 176.921 3.50675 159.261 1.98675 141.521C0.486747 124.111 -0.953175 106.631 0.816825 89.1309C2.05683 76.7609 7.23675 68.8409 17.9867 62.4609C16.4267 52.5409 18.7069 43.2509 23.1869 34.4609C27.8269 25.3509 34.6268 18.1109 42.7468 11.9809C59.1368 -0.389114 77.5668 -2.0191 96.8368 1.8709C103.707 3.2509 110.407 5.38093 115.177 11.5309C122.517 20.9809 118.577 34.7809 106.987 38.1509C103.277 39.2209 99.2669 39.3009 95.3769 39.6709C91.6969 40.0209 87.9868 40.1309 84.2968 40.4209C82.6468 40.5509 81.3768 41.1109 81.5868 43.2409C82.2068 49.6009 77.0168 53.1009 71.5868 54.0509C65.0668 55.2109 58.5869 56.5509 52.0969 58.0509C50.3169 58.4009 48.6769 59.5209 47.1369 60.2309Z" fill="#C7C7CC"/>
</svg>
