<svg width="119" height="262" viewBox="0 0 119 262" fill="none" xmlns="http://www.w3.org/2000/svg">
<path d="M47.0902 60.2309C50.5502 62.8009 54.09 64.6809 56.64 67.4709C61.015 72.2796 63.4832 78.5206 63.5802 85.0209C63.7902 94.5009 63.6501 104.021 62.9301 113.471C61.7301 129.371 60.3502 145.281 58.3502 161.101C55.1702 186.251 51.6002 211.351 47.8002 236.421C46.8002 242.931 44.5101 249.271 42.4901 255.591C40.2701 262.591 29.1101 264.691 24.4901 257.381C21.0766 251.827 18.3721 245.867 16.4401 239.641C11.6901 225.041 9.44026 209.891 7.86026 194.641C5.97026 176.921 3.51013 159.261 1.98013 141.521C0.490131 124.111 -0.949791 106.631 0.810209 89.1309C2.06021 76.7609 7.24013 68.8409 17.9801 62.4609C16.4201 52.5409 18.7001 43.2509 23.1901 34.4609C27.8301 25.3509 34.6301 18.1109 42.7501 11.9809C59.1301 -0.389114 77.5602 -2.0191 96.8402 1.8709C103.7 3.2509 110.41 5.38093 115.18 11.5309C122.51 20.9809 118.58 34.7809 106.98 38.1509C103.28 39.2209 99.27 39.3009 95.38 39.6709C91.69 40.0209 87.9802 40.1309 84.2902 40.4209C82.6402 40.5509 81.3702 41.1109 81.5802 43.2409C82.2102 49.6009 77.0202 53.1009 71.5802 54.0509C65.0502 55.2109 58.5802 56.5509 52.0902 58.0509C50.2502 58.4009 48.6302 59.5209 47.0902 60.2309Z" fill="#C7C7CC"/>
<path d="M48.0403 204.621C47.0203 212.834 45.9735 221.044 44.9001 229.251C44.0901 235.481 41.8403 243.051 40.5503 249.191C38.6203 258.361 30.9602 258.441 25.7002 250.901C22.3202 246.041 20.7003 238.221 19.0503 232.331C16.5899 223.236 14.7885 213.975 13.6602 204.621H48.0403Z" fill="url(#paint0_linear_157_319)"/>
<path d="M48.0403 204.621H13.6602C22.6602 209.971 41.2103 209.621 48.0403 204.621H13.6602Z" fill="url(#paint1_linear_157_319)"/>
<path d="M18.9302 140.611H7.62036C6.8698 140.611 6.14987 140.313 5.61914 139.782C5.08841 139.251 4.79028 138.532 4.79028 137.781V137.781C4.79028 137.03 5.08841 136.311 5.61914 135.78C6.14987 135.249 6.8698 134.951 7.62036 134.951H18.9302C19.679 134.954 20.3962 135.253 20.9248 135.783C21.4534 136.314 21.7502 137.032 21.7502 137.781V137.781C21.7502 138.53 21.4534 139.248 20.9248 139.779C20.3962 140.309 19.679 140.608 18.9302 140.611Z" fill="#C7C7CC"/>
<path d="M18.9302 177.321H10.3901C9.64223 177.321 8.92509 177.024 8.39624 176.495C7.86739 175.966 7.57031 175.249 7.57031 174.501V174.501C7.57031 173.752 7.86694 173.034 8.39551 172.503C8.92407 171.973 9.64131 171.674 10.3901 171.671H18.9302C19.679 171.674 20.3962 171.973 20.9248 172.503C21.4534 173.034 21.7502 173.752 21.7502 174.501V174.501C21.7502 175.249 21.4532 175.966 20.9243 176.495C20.3955 177.024 19.6781 177.321 18.9302 177.321V177.321Z" fill="#C7C7CC"/>
<defs>
<linearGradient id="paint0_linear_157_319" x1="13.6602" y1="230.471" x2="48.0403" y2="230.471" gradientUnits="userSpaceOnUse">
<stop stop-color="#DF869E"/>
<stop offset="1" stop-color="#FF642B"/>
</linearGradient>
<linearGradient id="paint1_linear_157_319" x1="13.6602" y1="206.551" x2="48.0403" y2="206.551" gradientUnits="userSpaceOnUse">
<stop stop-color="#DFC2CA"/>
<stop offset="1" stop-color="#FF986E"/>
</linearGradient>
</defs>
</svg>
