<svg width="119" height="262" viewBox="0 0 119 262" fill="none" xmlns="http://www.w3.org/2000/svg">
<path d="M47.1467 60.2309C50.6067 62.8009 54.1467 64.6809 56.6967 67.4709C61.0717 72.2796 63.5396 78.5206 63.6367 85.0209C63.8467 94.5009 63.6967 104.021 62.9867 113.471C61.7867 129.371 60.3967 145.281 58.3967 161.101C55.2267 186.251 51.6569 211.351 47.8569 236.421C46.8569 242.931 44.5568 249.271 42.5468 255.591C40.3268 262.591 29.1568 264.691 24.4968 257.381C21.08 251.827 18.3722 245.868 16.4367 239.641C11.6967 225.041 9.43686 209.891 7.85686 194.641C5.97686 176.921 3.51675 159.261 1.98675 141.521C0.486747 124.111 -0.953175 106.631 0.816825 89.1309C2.06683 76.7609 7.23675 68.8409 17.9867 62.4609C16.4267 52.5409 18.7067 43.2509 23.1867 34.4609C27.8267 25.3509 34.6368 18.1109 42.7468 11.9809C59.1368 -0.389114 77.5669 -2.0191 96.8469 1.8709C103.707 3.2509 110.407 5.38093 115.187 11.5309C122.517 20.9809 118.587 34.7809 106.987 38.1509C103.287 39.2209 99.2666 39.3009 95.3766 39.6709C91.6966 40.0209 87.9868 40.1309 84.2968 40.4209C82.6468 40.5509 81.3768 41.1109 81.5868 43.2409C82.2068 49.6009 77.0268 53.1009 71.5868 54.0509C65.0568 55.2109 58.5868 56.5509 52.0868 58.0509C50.3683 58.6024 48.7124 59.3331 47.1467 60.2309V60.2309Z" fill="#C7C7CC"/>
<path d="M49.8967 189.771C48.3234 202.938 46.6768 216.098 44.9568 229.251C44.1368 235.481 41.8969 243.051 40.6069 249.191C38.6769 258.361 31.0068 258.441 25.7568 250.901C22.3668 246.041 20.7569 238.221 19.1069 232.331C15.2469 218.511 13.4269 204.201 12.1069 189.771H49.8967Z" fill="url(#paint0_linear_157_313)"/>
<path d="M49.8967 189.771H12.0969C21.9569 195.121 42.3867 194.771 49.8967 189.771H12.0969Z" fill="url(#paint1_linear_157_313)"/>
<path d="M18.9968 140.611H7.69678C6.94621 140.611 6.22653 140.313 5.6958 139.782C5.16507 139.251 4.86694 138.532 4.86694 137.781V137.781C4.86694 137.03 5.16507 136.311 5.6958 135.78C6.22653 135.249 6.94621 134.951 7.69678 134.951H18.9968C19.7474 134.951 20.4673 135.249 20.998 135.78C21.5288 136.311 21.8269 137.03 21.8269 137.781V137.781C21.8269 138.532 21.5288 139.251 20.998 139.782C20.4673 140.313 19.7474 140.611 18.9968 140.611V140.611Z" fill="#C7C7CC"/>
<path d="M18.9968 177.321H10.4668C9.71796 177.321 8.99968 177.024 8.46924 176.496C7.9388 175.967 7.63936 175.25 7.63672 174.501V174.501C7.63672 173.75 7.93509 173.03 8.46582 172.5C8.99655 171.969 9.71623 171.671 10.4668 171.671H18.9968C19.7474 171.671 20.4673 171.969 20.998 172.5C21.5288 173.03 21.8269 173.75 21.8269 174.501V174.501C21.8243 175.25 21.5248 175.967 20.9944 176.496C20.4639 177.024 19.7457 177.321 18.9968 177.321V177.321Z" fill="#C7C7CC"/>
<defs>
<linearGradient id="paint0_linear_157_313" x1="12.0969" y1="223.051" x2="49.8967" y2="223.051" gradientUnits="userSpaceOnUse">
<stop stop-color="#DF869E"/>
<stop offset="1" stop-color="#FFA32B"/>
</linearGradient>
<linearGradient id="paint1_linear_157_313" x1="12.0969" y1="191.701" x2="49.8967" y2="191.701" gradientUnits="userSpaceOnUse">
<stop stop-color="#DFC2CA"/>
<stop offset="1" stop-color="#FFE8C7"/>
</linearGradient>
</defs>
</svg>
