<svg width="119" height="262" viewBox="0 0 119 262" fill="none" xmlns="http://www.w3.org/2000/svg">
<path d="M47.0966 60.2309C50.5666 62.8009 54.0967 64.6809 56.6567 67.4709C61.0237 72.2845 63.4904 78.5224 63.5966 85.0209C63.8066 94.5009 63.6567 104.021 62.9467 113.471C61.7367 129.371 60.3569 145.281 58.3569 161.101C55.1769 186.254 51.6599 211.361 47.8066 236.421C46.8066 242.931 44.5165 249.271 42.4965 255.591C40.2765 262.591 29.1165 264.691 24.4965 257.381C21.0757 251.829 18.3682 245.869 16.4369 239.641C11.6969 225.041 9.43686 209.891 7.85686 194.641C5.96686 176.921 3.50675 159.261 1.98675 141.521C0.486747 124.111 -0.953175 106.631 0.816825 89.1309C2.05683 76.7609 7.23675 68.8409 17.9867 62.4609C16.4267 52.5409 18.7069 43.2509 23.1869 34.4609C27.8269 25.3509 34.6265 18.1109 42.7465 11.9809C59.1365 -0.389114 77.5568 -2.0191 96.8368 1.8709C103.697 3.2509 110.407 5.38093 115.177 11.5309C122.517 20.9809 118.577 34.7809 106.987 38.1509C103.277 39.2209 99.2669 39.3009 95.3769 39.6709C91.6969 40.0209 87.9868 40.1309 84.2968 40.4209C82.6368 40.5509 81.3766 41.1109 81.5766 43.2409C82.2066 49.6009 77.0166 53.1009 71.5766 54.0509C65.0566 55.2109 58.5768 56.5509 52.0868 58.0509C50.2768 58.4009 48.6366 59.5209 47.0966 60.2309Z" fill="#C7C7CC"/>
<path d="M52.4565 167.381C50.1432 188.048 47.6267 208.671 44.9067 229.251C44.0967 235.481 41.8566 243.051 40.5566 249.191C38.6366 258.361 30.9668 258.441 25.7168 250.901C22.3268 246.041 20.7169 238.221 19.0669 232.331C15.1669 218.331 13.3468 203.881 12.0068 189.331C11.3368 182.021 10.5869 174.721 9.83691 167.421L52.4565 167.381Z" fill="url(#paint0_linear_157_307)"/>
<path d="M52.4565 167.381H9.83691C20.9469 172.731 43.9965 172.381 52.4565 167.381H9.83691Z" fill="url(#paint1_linear_157_307)"/>
<path d="M18.937 140.611H7.62695C6.87812 140.608 6.16089 140.309 5.63232 139.779C5.10376 139.248 4.80664 138.53 4.80664 137.781V137.781C4.80664 137.032 5.10376 136.314 5.63232 135.783C6.16089 135.253 6.87812 134.954 7.62695 134.951H18.937C19.6876 134.951 20.4073 135.249 20.938 135.78C21.4687 136.311 21.7666 137.03 21.7666 137.781V137.781C21.7666 138.532 21.4687 139.251 20.938 139.782C20.4073 140.313 19.6876 140.611 18.937 140.611V140.611Z" fill="#C7C7CC"/>
<path d="M18.937 177.321H10.4067C9.65791 177.321 8.93962 177.024 8.40918 176.496C7.87874 175.967 7.57931 175.25 7.57666 174.501V174.501C7.57666 173.75 7.87503 173.03 8.40576 172.5C8.93649 171.969 9.65618 171.671 10.4067 171.671H18.937C19.6876 171.671 20.4073 171.969 20.938 172.5C21.4687 173.03 21.7666 173.75 21.7666 174.501V174.501C21.764 175.25 21.465 175.967 20.9346 176.496C20.4041 177.024 19.6858 177.321 18.937 177.321V177.321Z" fill="#C7C7CC"/>
<defs>
<linearGradient id="paint0_linear_157_307" x1="9.83691" y1="211.851" x2="52.4565" y2="211.851" gradientUnits="userSpaceOnUse">
<stop stop-color="#DF9B86"/>
<stop offset="1" stop-color="#FFD114"/>
</linearGradient>
<linearGradient id="paint1_linear_157_307" x1="9.83691" y1="169.311" x2="52.4565" y2="169.311" gradientUnits="userSpaceOnUse">
<stop stop-color="#DFD8C2"/>
<stop offset="1" stop-color="#FFE8C7"/>
</linearGradient>
</defs>
</svg>
