<svg width="119" height="262" viewBox="0 0 119 262" fill="none" xmlns="http://www.w3.org/2000/svg">
<path d="M47.1403 60.2309C50.6003 62.8009 54.1406 64.6809 56.6906 67.4709C61.0656 72.2796 63.5335 78.5206 63.6305 85.0209C63.8405 94.5009 63.6901 104.021 62.9801 113.471C61.7801 129.371 60.3905 145.281 58.4005 161.101C55.2205 186.251 51.6502 211.351 47.8502 236.421C46.8502 242.931 44.5602 249.271 42.5402 255.591C40.3202 262.591 29.1604 264.691 24.4904 257.381C21.0768 251.827 18.3726 245.867 16.4406 239.641C11.6906 225.041 9.44025 209.891 7.85025 194.641C5.97025 176.921 3.51013 159.261 1.98013 141.521C0.490131 124.111 -0.949791 106.631 0.810209 89.1309C2.06021 76.7609 7.23013 68.8409 17.9801 62.4609C16.4201 52.5409 18.7006 43.2509 23.1906 34.4609C27.8206 25.3509 34.6301 18.1109 42.7501 11.9809C59.1301 -0.389114 77.5605 -2.0191 96.8405 1.8709C103.7 3.2509 110.41 5.38093 115.18 11.5309C122.51 20.9809 118.58 34.7809 106.98 38.1509C103.28 39.2209 99.2605 39.3009 95.3805 39.6709C91.6905 40.0209 87.9802 40.1309 84.2902 40.4209C82.6402 40.5509 81.3702 41.1109 81.5802 43.2409C82.2002 49.6009 77.0202 53.1009 71.5802 54.0509C65.0502 55.2109 58.5802 56.5509 52.0802 58.0509C50.3617 58.6024 48.706 59.3331 47.1403 60.2309Z" fill="#C7C7CC"/>
<path d="M54.9502 143.821C54.5502 148.281 54.1001 152.751 53.6201 157.201C51.0101 181.261 48.0702 205.271 44.9502 229.251C44.1302 235.481 41.8901 243.051 40.6001 249.191C38.6701 258.361 31 258.441 25.75 250.901C22.37 246.041 20.7501 238.221 19.1001 232.331C15.2001 218.331 13.39 203.881 12.04 189.331C10.66 174.171 8.89014 159.041 7.64014 143.861L54.9502 143.821Z" fill="url(#paint0_linear_157_301)"/>
<path d="M54.9502 143.431H7.64014C19.9801 148.791 45.5602 148.431 54.9502 143.431H7.64014Z" fill="url(#paint1_linear_157_301)"/>
<path d="M18.9702 140.611H7.67041C6.91985 140.611 6.19967 140.313 5.66895 139.782C5.13822 139.251 4.84033 138.532 4.84033 137.781V137.781C4.84033 137.03 5.13822 136.311 5.66895 135.78C6.19967 135.249 6.91985 134.951 7.67041 134.951H18.9702C19.7208 134.951 20.4405 135.249 20.9712 135.78C21.5019 136.311 21.8003 137.03 21.8003 137.781V137.781C21.8003 138.532 21.5019 139.251 20.9712 139.782C20.4405 140.313 19.7208 140.611 18.9702 140.611V140.611Z" fill="#C7C7CC"/>
<path d="M18.9702 177.321H10.4502C9.70136 177.321 8.98308 177.024 8.45264 176.496C7.9222 175.967 7.62276 175.25 7.62012 174.501C7.62012 173.75 7.91849 173.03 8.44922 172.5C8.97995 171.969 9.69963 171.671 10.4502 171.671H18.98C19.7305 171.671 20.4507 171.969 20.9814 172.5C21.5122 173.03 21.8101 173.75 21.8101 174.501V174.501C21.8101 174.873 21.7367 175.241 21.5938 175.585C21.4508 175.928 21.241 176.24 20.9771 176.502C20.7131 176.764 20.4001 176.972 20.0557 177.112C19.7112 177.253 19.3422 177.324 18.9702 177.321V177.321Z" fill="#C7C7CC"/>
<defs>
<linearGradient id="paint0_linear_157_301" x1="7.64014" y1="200.071" x2="54.9502" y2="200.071" gradientUnits="userSpaceOnUse">
<stop stop-color="#70FFE2"/>
<stop offset="1" stop-color="#68B589"/>
</linearGradient>
<linearGradient id="paint1_linear_157_301" x1="7.64014" y1="145.371" x2="54.9502" y2="145.371" gradientUnits="userSpaceOnUse">
<stop stop-color="#70FFE2"/>
<stop offset="1" stop-color="#80FFB2"/>
</linearGradient>
</defs>
</svg>
