<svg width="119" height="262" viewBox="0 0 119 262" fill="none" xmlns="http://www.w3.org/2000/svg">
<path d="M47.1468 60.2329C50.6068 62.8029 54.1469 64.6928 56.6969 67.4828C61.0735 72.2905 63.5416 78.5322 63.6368 85.0329C63.8468 94.5129 63.6969 104.033 62.9869 113.483C61.7869 129.383 60.3968 145.293 58.3968 161.113C55.2268 186.263 51.6568 211.363 47.8568 236.423C46.8568 242.943 44.5567 249.283 42.5467 255.603C40.3167 262.603 29.1569 264.703 24.4969 257.393C21.0742 251.839 18.366 245.875 16.4369 239.643C11.6969 225.053 9.4868 209.903 7.8568 194.643C5.9668 176.923 3.51693 159.263 1.98693 141.523C0.486929 124.113 -0.953237 106.633 0.816763 89.1229C2.05676 76.7629 7.23693 68.8428 17.9869 62.4628C16.4269 52.5328 18.7069 43.2528 23.1869 34.4628C27.8269 25.3528 34.6269 18.1129 42.7469 11.9829C59.1369 -0.397148 77.5668 -2.01713 96.8368 1.87287C103.707 3.24287 110.407 5.3729 115.187 11.5329C122.517 20.9829 118.577 34.7829 106.987 38.1429C103.277 39.2229 99.2668 39.2929 95.3768 39.6729C91.6968 40.0229 87.9867 40.1229 84.2967 40.4129C82.6467 40.5429 81.3768 41.1129 81.5868 43.2429C82.2068 49.5929 77.0168 53.0929 71.5868 54.0529C65.0668 55.2129 58.5868 56.5529 52.0968 58.0529C50.375 58.6042 48.7159 59.3348 47.1468 60.2329V60.2329Z" fill="#C7C7CC"/>
<path d="M56.3667 126.433C55.6167 136.713 54.7267 146.973 53.6167 157.213C51.01 181.273 48.1201 205.273 44.9468 229.213C44.1268 235.453 41.8867 243.023 40.5967 249.153C38.6667 258.323 30.9968 258.403 25.7468 250.873C22.3668 246.013 20.7467 238.193 19.0967 232.293C15.1967 218.293 13.3867 203.843 12.0967 189.293C10.5467 172.293 8.5266 155.453 7.2666 138.483C6.9666 134.483 6.66674 130.483 6.40674 126.423L56.3667 126.433Z" fill="url(#paint0_linear_157_354)"/>
<path d="M56.3667 126.433H6.3667C19.4167 131.783 46.4567 131.433 56.3667 126.433H6.3667Z" fill="url(#paint1_linear_157_354)"/>
<path d="M18.9768 140.613H7.67676C7.30559 140.614 6.93778 140.542 6.59448 140.401C6.25119 140.26 5.93919 140.053 5.67627 139.791C5.41335 139.529 5.2046 139.217 5.06226 138.874C4.91991 138.532 4.84668 138.164 4.84668 137.793V137.793C4.84668 137.042 5.14481 136.323 5.67554 135.792C6.20627 135.261 6.9262 134.963 7.67676 134.963H18.9768C19.7274 134.963 20.4471 135.261 20.9778 135.792C21.5085 136.323 21.8066 137.042 21.8066 137.793V137.793C21.804 138.542 21.5048 139.259 20.9744 139.788C20.4439 140.316 19.7256 140.613 18.9768 140.613V140.613Z" fill="#C7C7CC"/>
<path d="M18.9768 177.363H10.4468C9.69621 177.363 8.97628 177.065 8.44556 176.534C7.91483 176.003 7.6167 175.284 7.6167 174.533V174.533C7.61935 173.784 7.91878 173.067 8.44922 172.538C8.97966 172.01 9.69794 171.713 10.4468 171.713H18.9768C19.7256 171.713 20.4439 172.01 20.9744 172.538C21.5048 173.067 21.804 173.784 21.8066 174.533V174.533C21.8066 175.284 21.5085 176.003 20.9778 176.534C20.4471 177.065 19.7274 177.363 18.9768 177.363V177.363Z" fill="#C7C7CC"/>
<defs>
<linearGradient id="paint0_linear_157_354" x1="6.35674" y1="191.383" x2="56.3667" y2="191.383" gradientUnits="userSpaceOnUse">
<stop stop-color="#70FFE2"/>
<stop offset="1" stop-color="#68B589"/>
</linearGradient>
<linearGradient id="paint1_linear_157_354" x1="6.3567" y1="128.363" x2="56.3667" y2="128.363" gradientUnits="userSpaceOnUse">
<stop stop-color="#70FFE2"/>
<stop offset="1" stop-color="#80FFB2"/>
</linearGradient>
</defs>
</svg>
