<svg width="119" height="262" viewBox="0 0 119 262" fill="none" xmlns="http://www.w3.org/2000/svg">
<path d="M47.1099 60.2429C50.5799 62.8129 54.11 64.7029 56.66 67.4929C61.0259 72.3024 63.4895 78.5381 63.5899 85.0329C63.7899 94.5129 63.65 104.033 62.93 113.483C61.73 129.383 60.3499 145.293 58.3499 161.113C55.1699 186.266 51.6532 211.37 47.7998 236.423C46.7998 242.943 44.5098 249.283 42.4898 255.603C40.2698 262.603 29.11 264.703 24.44 257.393C21.0418 251.834 18.3542 245.871 16.44 239.643C11.7 225.053 9.4399 209.903 7.8599 194.643C5.9699 176.923 3.50979 159.263 1.98979 141.523C0.489786 124.113 -0.950146 106.633 0.809854 89.1229C2.05985 76.7629 7.23979 68.843 17.9898 62.463C16.4298 52.533 18.7 43.253 23.19 34.463C27.83 25.353 34.6298 18.1129 42.7498 11.9829C59.1398 -0.397148 77.5599 -2.01713 96.8399 1.87287C103.7 3.24287 110.41 5.3729 115.18 11.5329C122.52 20.9829 118.58 34.7829 106.99 38.1429C103.28 39.2229 99.2699 39.2929 95.3799 39.6729C91.6899 40.0229 87.9898 40.1229 84.2898 40.4129C82.6398 40.5429 81.3699 41.1129 81.5799 43.2429C82.2099 49.5929 77.0199 53.0929 71.5799 54.0529C65.0499 55.2129 58.5799 56.5529 52.0899 58.0529C50.3583 58.608 48.6893 59.3419 47.1099 60.2429V60.2429Z" fill="#C7C7CC"/>
<path d="M57.5098 106.313C57.5098 106.543 57.5098 106.773 57.5098 106.993C57.3298 111.803 57.1499 115.183 57.1499 115.183C56.2099 129.183 55.1499 143.253 53.6099 157.183C50.9999 181.243 48.0599 205.253 44.9399 229.183C44.1199 235.423 41.8798 242.993 40.5898 249.123C38.6598 258.293 30.9897 258.373 25.7397 250.843C22.3497 245.983 20.7398 238.163 19.0898 232.263C15.1898 218.263 13.3698 203.813 12.0298 189.263C10.4898 172.263 8.45995 155.423 7.19995 138.453C6.71995 132.003 6.19994 125.543 5.93994 119.083C5.83994 116.973 5.69973 114.863 5.46973 112.763C5.30973 111.313 5.12978 109.273 5.01978 106.833C5.01978 106.643 5.01978 106.453 5.01978 106.263L57.5098 106.313Z" fill="url(#paint0_linear_157_331)"/>
<path d="M57.4897 106.313C56.9997 106.553 56.4899 106.773 55.8799 106.993C44.8799 111.143 20.0498 111.403 6.53979 106.883C5.99979 106.703 5.45995 106.513 4.94995 106.313H57.4897Z" fill="url(#paint1_linear_157_331)"/>
<path d="M18.95 140.623H7.63989C6.89198 140.623 6.1746 140.326 5.64575 139.797C5.1169 139.268 4.81982 138.551 4.81982 137.803V137.803C4.81982 137.054 5.1167 136.336 5.64526 135.805C6.17383 135.275 6.89106 134.975 7.63989 134.973H18.95C19.6988 134.975 20.416 135.275 20.9446 135.805C21.4731 136.336 21.7698 137.054 21.7698 137.803V137.803C21.7698 138.551 21.4727 139.268 20.9438 139.797C20.415 140.326 19.6979 140.623 18.95 140.623V140.623Z" fill="#C7C7CC"/>
<path d="M18.95 177.373H10.4199C10.0479 177.374 9.67917 177.302 9.33522 177.16C8.99127 177.018 8.67884 176.81 8.41579 176.547C8.15274 176.284 7.94426 175.971 7.80251 175.627C7.66076 175.283 7.58854 174.915 7.58986 174.543V174.543C7.58986 174.172 7.66309 173.804 7.80544 173.461C7.94778 173.118 8.15653 172.807 8.41945 172.545C8.68237 172.283 8.99437 172.076 9.33766 171.934C9.68096 171.793 10.0488 171.721 10.4199 171.723H18.95C19.6979 171.723 20.415 172.02 20.9439 172.549C21.4727 173.078 21.7698 173.795 21.7698 174.543V174.543C21.7711 174.914 21.6993 175.282 21.5581 175.625C21.417 175.968 21.2095 176.28 20.9475 176.543C20.6855 176.806 20.3741 177.015 20.0313 177.157C19.6885 177.299 19.3211 177.373 18.95 177.373V177.373Z" fill="#C7C7CC"/>
<defs>
<linearGradient id="paint0_linear_157_331" x1="-3.43022" y1="168.843" x2="41.7198" y2="180.403" gradientUnits="userSpaceOnUse">
<stop stop-color="#70FFE2"/>
<stop offset="1" stop-color="#68B589"/>
</linearGradient>
<linearGradient id="paint1_linear_157_331" x1="4.94995" y1="108.253" x2="57.4897" y2="108.253" gradientUnits="userSpaceOnUse">
<stop stop-color="#70FFE2"/>
<stop offset="1" stop-color="#80FFB2"/>
</linearGradient>
</defs>
</svg>
