<svg width="119" height="262" viewBox="0 0 119 262" fill="none" xmlns="http://www.w3.org/2000/svg">
<path d="M47.0902 60.2329C50.5502 62.8029 54.0903 64.6928 56.6403 67.4828C61.0169 72.2905 63.485 78.5322 63.5802 85.0329C63.7902 94.5129 63.6403 104.033 62.9303 113.483C61.7303 129.383 60.3402 145.293 58.3502 161.113C55.1702 186.263 51.6002 211.363 47.8002 236.423C46.8002 242.943 44.5101 249.283 42.4901 255.603C40.2701 262.603 29.1101 264.703 24.4901 257.393C21.0746 251.836 18.3701 245.873 16.4401 239.643C11.6901 225.053 9.44025 209.903 7.85025 194.643C5.97025 176.923 3.51013 159.263 1.98013 141.523C0.490131 124.113 -0.949791 106.633 0.810209 89.1229C2.06021 76.7629 7.23013 68.8428 17.9801 62.4628C16.4201 52.5328 18.7001 43.2528 23.1901 34.4628C27.8201 25.3528 34.6301 18.1129 42.7501 11.9829C59.1301 -0.397148 77.5602 -2.01713 96.8402 1.87287C103.7 3.24287 110.41 5.3729 115.18 11.5329C122.51 20.9829 118.58 34.7829 106.98 38.1429C103.28 39.2229 99.2603 39.2929 95.3803 39.6729C91.6903 40.0229 87.9802 40.1229 84.2902 40.4129C82.6402 40.5429 81.3702 41.1129 81.5802 43.2429C82.2002 49.5929 77.0202 53.0929 71.5802 54.0529C65.0502 55.2129 58.5802 56.5529 52.0902 58.0529C50.3522 58.6035 48.6765 59.3341 47.0902 60.2329V60.2329Z" fill="#C7C7CC"/>
<path d="M57.1104 115.173C56.1704 129.173 55.1103 143.243 53.5603 157.173C50.9537 181.233 48.0638 205.233 44.8904 229.173C44.0804 235.413 41.8303 242.983 40.5403 249.113C38.6103 258.283 30.9502 258.363 25.7002 250.833C22.3102 245.973 20.7003 238.153 19.0503 232.253C15.1503 218.253 13.3303 203.803 11.9903 189.253C10.4403 172.253 8.42044 155.413 7.16044 138.443C6.68044 131.993 6.21043 125.533 5.90043 119.073C5.79043 116.963 5.66046 114.853 5.43046 112.753C4.58743 105.178 4.71163 97.5267 5.80033 89.9832C5.86033 89.5932 5.93028 89.1932 6.00028 88.8032H57.7603V89.8032C57.8403 101.293 57.1104 115.173 57.1104 115.173Z" fill="url(#paint0_linear_157_337)"/>
<path d="M57.9502 88.853C57.1621 89.2372 56.3505 89.5712 55.5203 89.853C44.7503 93.533 22.7404 93.8531 9.36035 90.0531C8.1541 89.7215 6.96579 89.3276 5.80029 88.873L57.9502 88.853Z" fill="url(#paint1_linear_157_337)"/>
<path d="M18.9204 140.613H7.62036C6.87153 140.613 6.15324 140.316 5.6228 139.788C5.09236 139.259 4.79293 138.542 4.79028 137.793V137.793C4.79028 137.042 5.08841 136.323 5.61914 135.792C6.14987 135.261 6.8698 134.963 7.62036 134.963H18.9204C19.671 134.963 20.3907 135.261 20.9214 135.792C21.4521 136.323 21.7502 137.042 21.7502 137.793V137.793C21.7502 138.164 21.677 138.532 21.5347 138.874C21.3923 139.217 21.1838 139.529 20.9209 139.791C20.658 140.053 20.3457 140.26 20.0024 140.401C19.6591 140.542 19.2916 140.614 18.9204 140.613V140.613Z" fill="#C7C7CC"/>
<path d="M18.9204 177.363H10.3904C9.63982 177.363 8.91989 177.065 8.38916 176.534C7.85843 176.003 7.5603 175.284 7.5603 174.533V174.533C7.56295 173.784 7.86238 173.067 8.39282 172.538C8.92326 172.01 9.64155 171.713 10.3904 171.713H18.9204C19.2916 171.712 19.6591 171.784 20.0024 171.925C20.3457 172.066 20.658 172.273 20.9209 172.535C21.1838 172.797 21.3923 173.109 21.5347 173.451C21.677 173.794 21.7502 174.162 21.7502 174.533V174.533C21.7516 174.905 21.6794 175.274 21.5376 175.618C21.3958 175.962 21.1874 176.274 20.9243 176.537C20.6613 176.8 20.3488 177.009 20.0049 177.15C19.6609 177.292 19.2924 177.364 18.9204 177.363V177.363Z" fill="#C7C7CC"/>
<defs>
<linearGradient id="paint0_linear_157_337" x1="-4.22957" y1="159.873" x2="43.0603" y2="171.983" gradientUnits="userSpaceOnUse">
<stop stop-color="#70FFE2"/>
<stop offset="1" stop-color="#68B589"/>
</linearGradient>
<linearGradient id="paint1_linear_157_337" x1="5.80029" y1="90.793" x2="57.9502" y2="90.793" gradientUnits="userSpaceOnUse">
<stop stop-color="#70FFE2"/>
<stop offset="1" stop-color="#80FFB2"/>
</linearGradient>
</defs>
</svg>
