<svg width="119" height="262" viewBox="0 0 119 262" fill="none" xmlns="http://www.w3.org/2000/svg">
<path d="M47.0966 60.2329C50.5666 62.8029 54.0969 64.6928 56.6469 67.4828C61.0224 72.292 63.4932 78.532 63.5966 85.0329C63.8066 94.5129 63.6567 104.033 62.9467 113.483C61.7367 129.383 60.3569 145.293 58.3569 161.113C55.1769 186.266 51.6599 211.37 47.8066 236.423C46.8066 242.943 44.5165 249.283 42.4965 255.603C40.2765 262.603 29.1165 264.703 24.4965 257.393C21.0737 251.839 18.3661 245.875 16.4369 239.643C11.6969 225.053 9.43686 209.903 7.85686 194.643C5.96686 176.923 3.50675 159.263 1.98675 141.523C0.486747 124.113 -0.953175 106.633 0.816825 89.1229C2.05683 76.7629 7.23675 68.8428 17.9867 62.4628C16.4267 52.5328 18.7069 43.2528 23.1869 34.4628C27.8269 25.3528 34.6265 18.1129 42.7465 11.9829C59.1365 -0.397148 77.5568 -2.01713 96.8368 1.87287C103.697 3.24287 110.407 5.3729 115.177 11.5329C122.517 20.9829 118.577 34.7829 106.987 38.1429C103.277 39.2229 99.2669 39.2929 95.3769 39.6729C91.6969 40.0229 87.9868 40.1229 84.2968 40.4129C82.6368 40.5429 81.3666 41.1129 81.5766 43.2429C82.2066 49.5929 77.0166 53.0929 71.5766 54.0529C65.0566 55.2129 58.5768 56.5529 52.0868 58.0529C50.3523 58.6042 48.6796 59.3347 47.0966 60.2329V60.2329Z" fill="#C7C7CC"/>
<path d="M68.1468 51.0233C68.1468 51.0233 40.8765 56.1233 41.3265 60.5533C41.3265 60.5533 55.6265 68.5533 57.1165 77.6233C58.6065 86.6933 57.1165 115.143 57.1165 115.143C56.1765 129.143 55.1165 143.213 53.5765 157.143C50.9665 181.203 48.0266 205.213 44.9066 229.143C44.0866 235.383 41.8465 242.953 40.5565 249.083C38.6265 258.253 30.9569 258.333 25.7069 250.803C22.3169 245.943 20.7065 238.123 19.0565 232.223C15.1565 218.223 13.3364 203.773 11.9964 189.223C10.4564 172.223 8.42682 155.383 7.16682 138.413C6.69682 131.963 6.16657 125.503 5.90657 119.043C5.80657 116.933 5.66684 114.823 5.43684 112.723C4.50684 104.153 2.69645 74.8734 20.0365 65.8234C20.0365 65.8234 24.1367 63.8233 21.7567 58.7333C20.6167 56.2933 22.1166 48.6533 25.4466 40.3633C25.6266 39.8933 25.8267 39.3634 26.0267 38.9434H74.9368C74.9586 39.5457 75.1014 40.1374 75.3568 40.6833C75.8764 41.7982 76.5872 42.8135 77.4569 43.6833C77.4569 43.6833 80.5668 48.8333 68.1468 51.0233Z" fill="url(#paint0_linear_157_343)"/>
<path d="M74.9868 39.0229C73.4756 39.7673 71.8902 40.3506 70.2568 40.7629C59.7768 43.6229 41.827 43.683 30.167 40.443C28.7555 40.0562 27.3691 39.5819 26.0166 39.0229H74.9868Z" fill="url(#paint1_linear_157_343)"/>
<path d="M18.937 140.613H7.62695C6.87904 140.613 6.16167 140.316 5.63281 139.787C5.10396 139.258 4.80664 138.541 4.80664 137.793V137.793C4.80664 137.044 5.10376 136.326 5.63232 135.795C6.16089 135.265 6.87812 134.966 7.62695 134.963H18.937C19.6876 134.963 20.4073 135.261 20.938 135.792C21.4687 136.323 21.7666 137.042 21.7666 137.793V137.793C21.764 138.542 21.465 139.259 20.9346 139.788C20.4041 140.316 19.6858 140.613 18.937 140.613V140.613Z" fill="#C7C7CC"/>
<path d="M18.937 177.363H10.4067C9.65618 177.363 8.93649 177.065 8.40576 176.534C7.87503 176.003 7.57666 175.284 7.57666 174.533V174.533C7.57931 173.784 7.87874 173.067 8.40918 172.538C8.93962 172.01 9.65791 171.713 10.4067 171.713H18.937C19.6858 171.713 20.4041 172.01 20.9346 172.538C21.465 173.067 21.764 173.784 21.7666 174.533C21.7666 175.284 21.4687 176.003 20.938 176.534C20.4073 177.065 19.6876 177.363 18.937 177.363V177.363Z" fill="#C7C7CC"/>
<defs>
<linearGradient id="paint0_linear_157_343" x1="2.15677" y1="134.393" x2="49.5568" y2="146.523" gradientUnits="userSpaceOnUse">
<stop stop-color="#70FFE2"/>
<stop offset="1" stop-color="#68B589"/>
</linearGradient>
<linearGradient id="paint1_linear_157_343" x1="26.0166" y1="40.953" x2="74.9868" y2="40.953" gradientUnits="userSpaceOnUse">
<stop stop-color="#70FFE2"/>
<stop offset="1" stop-color="#80FFB2"/>
</linearGradient>
</defs>
</svg>
