<svg width="18" height="24" viewBox="0 0 18 24" fill="none" xmlns="http://www.w3.org/2000/svg">
<path d="M11.3015 4.33829C12.4945 4.33829 13.4706 3.36218 13.4706 2.16915C13.4706 0.976116 12.4945 0 11.3015 0C10.1085 0 9.13234 0.976116 9.13234 2.16915C9.13234 3.36218 10.1085 4.33829 11.3015 4.33829ZM7.86339 17.3532L8.4816 14.6417L10.7592 16.8109V22.2338C10.7592 22.8303 11.2473 23.3183 11.8438 23.3183C12.4403 23.3183 12.9283 22.8303 12.9283 22.2338V16.1168C12.9283 15.5202 12.6897 14.9563 12.2559 14.5441L10.6507 13.0149L11.3015 9.76116C12.5237 11.1584 14.1969 12.0833 16.0302 12.375C16.681 12.4726 17.2666 11.952 17.2666 11.2904C17.2666 10.759 16.8762 10.3143 16.3448 10.2275C14.6962 9.95638 13.3296 8.98027 12.603 7.70047L11.5184 5.96515C11.0846 5.31441 10.4338 4.88058 9.67463 4.88058C9.34926 4.88058 9.13234 4.98904 8.80697 4.98904L4.49037 6.81112C4.09744 6.97907 3.76254 7.2588 3.52729 7.61553C3.29204 7.97226 3.16681 8.39026 3.16719 8.81758V11.388C3.16719 11.9845 3.65525 12.4726 4.25176 12.4726C4.84828 12.4726 5.33633 11.9845 5.33633 11.388V8.78504L7.28857 8.02584L5.55325 16.8109L1.30172 15.9432C0.716053 15.8239 0.141229 16.2035 0.0219256 16.7892V16.8326C-0.0973774 17.4182 0.282223 17.9931 0.867893 18.1124L5.32549 19.0017C5.87992 19.1118 6.45541 19.0011 6.92942 18.6932C7.40344 18.3852 7.73855 17.9045 7.86339 17.3532V17.3532Z" fill="#CA6CF0"/>
</svg>
