<svg width="13" height="17" viewBox="0 0 13 17" fill="none" xmlns="http://www.w3.org/2000/svg">
<path d="M8.6072 3.15681C9.47532 3.15681 10.1856 2.44653 10.1856 1.5784C10.1856 0.710282 9.47532 0 8.6072 0C7.73908 0 7.0288 0.710282 7.0288 1.5784C7.0288 2.44653 7.73908 3.15681 8.6072 3.15681ZM6.10543 12.6272L6.55527 10.6542L8.2126 12.2326V16.1786C8.2126 16.6127 8.56774 16.9678 9.0018 16.9678C9.43586 16.9678 9.791 16.6127 9.791 16.1786V11.7275C9.791 11.2935 9.61738 10.8831 9.3017 10.5832L8.13368 9.47042L8.6072 7.10282C9.49657 8.11956 10.7141 8.79254 12.0481 9.00479C12.5216 9.07582 12.9478 8.69701 12.9478 8.21559C12.9478 7.82888 12.6637 7.50531 12.277 7.44217C11.0774 7.24487 10.083 6.53459 9.55424 5.60333L8.76504 4.34061C8.44936 3.86709 7.97584 3.55141 7.4234 3.55141C7.18664 3.55141 7.0288 3.63033 6.79203 3.63033L3.65101 4.95619C3.36509 5.0784 3.1214 5.28195 2.95021 5.54152C2.77903 5.8011 2.68791 6.10527 2.68818 6.41621V8.28662C2.68818 8.72068 3.04333 9.07582 3.47739 9.07582C3.91145 9.07582 4.26659 8.72068 4.26659 8.28662V6.39254L5.68715 5.84009L4.42443 12.2326L1.33076 11.6013C0.904589 11.5145 0.486312 11.7907 0.399499 12.2168V12.2484C0.312687 12.6746 0.588908 13.0929 1.01508 13.1797L4.2587 13.8268C4.66213 13.9069 5.08089 13.8263 5.42582 13.6023C5.77074 13.3782 6.01459 13.0284 6.10543 12.6272V12.6272Z" fill="white"/>
</svg>
