<svg width="21" height="24" viewBox="0 0 21 24" fill="none" xmlns="http://www.w3.org/2000/svg">
<path fill-rule="evenodd" clip-rule="evenodd" d="M10.8192 0.7629C10.823 4.44788 10.8248 8.13301 10.8248 11.8183L10.8201 15.9679C10.8226 18.2857 10.8226 20.6037 10.8201 22.9218C10.8196 23.0883 10.8329 23.2132 11.0215 23.2957C12.9086 24.1318 15.206 23.3632 16.2014 21.5538C16.3853 21.22 16.3867 21.2167 16.0505 21.0498C15.7415 20.897 15.432 20.7446 15.1226 20.5922C14.5722 20.3212 14.0216 20.05 13.4726 19.7766C13.1283 19.6049 13.0199 19.3461 13.1614 19.0759C13.2953 18.8217 13.5952 18.7694 13.9253 18.941C13.9504 18.9542 13.9756 18.9674 14.0008 18.9806C14.1844 19.0768 14.3679 19.173 14.5529 19.2659C14.8202 19.3998 15.0902 19.5285 15.3602 19.6572C15.9908 19.9578 16.6214 20.2584 17.2181 20.6249C17.385 20.7272 17.5217 20.7329 17.6986 20.6513C19.357 19.885 20.2977 18.2026 20.078 16.3866C20.07 16.2971 20.043 16.2102 19.9988 16.1319C19.9545 16.0536 19.8941 15.9856 19.8215 15.9325C19.4379 15.6458 19.0273 15.397 18.5955 15.1899C18.3394 15.0625 18.0831 14.9355 17.8269 14.8085C17.2243 14.5099 16.6218 14.2112 16.0213 13.9082C15.7252 13.7592 15.6327 13.4942 15.7558 13.248C15.8789 13.0019 16.1401 12.9203 16.423 13.0594C16.4893 13.0921 16.5555 13.1247 16.6217 13.1573C17.5421 13.6108 18.4625 14.0643 19.3735 14.5358C19.5942 14.6499 19.696 14.6132 19.8262 14.4198C20.2974 13.7258 20.5429 12.9032 20.5293 12.0644C20.5156 11.2256 20.2434 10.4115 19.7498 9.73313C19.6366 9.57799 19.6182 9.46246 19.7125 9.29082C20.1341 8.51654 20.3119 7.68897 20.1766 6.8119C19.9389 5.26428 19.084 4.18916 17.6547 3.56153C17.4737 3.48372 17.3647 3.52003 17.2812 3.70299C17.2086 3.86055 17.128 4.01521 17.0473 4.17012C16.9976 4.26556 16.9478 4.3611 16.8998 4.45747C16.7784 4.70125 16.6577 4.94546 16.537 5.18969C16.2992 5.67107 16.0613 6.1525 15.8176 6.63082C15.6841 6.89253 15.4196 6.97977 15.1805 6.86141C14.9414 6.74305 14.85 6.48229 14.9787 6.21964C15.4691 5.21744 15.9671 4.21934 16.4725 3.22532C16.5137 3.1552 16.5387 3.0768 16.5458 2.99581C16.5529 2.91483 16.5419 2.83328 16.5136 2.75707C16.3337 2.23536 16.0501 1.75544 15.6798 1.34621C15.3096 0.936974 14.8603 0.606894 14.3592 0.375829C13.858 0.144763 13.3153 0.0174937 12.7636 0.00167992C12.212 -0.0141338 11.6629 0.0818345 11.1493 0.28381C10.9097 0.37812 10.8192 0.49742 10.8192 0.7629ZM9.71591 22.8671C9.71214 19.1815 9.71025 15.4959 9.71025 11.8103V7.92337C9.71025 7.38813 9.71011 6.85289 9.70997 6.31765C9.70948 4.448 9.70899 2.57835 9.71448 0.708707C9.71543 0.491324 9.63999 0.385696 9.44194 0.309306C8.92139 0.105696 8.36647 0.00435264 7.80755 0.0108192C6.13687 0.0282664 4.6086 1.10952 4.04934 2.6793C4.00455 2.80709 4.00784 2.89574 4.10686 2.99571C4.71421 3.61013 5.04854 4.37734 5.32392 5.17897C5.35582 5.26803 5.36821 5.36291 5.36023 5.45718C5.33996 5.66985 5.22443 5.80706 5.01931 5.85846C4.80051 5.91316 4.59209 5.82404 4.50061 5.63306C4.45352 5.53511 4.4172 5.4334 4.38052 5.33067C4.36687 5.29246 4.35318 5.2541 4.33886 5.21575C4.14552 4.70648 3.9192 4.2189 3.56507 3.79451C3.24819 3.41444 3.22979 3.40689 2.77663 3.60589C0.581582 4.56784 -0.314816 7.13353 0.807464 9.26444C0.906017 9.45212 0.894702 9.57378 0.773986 9.74825C-0.0686672 10.9691 -0.222397 12.28 0.308564 13.6668C0.405231 13.92 0.41749 13.92 0.660336 13.7786C1.11774 13.517 1.60098 13.3036 2.10233 13.1415C2.3862 13.0514 2.6479 13.1726 2.73608 13.4287C2.81908 13.6701 2.69223 13.92 2.42157 14.0299C2.30533 14.077 2.18745 14.1208 2.06956 14.1645C1.95167 14.2082 1.83378 14.252 1.71754 14.2991C1.32804 14.4599 1.00738 14.6453 0.834794 15.1041C0.557997 15.8378 0.345813 16.5616 0.446252 17.3496C0.643358 18.8934 1.45771 19.9883 2.85632 20.6598C2.98505 20.7216 3.06759 20.7056 3.15529 20.5872C3.81735 19.6941 4.7576 19.2235 5.77756 18.8783C5.85247 18.8548 5.93056 18.8428 6.00909 18.843C6.24958 18.8401 6.42451 18.9774 6.47166 19.1971C6.49287 19.302 6.47802 19.4109 6.42948 19.5063C6.38094 19.6017 6.30158 19.6778 6.2043 19.7224C6.14634 19.749 6.08487 19.7693 6.02382 19.7895C5.98751 19.8015 5.95136 19.8134 5.91619 19.8266C5.29375 20.0572 4.69583 20.3288 4.2125 20.8041C4.09461 20.9201 4.07385 21.0248 4.13939 21.179C4.99242 23.1878 7.38787 24.1681 9.40515 23.3387C9.63573 23.2444 9.71591 23.1194 9.71591 22.8671Z" fill="#6EEDFB"/>
</svg>
