<svg width="17" height="19" viewBox="0 0 17 19" fill="none" xmlns="http://www.w3.org/2000/svg">
<path fill-rule="evenodd" clip-rule="evenodd" d="M8.91371 0.601519C8.91668 3.5069 8.91816 6.4124 8.91816 9.31802L8.91443 12.5897C8.91642 14.4172 8.91642 16.2448 8.91443 18.0725C8.91406 18.2037 8.92447 18.3022 9.07319 18.3673C10.5611 19.0265 12.3724 18.4204 13.1573 16.9939C13.3022 16.7307 13.3034 16.7281 13.0383 16.5965C12.7946 16.476 12.5507 16.3559 12.3067 16.2357C11.8727 16.022 11.4386 15.8082 11.0057 15.5926C10.7343 15.4573 10.6488 15.2532 10.7604 15.0402C10.866 14.8398 11.1024 14.7985 11.3626 14.9338C11.3825 14.9442 11.4023 14.9546 11.4222 14.965C11.567 15.0409 11.7117 15.1168 11.8575 15.19C12.0683 15.2956 12.2811 15.397 12.494 15.4985C12.9912 15.7355 13.4884 15.9725 13.9588 16.2615C14.0904 16.3422 14.1983 16.3466 14.3377 16.2823C15.6452 15.6782 16.3869 14.3516 16.2137 12.9199C16.2074 12.8492 16.1861 12.7808 16.1512 12.719C16.1164 12.6573 16.0687 12.6037 16.0114 12.5618C15.709 12.3358 15.3853 12.1396 15.0448 11.9763C14.8429 11.8759 14.6409 11.7758 14.4389 11.6756C13.9638 11.4402 13.4887 11.2047 13.0152 10.9658C12.7818 10.8483 12.7089 10.6393 12.8059 10.4453C12.903 10.2512 13.1089 10.1869 13.332 10.2966C13.3842 10.3223 13.4363 10.348 13.4885 10.3737C14.2142 10.7312 14.9399 11.0888 15.6583 11.4606C15.8322 11.5506 15.9126 11.5216 16.0152 11.3692C16.3867 10.8219 16.5803 10.1734 16.5695 9.51205C16.5587 8.85071 16.3441 8.20881 15.9549 7.67399C15.8657 7.55167 15.8512 7.46059 15.9256 7.32526C16.2579 6.71479 16.3981 6.0623 16.2914 5.37078C16.104 4.15058 15.43 3.30291 14.3031 2.80807C14.1603 2.74672 14.0744 2.77535 14.0086 2.9196C13.9514 3.04383 13.8878 3.16578 13.8242 3.28791C13.785 3.36317 13.7457 3.43849 13.7079 3.51446C13.6121 3.70666 13.517 3.89919 13.4219 4.09173C13.2343 4.47128 13.0468 4.85088 12.8546 5.22801C12.7494 5.43436 12.5408 5.50314 12.3523 5.40982C12.1638 5.3165 12.0917 5.1109 12.1932 4.90382C12.5799 4.11365 12.9725 3.32671 13.371 2.54298C13.4035 2.4877 13.4232 2.42589 13.4288 2.36203C13.4344 2.29818 13.4257 2.23388 13.4034 2.1738C13.2615 1.76246 13.0379 1.38407 12.746 1.06142C12.4541 0.738766 12.0999 0.478518 11.7047 0.296337C11.3096 0.114156 10.8817 0.0138115 10.4468 0.00134337C10.0118 -0.0111248 9.57888 0.0645403 9.17396 0.223786C8.98509 0.298143 8.91371 0.392204 8.91371 0.601519ZM8.04395 18.0292C8.04097 15.1234 8.03948 12.2175 8.03948 9.31162V6.247C8.03948 5.82504 8.03937 5.40308 8.03926 4.98113C8.03887 3.50698 8.03848 2.03283 8.04282 0.558683C8.04356 0.38729 7.98409 0.304009 7.82794 0.24378C7.41752 0.0832463 6.97999 0.00334319 6.53932 0.00844166C5.22209 0.0221977 4.01714 0.8747 3.5762 2.11237C3.54088 2.21313 3.54348 2.28302 3.62155 2.36184C4.10041 2.84628 4.36401 3.45117 4.58113 4.08321C4.60628 4.15343 4.61604 4.22824 4.60976 4.30256C4.59377 4.47024 4.50269 4.57842 4.34096 4.61895C4.16845 4.66208 4.00412 4.59181 3.932 4.44124C3.89487 4.36401 3.86624 4.28382 3.83732 4.20282C3.82656 4.17269 3.81576 4.14245 3.80447 4.11221C3.65204 3.71068 3.47359 3.32625 3.19438 2.99165C2.94454 2.69199 2.93003 2.68604 2.57275 2.84293C0.842087 3.60137 0.135332 5.62426 1.02018 7.30436C1.09788 7.45233 1.08896 7.54825 0.993785 7.68581C0.329405 8.64836 0.208199 9.68192 0.626829 10.7753C0.703045 10.975 0.71271 10.975 0.904179 10.8635C1.26482 10.6573 1.64582 10.4889 2.0411 10.3612C2.26492 10.2902 2.47126 10.3857 2.54078 10.5876C2.60621 10.7779 2.50621 10.975 2.2928 11.0616C2.20116 11.0988 2.10821 11.1333 2.01526 11.1678C1.92231 11.2022 1.82936 11.2367 1.73772 11.2739C1.43062 11.4007 1.1778 11.5468 1.04173 11.9085C0.823491 12.487 0.656197 13.0577 0.735387 13.679C0.890794 14.8962 1.53286 15.7595 2.63558 16.2889C2.73707 16.3376 2.80215 16.325 2.8713 16.2317C3.39329 15.5275 4.13462 15.1565 4.93879 14.8843C4.99786 14.8657 5.05943 14.8563 5.12135 14.8564C5.31096 14.8542 5.44887 14.9624 5.48605 15.1356C5.50278 15.2183 5.49106 15.3042 5.45279 15.3794C5.41453 15.4546 5.35195 15.5147 5.27525 15.5498C5.22956 15.5708 5.18109 15.5868 5.13296 15.6027C5.10433 15.6122 5.07583 15.6216 5.0481 15.632C4.55734 15.8138 4.08592 16.0279 3.70484 16.4027C3.61189 16.4941 3.59553 16.5767 3.6472 16.6983C4.31976 18.2821 6.20843 19.055 7.79893 18.401C7.98073 18.3267 8.04395 18.2281 8.04395 18.0292Z" fill="white"/>
</svg>
