<svg width="33" height="21" viewBox="0 0 33 21" fill="none" xmlns="http://www.w3.org/2000/svg">
<path d="M0 10.3019C1.29009 9.721 2.69194 9.43024 4.10665 9.45018C5.17012 9.4733 5.16039 9.48305 5.50717 10.4747C6.86632 14.3575 9.21349 17.442 12.8322 19.5057C13.2459 19.7418 13.7667 19.7965 14.0648 20.226H11.4025C10.7564 20.0752 10.0945 19.9717 9.46659 19.7649C4.81361 18.2317 1.19245 15.6278 0.00487189 10.5489L0 10.3019Z" fill="#64DFCC"/>
<path d="M18.4219 20.2249C18.473 20.0217 18.6433 19.956 18.8112 19.8794C22.9605 17.9739 25.4756 14.6533 26.9808 10.4663C27.3336 9.48437 27.33 9.47099 28.3886 9.4357C29.5816 9.40126 30.77 9.60005 31.8868 10.021C32.4247 10.2169 32.4709 10.5393 32.3736 11.0041C31.9976 12.7076 31.1568 14.158 29.9984 15.4272C27.5648 18.087 24.5362 19.6469 20.9613 20.1543C20.8832 20.1714 20.8067 20.195 20.7325 20.2249H18.4219Z" fill="#64DFCC"/>
<path d="M12.074 9.36514C12.1227 6.41322 12.8041 3.66572 14.684 1.30272C15.0214 0.901062 15.3953 0.531592 15.801 0.199089C16.1235 -0.0783382 16.3741 -0.056429 16.6978 0.206397C18.0229 1.28325 18.916 2.66551 19.477 4.24368C20.9724 8.45132 20.7741 12.5483 18.5035 16.4639C18.0402 17.2473 17.4407 17.9416 16.7331 18.5141C16.3681 18.8208 16.0943 18.7989 15.7353 18.5032C14.4845 17.4738 13.6534 16.156 13.0584 14.6776C12.3838 12.9888 12.0493 11.1835 12.074 9.36514V9.36514Z" fill="#64DFCC"/>
<path d="M18.9307 18.0872C18.876 17.8669 19.0524 17.7501 19.1412 17.6114C20.5941 15.4212 21.3168 13.001 21.4361 10.3922C21.5164 8.61448 21.447 6.84773 20.9579 5.12111C20.8727 4.81935 20.9226 4.59424 21.2013 4.39104C22.4326 3.51374 23.7504 2.85301 25.258 2.58532C25.7289 2.50136 25.9613 2.63399 26.1244 3.07204C26.8861 5.12597 26.7826 7.19815 26.1815 9.24357C25.0937 12.9402 23.0264 15.9225 19.5939 17.8474C19.4345 17.9341 19.2699 18.0109 19.1011 18.0774C19.0453 18.0903 18.9877 18.0935 18.9307 18.0872V18.0872Z" fill="#64DFCC"/>
<path d="M13.4708 18.1648C12.4268 17.7572 11.5811 17.1379 10.8 16.4406C7.77017 13.7345 6.0764 10.3567 5.83426 6.29875C5.77952 5.20791 5.96048 4.11809 6.36479 3.10347C6.51324 2.71775 6.72981 2.57659 7.13987 2.635C8.72169 2.86254 10.093 3.55489 11.356 4.49912C11.6773 4.74248 11.5446 5.02842 11.4777 5.32045C10.8048 8.28332 10.8328 11.2304 11.687 14.1555C12.0411 15.3557 12.563 16.4998 13.2372 17.554C13.3394 17.7158 13.517 17.8497 13.4708 18.1648Z" fill="#64DFCC"/>
</svg>
