<svg width="19" height="13" viewBox="0 0 19 13" fill="none" xmlns="http://www.w3.org/2000/svg">
<path d="M18.3426 6.3754C18.2654 6.24092 18.1619 6.12335 18.0383 6.02971C17.9147 5.93607 17.7735 5.86827 17.6231 5.83034C16.9609 5.66353 16.2737 5.6192 15.5955 5.69952C15.7709 4.70786 15.7062 3.68859 15.4065 2.72713C15.3191 2.45364 15.133 2.2225 14.8844 2.07875C14.6359 1.935 14.3427 1.88892 14.0621 1.94951C13.3868 2.09908 12.7425 2.36464 12.158 2.7344C11.692 1.75283 10.9995 0.895978 10.1376 0.234392C9.93683 0.0823072 9.69184 0 9.43995 0C9.18806 0 8.94307 0.0823072 8.74227 0.234392C7.88035 0.895978 7.18789 1.75283 6.72191 2.7344C6.13738 2.36464 5.49314 2.09908 4.81784 1.94951C4.53718 1.88892 4.24401 1.935 3.99547 2.07875C3.74692 2.2225 3.56079 2.45364 3.47336 2.72713C3.17374 3.68859 3.10895 4.70786 3.2844 5.69952C2.6062 5.6192 1.91904 5.66353 1.25678 5.83034C1.10658 5.86818 0.965515 5.93583 0.841979 6.02928C0.718442 6.12272 0.614954 6.24005 0.537666 6.37429C0.460378 6.50852 0.410868 6.65693 0.392078 6.81068C0.373288 6.96444 0.385603 7.1204 0.42829 7.2693C0.682651 8.185 1.46754 9.93646 3.85127 11.31C6.23499 12.6836 8.31349 12.6763 9.43268 12.6763H9.44721C10.5664 12.6763 12.6594 12.6763 15.0286 11.31C17.3978 9.94372 18.1972 8.185 18.4516 7.2693C18.4938 7.12053 18.5059 6.96485 18.4871 6.81137C18.4684 6.65788 18.4193 6.50966 18.3426 6.3754V6.3754ZM14.3019 3.0905C14.5054 3.70097 14.6943 4.79836 14.2801 6.20825L14.2583 6.28819C14.09 6.83421 13.8583 7.35863 13.5679 7.85069C13.2154 8.4591 12.7908 9.02277 12.3033 9.52948C12.674 8.65738 12.9283 7.58906 12.9283 6.28092C12.9343 5.45465 12.8193 4.63196 12.5868 3.83905C13.1043 3.48034 13.6869 3.22607 14.3019 3.0905V3.0905ZM9.43995 1.16463C10.1376 1.68788 11.7655 3.22859 11.7655 6.28092C11.7655 9.33326 10.1158 10.903 9.43995 11.3972C8.76407 10.903 7.11436 9.36959 7.11436 6.28092C7.11436 3.19225 8.74227 1.68788 9.43995 1.16463V1.16463ZM4.57801 3.0905C5.19297 3.22607 5.77557 3.48034 6.29313 3.83905C6.06063 4.63196 5.94555 5.45465 5.95156 6.28092C5.95156 7.58906 6.20592 8.65738 6.57657 9.52948C6.08908 9.02277 5.6645 8.4591 5.31203 7.85069C5.02019 7.3568 4.78841 6.82981 4.62162 6.28092L4.59981 6.21551C4.1783 4.79836 4.37452 3.70097 4.57801 3.0905V3.0905ZM1.54021 6.9568C1.99079 6.84052 2.69574 6.75331 3.60417 6.91319C3.78865 7.44143 4.02477 7.9502 4.30912 8.43209C4.9323 9.50882 5.7505 10.4601 6.72191 11.2373C5.91919 11.0321 5.14878 10.7166 4.43266 10.2998C2.41231 9.12977 1.75824 7.69808 1.54021 6.9568V6.9568ZM14.4472 10.2998C13.7311 10.7166 12.9607 11.0321 12.158 11.2373C13.1294 10.4601 13.9476 9.50882 14.5708 8.43209C14.8551 7.9502 15.0912 7.44143 15.2757 6.91319C15.9564 6.78263 16.6568 6.795 17.3324 6.94953C17.1217 7.69808 16.4676 9.12977 14.4472 10.2998V10.2998Z" fill="white"/>
</svg>
