<svg width="23" height="23" viewBox="0 0 23 23" fill="none" xmlns="http://www.w3.org/2000/svg">
<path fill-rule="evenodd" clip-rule="evenodd" d="M7.64143 7.64875L3.73875 11.5514C3.55183 11.7384 3.3614 11.9153 3.11345 12.0218C2.76955 12.1691 2.4585 12.1386 2.18648 11.8689L1.04209 10.7245C0.746011 10.4285 0.706403 10.0954 0.882171 9.72246C1.0042 9.47306 1.16918 9.24709 1.36957 9.0549L9.05022 1.37425C9.23743 1.18704 9.43579 1.01332 9.6726 0.896244C10.0623 0.703751 10.4244 0.709033 10.746 1.05529C10.9496 1.27418 11.163 1.48389 11.3765 1.69369C11.4755 1.79101 11.5745 1.88835 11.6726 1.98664C12.273 2.587 12.2768 3.00164 11.6656 3.62284C11.1697 4.12661 10.6688 4.62575 10.168 5.12483L10.1678 5.12501L10.1678 5.12505L10.1677 5.12508L10.1677 5.12511L10.1677 5.12514L10.1677 5.12517C9.95505 5.33704 9.74247 5.54889 9.53027 5.76109L7.64143 7.64875ZM17.8766 17.8299L14.0678 21.6387C13.8812 21.8253 13.6887 22.0026 13.4569 22.1323C13.0164 22.382 12.6711 22.3441 12.3075 21.9905C11.9615 21.6551 11.62 21.3153 11.2855 20.9685C10.9201 20.5897 10.887 20.2766 11.156 19.8232C11.3032 19.588 11.4795 19.3722 11.6807 19.1812C14.2003 16.6639 16.7198 14.1462 19.239 11.6282C19.4128 11.4516 19.6058 11.295 19.8144 11.1613C20.2619 10.8823 20.6108 10.9342 20.9905 11.3086C21.3233 11.6363 21.6535 11.9665 21.9811 12.2993C22.3427 12.6666 22.387 12.9874 22.1487 13.4428C22.0316 13.6661 21.8605 13.8448 21.6845 14.0209C20.4157 15.2893 19.1464 16.559 17.8766 17.8299ZM9.40357 11.7874C9.71495 12.1004 10.0263 12.4134 10.3385 12.7255C10.636 13.023 10.9337 13.3203 11.2315 13.6175C12.0792 14.4637 12.9269 15.31 13.7682 16.1616C13.9859 16.3823 14.1382 16.4167 14.3726 16.1716C15.0285 15.4876 15.6963 14.8139 16.383 14.1613C16.6779 13.8811 16.66 13.6871 16.383 13.4101C14.1173 11.1605 11.8601 8.90188 9.61138 6.63442C9.33907 6.35976 9.1457 6.36535 8.88924 6.62709C8.2563 7.27235 7.62043 7.91526 6.96695 8.53998C6.66002 8.83283 6.63771 9.04645 6.96108 9.36043C7.78438 10.16 8.59392 10.9737 9.40349 11.7873L9.40351 11.7874L9.40353 11.7874L9.40355 11.7874L9.40357 11.7874ZM4.97607 4.97675C4.72176 5.23106 4.4681 5.48602 4.21445 5.74098C3.70713 6.25091 3.19981 6.76083 2.68728 7.26554C1.70046 8.23417 1.14176 7.75763 0.542564 6.90784C0.310164 6.57743 0.448666 6.11381 0.831305 5.72647C1.51851 5.03022 2.21043 4.33868 2.90235 3.64715C3.108 3.44161 3.31365 3.23607 3.51918 3.03041C3.70007 2.84951 3.88076 2.66845 4.06144 2.4874C4.60206 1.94568 5.14259 1.40405 5.68823 0.867195C6.27041 0.294998 6.69706 0.302043 7.24109 0.772712C8.10614 1.52038 7.85555 2.0521 7.38342 2.55534C6.83606 3.13904 6.26588 3.70138 5.69569 4.26373L5.69569 4.26374L5.69568 4.26374L5.69567 4.26375C5.45553 4.50059 5.21539 4.73743 4.97695 4.97587L4.97607 4.97675ZM18.8747 17.296L18.8746 17.296L18.8746 17.296C18.6173 17.5542 18.36 17.8123 18.1023 18.07C17.8675 18.3048 17.6321 18.5391 17.3968 18.7734L17.3967 18.7734L17.3967 18.7735C16.8363 19.3313 16.2761 19.8889 15.7232 20.4539C15.1143 21.0757 15.1143 21.5639 15.6962 22.1458C16.3003 22.7529 16.7757 22.7512 17.4213 22.1385C17.4914 22.0703 17.5597 22.0014 17.6279 21.9325L17.628 21.9324C17.6621 21.8979 17.6962 21.8635 17.7306 21.8292L21.3806 18.1792C21.4603 18.0994 21.5412 18.0206 21.622 17.9417L21.6221 17.9416L21.6222 17.9415L21.6223 17.9414L21.6223 17.9414C21.8338 17.735 22.0456 17.5285 22.2383 17.3056C22.5229 16.9764 22.738 16.5917 22.535 16.1457C22.0757 15.1365 21.1995 14.9804 20.4222 15.7501C19.904 16.2632 19.3893 16.7796 18.8747 17.296ZM3.11699 3.10019C2.97541 3.24177 2.8343 3.38386 2.69317 3.52598C2.37184 3.84955 2.05042 4.17322 1.72318 4.49108C1.41331 4.79214 1.24164 4.75956 1.08524 4.35844C0.773318 3.55883 1.07527 2.86486 1.52833 2.22987C1.99284 1.57932 2.62256 1.15267 3.41806 0.979254C3.79395 0.896799 4.1399 0.964574 4.48028 1.11951C4.77225 1.25243 4.8054 1.41763 4.57212 1.64681C4.23358 1.97925 3.89884 2.3155 3.56409 2.65175C3.41517 2.80134 3.26624 2.95094 3.11699 3.10019ZM20.4242 19.458C20.2698 19.6129 20.1155 19.7679 19.9609 19.9225L19.9618 19.9234C19.8213 20.0639 19.6804 20.2039 19.5395 20.344C19.2048 20.6767 18.8701 21.0095 18.541 21.3477C18.2569 21.64 18.2953 21.7858 18.6803 21.946C18.994 22.074 19.341 22.096 19.6683 22.0086C20.8256 21.7222 21.5586 20.9651 21.9665 19.8735C22.1174 19.4877 22.1169 19.0591 21.965 18.6737C21.8019 18.2576 21.6652 18.2235 21.3527 18.5308C21.0414 18.8381 20.7328 19.148 20.4242 19.458Z" fill="#E24551"/>
</svg>
