<svg width="21" height="21" viewBox="0 0 21 21" fill="none" xmlns="http://www.w3.org/2000/svg">
<path fill-rule="evenodd" clip-rule="evenodd" d="M7.20497 7.21136L3.82904 10.5873C3.66735 10.749 3.50263 10.902 3.28814 10.9942C2.99065 11.1216 2.72158 11.0952 2.48628 10.8619L1.49635 9.872C1.24023 9.61589 1.20597 9.32779 1.35802 9.00518C1.46357 8.78944 1.60629 8.59397 1.77963 8.42772L8.42361 1.78374C8.58556 1.62179 8.75715 1.47153 8.96199 1.37025C9.29907 1.20374 9.6123 1.2083 9.89049 1.50782C10.0667 1.69717 10.2512 1.87858 10.4359 2.06006C10.5215 2.14425 10.6072 2.22845 10.6921 2.31347C11.2114 2.8328 11.2147 3.19147 10.686 3.72883C10.2569 4.16466 9.82362 4.59648 9.39035 5.02826C9.20641 5.21157 9.02247 5.39488 8.83887 5.57848L7.20497 7.21136ZM16.0588 16.0185L12.7641 19.3132C12.6027 19.4747 12.4362 19.628 12.2357 19.7402C11.8547 19.9562 11.5559 19.9234 11.2414 19.6176C10.9421 19.3274 10.6467 19.0335 10.3573 18.7335C10.0413 18.4058 10.0126 18.1349 10.2454 17.7428C10.3727 17.5393 10.5251 17.3526 10.6992 17.1874C12.8788 15.0099 15.0581 12.832 17.2374 10.6538C17.3877 10.5011 17.5547 10.3656 17.7351 10.25C18.1222 10.0086 18.424 10.0535 18.7525 10.3774C19.0403 10.6608 19.326 10.9465 19.6094 11.2343C19.9221 11.5521 19.9604 11.8296 19.7543 12.2235C19.6531 12.4167 19.5051 12.5713 19.3528 12.7236C18.2552 13.8208 17.1572 14.9191 16.0588 16.0185ZM8.72934 10.7915C8.99869 11.0622 9.26805 11.3329 9.53809 11.6029C9.79543 11.8603 10.053 12.1174 10.3106 12.3745C11.0439 13.1065 11.7771 13.8386 12.5048 14.5753C12.6932 14.7662 12.8249 14.7959 13.0277 14.5839C13.595 13.9922 14.1728 13.4095 14.7667 12.8449C15.0218 12.6025 15.0063 12.4348 14.7667 12.1951C12.8068 10.2491 10.8543 8.29538 8.9091 6.33395C8.67354 6.09637 8.50628 6.1012 8.28443 6.32762C7.73692 6.88579 7.18687 7.44192 6.62159 7.98233C6.35609 8.23565 6.33679 8.42043 6.61651 8.69203C7.3287 9.38368 8.02897 10.0875 8.72928 10.7914L8.72929 10.7914L8.72931 10.7914L8.72932 10.7914L8.72934 10.7915ZM4.89912 4.90001C4.67914 5.11999 4.45972 5.34054 4.2403 5.56109C3.80145 6.00219 3.36261 6.44329 2.91926 6.87988C2.06563 7.71777 1.58233 7.30555 1.06401 6.57046C0.862981 6.28464 0.98279 5.8836 1.31378 5.54854C1.90823 4.94627 2.50675 4.34807 3.10528 3.74988L3.10532 3.74984C3.2832 3.57205 3.46109 3.39426 3.63887 3.21636C3.79535 3.05988 3.95165 2.90326 4.10795 2.74664C4.57559 2.27804 5.04317 1.80951 5.51516 1.34513C6.01876 0.850159 6.38783 0.856253 6.85843 1.2634C7.60672 1.91015 7.38996 2.3701 6.98155 2.80542C6.50806 3.31034 6.01484 3.79678 5.52161 4.28323L5.52161 4.28323L5.5216 4.28324L5.5216 4.28324C5.31387 4.48812 5.10614 4.69299 4.89989 4.89925L4.89912 4.90001ZM16.9219 15.5566L16.9219 15.5566L16.9218 15.5566C16.6993 15.7799 16.4767 16.0032 16.2538 16.2261C16.0512 16.4287 15.8482 16.6308 15.6452 16.8329L15.6435 16.8346L15.6435 16.8346L15.6434 16.8347C15.1587 17.3172 14.6741 17.7996 14.1958 18.2882C13.6691 18.8261 13.6691 19.2485 14.1724 19.7518C14.6951 20.277 15.1063 20.2755 15.6647 19.7455C15.7254 19.6864 15.7845 19.6268 15.8435 19.5672L15.8444 19.5663C15.8736 19.5368 15.9028 19.5074 15.9322 19.478L19.0896 16.3206C19.1586 16.2516 19.2285 16.1834 19.2985 16.1151L19.2985 16.1151L19.2986 16.115L19.2986 16.115C19.4817 15.9364 19.6648 15.7577 19.8315 15.5649C20.0778 15.2801 20.2638 14.9474 20.0882 14.5615C19.6909 13.6886 18.933 13.5536 18.2606 14.2194C17.8123 14.6632 17.3671 15.1099 16.9219 15.5566ZM3.2911 3.27695C3.16864 3.39942 3.04657 3.52234 2.92449 3.64527C2.64653 3.92517 2.36849 4.20515 2.08542 4.48011C1.81738 4.74053 1.66887 4.71235 1.53358 4.36537C1.26376 3.67368 1.52496 3.07338 1.91687 2.5241C2.31869 1.96136 2.86341 1.59229 3.55154 1.44228C3.87669 1.37095 4.17595 1.42958 4.47039 1.5636C4.72295 1.67859 4.75163 1.82149 4.54984 2.01973C4.25699 2.30731 3.96742 2.59817 3.67786 2.88904C3.54904 3.01844 3.42021 3.14784 3.2911 3.27695ZM18.2625 17.4268C18.129 17.5609 17.9956 17.6949 17.8618 17.8287L17.8625 17.8295C17.741 17.951 17.6191 18.0721 17.4973 18.1933C17.2077 18.4811 16.9182 18.769 16.6335 19.0615C16.3878 19.3144 16.421 19.4405 16.7541 19.5791C17.0254 19.6898 17.3256 19.7088 17.6087 19.6332C18.6098 19.3854 19.2439 18.7306 19.5967 17.7863C19.7272 17.4526 19.7268 17.0818 19.5954 16.7484C19.4543 16.3885 19.336 16.359 19.0657 16.6248C18.7965 16.8906 18.5295 17.1587 18.2625 17.4268Z" fill="white"/>
</svg>
