<svg width="13" height="27" viewBox="0 0 13 27" fill="none" xmlns="http://www.w3.org/2000/svg">
<path d="M3.22873 15.6975C2.4313 15.6975 1.63387 15.6975 0.835487 15.6975C0.112727 15.6975 -0.191686 15.1906 0.124222 14.5382C1.30265 12.1003 2.47869 9.66158 3.65234 7.22207C4.74126 4.96525 5.83928 2.7156 6.92055 0.459726C7.20487 -0.134276 7.85104 -0.093591 8.13535 0.247685C8.19914 0.319457 8.24632 0.404405 8.27354 0.496484C8.30076 0.588562 8.30734 0.685507 8.29283 0.780421C8.15881 1.72671 8.02671 2.67348 7.88933 3.61976C7.5913 5.66997 7.2915 7.71955 6.98995 9.76848C6.93922 10.1155 6.8856 10.462 6.84205 10.8095C6.80327 11.1226 6.85258 11.1771 7.16849 11.1771C8.77132 11.1791 10.3743 11.1791 11.9775 11.1771C12.0574 11.1771 12.1373 11.1743 12.2168 11.1795C12.7653 11.2159 13.0607 11.7209 12.8223 12.2326C12.5437 12.8328 12.2522 13.4292 11.965 14.0227C11.0578 15.9054 10.1503 17.7868 9.24247 19.6669C8.15642 21.9161 7.06175 24.159 5.98575 26.4087C5.69856 27.0084 5.05525 26.9673 4.77189 26.6327C4.7055 26.558 4.65665 26.4695 4.6289 26.3735C4.60116 26.2775 4.59523 26.1765 4.61155 26.0779C4.78099 24.8944 4.95075 23.7123 5.12083 22.5316C5.40036 20.6078 5.68101 18.6841 5.96277 16.7606C5.99724 16.5241 6.0341 16.2882 6.06234 16.0507C6.09728 15.7583 6.04462 15.7008 5.74115 15.6999C4.90352 15.697 4.06604 15.6962 3.22873 15.6975Z" fill="#538DFF"/>
</svg>
