<svg width="11" height="21" viewBox="0 0 11 21" fill="none" xmlns="http://www.w3.org/2000/svg">
<path d="M2.89143 12.1929C2.27203 12.1929 1.65264 12.1929 1.0325 12.1929C0.471105 12.1929 0.234654 11.7992 0.480033 11.2924C1.39537 9.39878 2.30884 7.50454 3.22046 5.60967C4.06627 3.8567 4.91915 2.10931 5.75901 0.357088C5.97985 -0.104298 6.48176 -0.0726958 6.7026 0.192387C6.75214 0.248135 6.78879 0.314118 6.80993 0.385639C6.83107 0.45716 6.83619 0.532461 6.82492 0.606184C6.72082 1.3412 6.61821 2.0766 6.5115 2.81161C6.28001 4.40409 6.04714 5.99608 5.81292 7.58757C5.77351 7.85711 5.73187 8.12628 5.69803 8.3962C5.66792 8.63935 5.70622 8.68173 5.95159 8.68173C7.19658 8.68322 8.44169 8.68322 9.68692 8.68173C9.74901 8.68173 9.8111 8.6795 9.87281 8.68359C10.2989 8.71185 10.5283 9.10408 10.3431 9.50152C10.1267 9.96774 9.90032 10.431 9.67725 10.892C8.9726 12.3543 8.2677 13.8157 7.56254 15.2761C6.71896 17.0231 5.86869 18.7653 5.03291 20.5127C4.80984 20.9785 4.31016 20.9466 4.09006 20.6867C4.03849 20.6287 4.00055 20.5599 3.979 20.4853C3.95745 20.4108 3.95284 20.3323 3.96552 20.2558C4.09713 19.3365 4.22899 18.4183 4.3611 17.5012C4.57822 16.0069 4.79621 14.5127 5.01507 13.0186C5.04184 12.8349 5.07047 12.6517 5.0924 12.4672C5.11954 12.2401 5.07864 12.1955 4.84293 12.1947C4.1923 12.1925 3.5418 12.1919 2.89143 12.1929Z" fill="white"/>
</svg>
