<svg width="112" height="116" viewBox="0 0 112 116" fill="none" xmlns="http://www.w3.org/2000/svg">
<path d="M108.351 17.7279C100.096 14.6557 91.9308 11.3512 83.6754 8.26179C81.4052 7.40123 79.9132 6.261 79.5822 3.72667C79.2253 1.02022 77.6387 -0.0253511 74.8096 0.00046554C62.3406 0.120943 49.8458 0.047796 37.3639 0.0564016C33.4083 0.0736126 33.1073 0.258632 32.0367 4.14834C31.5465 5.89957 30.9446 7.23342 28.9796 7.96059C20.5523 11.0801 12.211 14.4965 3.78369 17.573C0.997518 18.5884 0 20.0901 0 23.0375C0.0859929 52.1501 0.0515958 81.2669 0.0558954 110.384C0.0558954 114.596 0.550355 115.074 4.85 115.078C21.8307 115.078 38.81 115.078 55.7879 115.078C72.9492 115.078 90.1106 115.078 107.272 115.078C111.034 115.078 111.662 114.476 111.662 110.81C111.662 81.4218 111.678 52.0324 111.709 22.6416C111.718 20.017 110.759 18.6315 108.351 17.7279ZM46.6039 38.3812C44.8496 46.0401 43.4823 53.7894 41.956 61.5L41.3755 61.642C39.3461 56.1918 37.3166 50.7287 35.2872 45.2527C34.1435 42.1633 33.0901 39.0352 31.8475 35.9802C31.2111 34.3968 31.3487 33.4373 33.103 32.822C34.5606 32.31 35.8763 31.3634 37.351 30.9202C38.9333 30.4469 40.5113 28.274 42.244 30.2317C44.2864 32.538 47.5541 34.1214 46.5824 38.3597L46.6039 38.3812ZM52.8427 17.3406C46.8232 20.2235 40.6747 22.9342 34.5735 25.688C34.0016 25.9462 33.3653 26.5055 32.7891 26.1183C32.0281 25.6149 32.4709 24.7887 32.6601 24.1046C34.0403 19.0617 35.4721 14.0318 36.8093 8.97605C37.2779 7.2033 38.0992 7.07852 39.5697 7.90896C43.8091 10.2841 48.0228 12.6893 52.8728 13.7306C56.9703 14.5912 60.711 13.5714 64.3442 11.9622C67.1046 10.7402 69.736 9.2213 72.4104 7.80139C73.4251 7.25924 74.3495 6.94084 74.758 8.41669C76.409 14.3115 78.0257 20.2192 79.8573 26.8584C72.3373 23.4549 65.5567 20.4601 58.845 17.3062C57.9165 16.8151 56.8817 16.5594 55.8315 16.5617C54.7812 16.5639 53.7476 16.824 52.8212 17.3191L52.8427 17.3406ZM79.6123 36.9613C76.366 45.1365 73.438 53.428 70.3895 61.6764L69.865 61.6549C68.2225 53.4796 66.5241 45.3259 64.9634 37.1291C64.4775 34.5775 66.8853 33.3685 68.0333 31.5742C69.5296 29.2421 71.3269 29.1388 73.567 30.52C74.8182 31.292 76.1636 31.8993 77.5699 32.3272C80.154 33.0931 80.6399 34.2979 79.5908 36.9398L79.6123 36.9613ZM99.1886 61.4053C96.8109 61.444 94.4589 61.4053 92.064 61.4053C89.6691 61.4053 87.3344 61.4311 84.9395 61.4053C83.6496 61.4053 82.5059 61.031 82.4844 59.4562C82.4629 57.8813 83.5206 57.1886 84.9782 57.18C89.725 57.1456 94.4747 57.1456 99.2273 57.18C100.629 57.18 101.854 57.7523 101.867 59.3314C101.859 60.9879 100.539 61.3623 99.1671 61.3838L99.1886 61.4053Z" fill="url(#paint0_linear_143_56)"/>
<defs>
<linearGradient id="paint0_linear_143_56" x1="0" y1="57.5457" x2="111.709" y2="57.5457" gradientUnits="userSpaceOnUse">
<stop stop-color="#15152C"/>
<stop offset="1" stop-color="#1A2636"/>
</linearGradient>
</defs>
</svg>
