<svg width="132" height="114" viewBox="0 0 132 114" fill="none" xmlns="http://www.w3.org/2000/svg">
<path fill-rule="evenodd" clip-rule="evenodd" d="M45.077 32.7131L61.3974 57.7744C61.8421 58.4682 62.4542 59.0386 63.1769 59.4339C63.8995 59.8292 64.7099 60.0365 65.5334 60.0365C66.3569 60.0365 67.1673 59.8292 67.8899 59.4339C68.6126 59.0386 69.2247 58.4682 69.6694 57.7744L85.9898 32.7131C86.5131 31.9126 86.7922 30.9768 86.7922 30.0201C86.7922 29.0635 86.5131 28.1271 85.9898 27.3266L69.6694 2.24362C69.221 1.55473 68.6078 0.988412 67.8856 0.596632C67.1634 0.204852 66.3548 0 65.5334 0C64.712 0 63.9034 0.204852 63.1812 0.596632C62.459 0.988412 61.8458 1.55473 61.3974 2.24362L45.077 27.3266C44.5537 28.1271 44.2752 29.0635 44.2752 30.0201C44.2752 30.9768 44.5537 31.9126 45.077 32.7131ZM115.23 72.5525C122.79 62.9598 130.549 53.078 131.061 38.9004C131.128 37.0308 131.506 21.7402 124.012 17.0662C120.168 14.6414 115.967 16.1524 111.7 17.6874L111.694 17.6895C99.7536 21.9851 93.5719 33.5365 91.971 36.7415C91.4452 37.7941 90.7127 39.8954 89.408 43.6382C89.0022 44.8024 88.541 46.1253 88.0135 47.6249C84.809 56.9623 82.6227 64.6081 80.8773 70.7121L80.8093 70.95C79.8977 74.155 78.6968 78.5174 77.3182 83.7255C75.146 82.9961 72.9139 82.4599 70.6476 82.123C69.1578 81.9005 67.7122 81.7226 66.4003 81.7226H64.5774C63.2655 81.7893 61.8421 81.9005 60.3301 82.123C58.0638 82.4599 55.8316 82.9961 53.6595 83.7255C52.6289 79.4907 51.5693 75.8152 50.7191 72.8663C50.5237 72.1885 50.3393 71.549 50.1689 70.95L50.1009 70.7121C48.3555 64.6081 46.1693 56.9623 42.9647 47.6249L42.7496 47.001C40.7132 41.093 39.673 38.0753 39.0067 36.7415C37.428 33.5365 31.2241 21.9851 19.306 17.6895L19.2472 17.6685C14.9764 16.14 10.8165 14.6513 6.96524 17.0662C-0.133267 21.5337 -0.0200389 35.5988 0.00382055 38.5626C0.00492336 38.6996 0.00583524 38.8129 0.00583524 38.9004C0.495013 53.078 8.25485 62.9598 15.8149 72.5525C22.5185 81.1312 30.5955 88.5393 39.7179 94.4757C39.2897 95.3866 38.9184 96.3232 38.6061 97.2801C37.6801 100.129 37.113 103.082 36.9167 106.071C36.8567 106.44 36.9094 106.818 37.0682 107.155C37.227 107.493 37.4841 107.775 37.8059 107.964C46.51 111.904 55.9478 113.959 65.5008 113.993C75.0538 114.028 84.5062 112.041 93.2385 108.163C93.5625 107.977 93.8215 107.696 93.9806 107.358C94.1397 107.019 94.1915 106.641 94.1283 106.272V106.071C93.932 103.082 93.3643 100.129 92.4383 97.2801C92.0381 96.0782 91.6379 95.1212 91.3488 94.4757C100.461 88.5338 108.529 81.1263 115.23 72.5525Z" fill="url(#paint0_linear_143_77)"/>
<defs>
<linearGradient id="paint0_linear_143_77" x1="49.5178" y1="13.9861" x2="81.5759" y2="46.0134" gradientUnits="userSpaceOnUse">
<stop stop-color="#15152C"/>
<stop offset="1" stop-color="#1A2636"/>
</linearGradient>
</defs>
</svg>
