<svg width="143" height="122" viewBox="0 0 143 122" fill="none" xmlns="http://www.w3.org/2000/svg">
<path d="M141.804 79.0645C140.435 73.7191 137.292 69.4514 134.278 65.3733C130.963 60.8901 129.358 60.015 127.059 55.7128C125.406 52.506 124.192 49.0915 123.447 45.5609C122.452 40.9526 123.356 41.1984 122.315 33.4044C121.553 27.546 120.648 24.3517 119.327 21.3342C118.759 20.0115 118.103 18.7283 117.364 17.4932C106.73 3.77195 92.6179 2.77616 92.6179 2.77616C88.7213 1.76116 84.7579 1.0236 80.7573 0.569026C78.0795 0.262959 75.5696 0.103459 73.2061 0.0301756V0C72.6852 0 72.1428 0 71.596 0C71.0493 0 70.5068 0 69.973 0V0.0301756C67.6267 0.103459 65.0996 0.262959 62.4175 0.569026C58.4171 1.02441 54.4537 1.76196 50.5569 2.77616C31.1581 5.55232 25.8284 17.5105 25.8284 17.5105C25.0892 18.7455 24.4334 20.0287 23.8653 21.3514C22.5436 24.3474 21.6395 27.546 20.8775 33.4217C19.8443 41.2156 20.7397 40.9483 19.741 45.5781C18.9989 49.1089 17.7854 52.5236 16.1333 55.7301C13.8343 60.0409 12.2242 60.903 8.91361 65.3906C5.90003 69.4686 2.7573 73.7363 1.38828 79.0817C-0.846076 87.7938 2.67981 95.4196 3.86371 97.7518C7.97509 105.753 14.803 109.563 20.0509 112.495C27.1705 116.417 35.0457 118.769 43.1478 119.392C43.1478 119.392 54.1517 124.793 100.044 119.392C108.146 118.769 116.021 116.417 123.141 112.495C128.389 109.563 135.217 105.753 139.328 97.7518C140.529 95.4024 144.021 87.7766 141.804 79.0645ZM87.7703 69.3393L75.6643 76.8358C74.7049 77.4309 73.5986 77.7462 72.4699 77.7462C71.3413 77.7462 70.235 77.4309 69.2756 76.8358L57.161 69.335C56.837 69.1325 56.5875 68.8301 56.4501 68.4733C56.3127 68.1165 56.2949 67.7246 56.3994 67.3568C56.5038 66.989 56.7249 66.6651 57.0292 66.4341C57.3336 66.2031 57.7047 66.0774 58.0866 66.076H86.8447C87.2296 66.0725 87.605 66.1957 87.9131 66.4266C88.2212 66.6576 88.4451 66.9835 88.5503 67.3542C88.6554 67.7249 88.636 68.12 88.4951 68.4787C88.3542 68.8373 88.0996 69.1397 87.7703 69.3393V69.3393Z" fill="url(#paint0_linear_143_53)"/>
<defs>
<linearGradient id="paint0_linear_143_53" x1="0.660713" y1="60.8815" x2="142.531" y2="60.8815" gradientUnits="userSpaceOnUse">
<stop stop-color="#15152C"/>
<stop offset="1" stop-color="#1A2636"/>
</linearGradient>
</defs>
</svg>
