<svg width="141" height="123" viewBox="0 0 141 123" fill="none" xmlns="http://www.w3.org/2000/svg">
<path d="M49.1457 20.4556C50.0066 16.1016 50.4974 12.4719 50.7686 10.0405C36.9184 25.2757 24.3125 41.6003 13.0727 58.857C5.36741 70.7206 -1.70083 83.1274 0.399838 97.2584C0.881959 100.505 2.03991 108.204 7.54987 110.601C12.737 112.864 19.6287 109.501 23.1499 105.07C27.0542 100.155 29.8996 92.6329 30.2655 85.5414C30.5324 80.2649 33.7092 73.5011 39.0728 50.7181C42.2066 37.3888 46.9073 31.6596 49.1457 20.4556Z" fill="url(#paint0_linear_143_71)"/>
<path d="M139.152 80.3253C135.708 52.4123 132.118 36.2637 125.493 18.8391C121.003 6.89793 118.274 2.80258 113.823 0.927347C106.04 -2.33169 101.697 4.80715 86.8459 2.87587C74.1601 1.2636 69.9329 0.591097 69.9329 0.591097C65.8908 -0.00811646 63.0455 -0.495247 60.2044 0.927347C56.2398 2.91467 54.6901 7.32902 54.0315 9.39394C48.7875 25.2092 44.3423 41.279 40.7129 57.5423C38.5606 67.8496 36.0381 78.1138 34.5401 93.6632C33.606 102.919 33.6791 107.566 36.4858 111.575C39.852 116.407 45.5255 117.942 61.4786 119.705C85.6492 122.365 98.0337 123.641 113.823 120.378C126.242 117.791 133.315 116.222 137.878 109.963C141.433 104.979 141.545 99.7329 139.152 80.3253ZM105.485 77.5534H73.9362V28.8404H83.7035V70.0568H105.485V77.5534Z" fill="url(#paint1_linear_143_71)"/>
<defs>
<linearGradient id="paint0_linear_143_71" x1="0.0210291" y1="60.6849" x2="50.7686" y2="60.6849" gradientUnits="userSpaceOnUse">
<stop stop-color="#15152C"/>
<stop offset="1" stop-color="#1A2636"/>
</linearGradient>
<linearGradient id="paint1_linear_143_71" x1="34.002" y1="61.1591" x2="140.775" y2="61.1591" gradientUnits="userSpaceOnUse">
<stop stop-color="#15152C"/>
<stop offset="1" stop-color="#1A2636"/>
</linearGradient>
</defs>
</svg>
