<svg width="140" height="95" viewBox="0 0 140 95" fill="none" xmlns="http://www.w3.org/2000/svg">
<g clip-path="url(#clip0_143_75)">
<path d="M137.736 1.08149C136.887 0.46438 135.88 0.10277 134.834 0.0389358C133.787 -0.024898 132.744 0.21133 131.826 0.720655C70.4141 34.9661 8.86383 1.08113 8.25633 0.720655C7.33599 0.19507 6.28456 -0.0538021 5.22735 0.00373282C4.17014 0.0612677 3.15182 0.42322 2.29343 1.04561C1.43503 1.66799 0.773264 2.52493 0.386242 3.51455C-0.00077999 4.50418 -0.096722 5.58468 0.110513 6.62731C3.81417 23.5847 10.8863 39.6177 20.9035 53.7668C19.9187 55.5291 19.396 57.514 19.3846 59.5347C19.381 61.1284 19.6906 62.7068 20.2954 64.1802C20.9002 65.6535 21.7882 66.9927 22.9091 68.1209C24.03 69.249 25.3621 70.1443 26.828 70.755C28.2938 71.3657 29.865 71.6797 31.452 71.6797C33.4551 71.6649 35.4219 71.14 37.1682 70.1545C40.3967 72.5486 43.8565 74.6108 47.4956 76.3103C48.5183 81.5532 51.3233 86.2766 55.431 89.6719C59.5388 93.0672 64.6934 94.9239 70.0137 94.9239C75.334 94.9239 80.4893 93.0672 84.597 89.6719C88.7048 86.2766 91.5097 81.5532 92.5325 76.3103C96.1716 74.6108 99.6314 72.5486 102.86 70.1545C104.606 71.14 106.573 71.6649 108.576 71.6797C110.163 71.6797 111.734 71.3657 113.2 70.755C114.666 70.1443 115.997 69.249 117.118 68.1209C118.239 66.9927 119.128 65.6535 119.733 64.1802C120.337 62.7068 120.647 61.1284 120.643 59.5347C120.632 57.514 120.109 55.5291 119.125 53.7668C129.142 39.6177 136.214 23.5847 139.918 6.62731C140.118 5.59027 140.018 4.51733 139.632 3.53486C139.245 2.5524 138.588 1.70128 137.736 1.08149V1.08149ZM109.874 47.6388C109.445 47.5652 109.011 47.5188 108.576 47.5C105.376 47.5 102.306 48.7769 100.043 51.0494C97.7803 53.3219 96.5094 56.4035 96.5094 59.6173C96.5266 60.0727 96.5722 60.5265 96.6469 60.976C95.0479 62.1835 93.3795 63.2952 91.6494 64.304C90.0807 59.7982 87.1553 55.8932 83.2791 53.1305C79.4028 50.3678 74.767 48.8838 70.0137 48.8838C65.2604 48.8838 60.6252 50.3678 56.749 53.1305C52.8728 55.8932 49.9474 59.7982 48.3787 64.304C46.6543 63.2759 44.9864 62.156 43.3812 60.9489C43.4098 60.5057 43.4098 60.0605 43.3812 59.6173C43.3812 56.4035 42.1096 53.3219 39.8466 51.0494C37.5836 48.7769 34.5142 47.5 31.3138 47.5C30.8878 47.5173 30.4635 47.5638 30.0437 47.6388C23.0085 37.9211 17.5643 27.1372 13.9172 15.6948C34.075 24.0135 78.505 36.9627 125.724 16.0549C122.151 27.3638 116.8 38.0266 109.874 47.6388V47.6388Z" fill="url(#paint0_linear_143_75)"/>
</g>
<defs>
<linearGradient id="paint0_linear_143_75" x1="0.000156308" y1="47.4999" x2="140.028" y2="47.4999" gradientUnits="userSpaceOnUse">
<stop stop-color="#15152C"/>
<stop offset="1" stop-color="#1A2636"/>
</linearGradient>
<clipPath id="clip0_143_75">
<rect width="140" height="95" fill="white"/>
</clipPath>
</defs>
</svg>
