<svg width="32" height="37" viewBox="0 0 32 37" fill="none" xmlns="http://www.w3.org/2000/svg">
<path d="M16.8429 37H14.966C14.9314 36.9938 14.8965 36.9894 14.8614 36.9868C14.588 36.97 14.3146 36.9604 14.0424 36.9364C13.2501 36.8659 12.4621 36.7525 11.6818 36.5968C10.3269 36.3411 9.0257 35.8515 7.83544 35.1497C7.08082 34.7221 6.42198 34.1416 5.90035 33.4446C5.01125 32.2086 4.68319 30.8167 4.7866 29.3083C4.84352 28.5173 5.0921 27.7525 5.51048 27.0812C5.89203 26.4536 6.40433 25.9376 6.92732 25.4385C7.50696 24.894 7.89398 24.1729 8.02918 23.3853C8.11714 22.9126 8.13021 22.4314 8.19797 21.955C8.25492 21.4397 8.42595 20.9438 8.69838 20.5043C8.81724 20.3303 8.9159 20.1515 9.03238 19.9799C9.09062 19.8959 9.07755 19.8599 8.99078 19.8071C8.83269 19.7195 8.6758 19.6259 8.52603 19.5227C7.52877 18.8339 6.54459 18.1247 5.6127 17.3472C4.75305 16.6466 3.95744 15.8695 3.23545 15.0253C2.03155 13.5781 1.12994 11.9002 0.584807 10.0923C0.312465 9.21538 0.134723 8.31137 0.0546759 7.39596C0.0368464 7.18237 0.0178294 6.96877 0 6.75397V5.00565C0.0261498 4.66606 0.0511103 4.32648 0.0772601 3.98689C0.122965 3.33589 0.217132 2.68929 0.358964 2.05256C0.440332 1.62192 0.589197 1.20713 0.799948 0.823812C0.939833 0.567552 1.14695 0.355148 1.39857 0.209935C1.6502 0.0647212 1.93659 -0.00768598 2.2263 0.000645961C2.77177 0.003324 3.31094 0.118468 3.81074 0.339026C5.4562 1.02854 6.94801 2.04412 8.19797 3.32571C9.42772 4.58383 10.3939 6.07911 11.0388 7.72235C11.6317 9.24495 12.1388 10.8002 12.5579 12.3806C12.8479 13.4533 13.1094 14.5333 13.2984 15.6288C13.3744 16.074 13.4351 16.5216 13.4945 16.9692C13.5147 17.1252 13.5242 17.124 13.668 17.0664C14.2738 16.8157 14.9163 16.6673 15.5698 16.6272C16.4821 16.5807 17.3931 16.741 18.2359 17.0964C18.3631 17.1492 18.3762 17.1408 18.3904 16.9968C18.4178 16.7088 18.4582 16.4208 18.5093 16.134C18.7912 14.3628 19.2105 12.6167 19.7633 10.9118C20.07 9.97585 20.3374 9.02669 20.6833 8.10392C22.03 4.51126 24.4869 1.98416 27.9339 0.408619C28.5172 0.122655 29.1603 -0.0168813 29.8084 0.00184709C30.1966 0.0122428 30.5663 0.171408 30.8425 0.447025C31.0988 0.718672 31.281 1.0527 31.3715 1.41658C31.7276 2.66706 31.9331 3.9563 31.9836 5.25643C32.0131 5.87283 32.0028 6.49052 31.9527 7.10557C31.8878 7.91015 31.7538 8.70752 31.5521 9.48867C31.0474 11.3873 30.1618 13.1611 28.9502 14.7001C28.0968 15.8064 27.0746 16.74 25.9787 17.58C24.9766 18.3551 23.9271 19.0631 22.8965 19.7963C22.7705 19.8863 22.7682 19.8875 22.8609 20.0111C23.2691 20.5536 23.5367 21.1904 23.6394 21.8638C23.7226 22.3846 23.7583 22.9102 23.8451 23.4309C23.9378 24.0153 24.1244 24.5505 24.5333 24.9909C24.893 25.3773 25.2564 25.7613 25.6232 26.1428C26.1675 26.7035 26.5746 27.3848 26.8119 28.1324C27.0234 28.8313 27.1104 29.5626 27.0686 30.2923C27.0483 31.0047 26.8769 31.7044 26.5658 32.3442C26.2158 33.0273 25.7721 33.6571 25.2476 34.2149C24.9149 34.5905 24.5184 34.903 24.0768 35.1377C23.1453 35.624 22.1727 36.0256 21.1707 36.3377C19.9262 36.7204 18.6436 36.8716 17.3516 36.9604L16.8429 37Z" fill="white"/>
</svg>
