<svg width="23" height="36" viewBox="0 0 23 36" fill="none" xmlns="http://www.w3.org/2000/svg">
<path d="M16.9813 11.111C16.9813 13.4083 16.9813 15.2391 16.9813 17.0699C16.9757 20.0734 15.11 22.4783 12.3006 22.9297C8.91723 23.4727 6.30737 20.7845 6.09194 17.8391C5.91546 15.4274 6.05219 13.0066 6.02596 10.5907C6.00847 9.02553 6.02119 7.46035 6.02596 5.89518C6.03152 3.11031 7.76294 0.772638 10.2774 0.151443C13.493 -0.642071 16.6641 1.77462 16.9257 5.25129C17.0815 7.35696 16.9368 9.46935 16.9813 11.111Z" fill="black"/>
<path d="M11.4914 35.9988C9.62199 35.9988 7.75253 35.9988 5.88307 35.9988C4.77138 35.9988 3.98613 35.2265 3.98113 34.1526C3.9753 33.044 4.74974 32.2462 5.86641 32.2344C6.98309 32.2225 8.08228 32.2208 9.1898 32.2344C9.52955 32.2395 9.65612 32.1327 9.6453 31.7779C9.62282 31.0885 9.62781 30.3975 9.6453 29.7081C9.65279 29.3939 9.53455 29.2787 9.22894 29.2067C4.79831 28.1577 1.88185 25.4296 0.479544 21.0223C0.134798 19.9298 0.00822283 18.7959 0.00739011 17.6492C0.00739011 16.7337 -0.0142593 15.8182 0.0165514 14.9035C0.0431984 14.0914 0.41459 13.4638 1.1757 13.1547C1.891 12.8642 2.56551 12.9853 3.14591 13.5146C3.62556 13.9542 3.75214 14.5394 3.75796 15.1618C3.76629 16.162 3.74048 17.163 3.77462 18.1615C3.89703 21.6626 6.40185 24.7038 9.76188 25.4592C14.2369 26.4662 18.5279 23.4631 19.1658 18.8331C19.3323 17.6356 19.2074 16.4135 19.2233 15.2033C19.2316 14.5648 19.3423 13.9686 19.8361 13.5095C20.3907 13.0014 21.0336 12.8769 21.7281 13.12C22.4525 13.374 22.9139 13.9279 22.9389 14.6859C23.0105 16.8878 23.152 19.1177 22.4334 21.2569C21.0011 25.5202 18.1082 28.1659 13.7972 29.1898C13.4292 29.2745 13.3276 29.4252 13.3393 29.7826C13.3617 30.4432 13.3601 31.1063 13.3393 31.7677C13.3284 32.1158 13.4467 32.2361 13.7914 32.2318C14.9264 32.2157 16.0622 32.2107 17.1981 32.2318C18.1307 32.2505 18.9043 32.9712 18.9934 33.8536C19.095 34.8699 18.5579 35.699 17.6319 35.937C17.4292 35.9809 17.222 35.9994 17.0149 35.992C15.1751 35.9994 13.334 36.0016 11.4914 35.9988Z" fill="black"/>
</svg>
