<svg width="13" height="17" viewBox="0 0 13 17" fill="none" xmlns="http://www.w3.org/2000/svg">
<path d="M8.22365 3.15681C9.09178 3.15681 9.80206 2.44653 9.80206 1.5784C9.80206 0.710282 9.09178 0 8.22365 0C7.35553 0 6.64525 0.710282 6.64525 1.5784C6.64525 2.44653 7.35553 3.15681 8.22365 3.15681ZM5.72188 12.6272L6.17173 10.6542L7.82905 12.2326V16.1786C7.82905 16.6127 8.18419 16.9678 8.61826 16.9678C9.05232 16.9678 9.40746 16.6127 9.40746 16.1786V11.7275C9.40746 11.2935 9.23383 10.8831 8.91815 10.5832L7.75013 9.47042L8.22365 7.10282C9.11302 8.11956 10.3305 8.79254 11.6646 9.00479C12.1381 9.07582 12.5643 8.69701 12.5643 8.21559C12.5643 7.82888 12.2802 7.50531 11.8934 7.44217C10.6939 7.24487 9.69946 6.53459 9.1707 5.60333L8.38149 4.34061C8.06581 3.86709 7.59229 3.55141 7.03985 3.55141C6.80309 3.55141 6.64525 3.63033 6.40849 3.63033L3.26747 4.95619C2.98155 5.0784 2.73785 5.28195 2.56667 5.54152C2.39549 5.8011 2.30437 6.10527 2.30464 6.41621V8.28662C2.30464 8.72068 2.65978 9.07582 3.09384 9.07582C3.5279 9.07582 3.88304 8.72068 3.88304 8.28662V6.39254L5.30361 5.84009L4.04088 12.2326L0.947213 11.6013C0.521044 11.5145 0.102767 11.7907 0.0159544 12.2168V12.2484C-0.0708578 12.6746 0.205363 13.0929 0.631532 13.1797L3.87515 13.8268C4.27859 13.9069 4.69735 13.8263 5.04227 13.6023C5.3872 13.3782 5.63104 13.0284 5.72188 12.6272V12.6272Z" fill="white"/>
</svg>
