<svg width="21" height="20" viewBox="0 0 21 20" fill="none" xmlns="http://www.w3.org/2000/svg">
<path fill-rule="evenodd" clip-rule="evenodd" d="M7.20497 6.70648L3.82904 10.0824C3.66735 10.2441 3.50263 10.3972 3.28814 10.4893C2.99065 10.6167 2.72158 10.5903 2.48628 10.3571L1.49635 9.36712C1.24023 9.111 1.20597 8.82291 1.35802 8.50029C1.46357 8.28455 1.60629 8.08909 1.77963 7.92284L8.42361 1.27885C8.58556 1.11691 8.75715 0.966643 8.96199 0.865366C9.29907 0.698853 9.6123 0.703422 9.89049 1.00294C10.0667 1.19229 10.2512 1.3737 10.4359 1.55518C10.5215 1.63937 10.6072 1.72357 10.6921 1.80859C11.2114 2.32792 11.2147 2.68659 10.686 3.22395C10.2569 3.65978 9.82362 4.0916 9.39035 4.52338C9.20641 4.70669 9.02247 4.89 8.83887 5.07359L7.20497 6.70648ZM16.0588 15.5136L12.7641 18.8083C12.6027 18.9698 12.4362 19.1231 12.2357 19.2353C11.8547 19.4513 11.5559 19.4185 11.2414 19.1127C10.9421 18.8225 10.6467 18.5286 10.3573 18.2286C10.0413 17.9009 10.0126 17.63 10.2454 17.2379C10.3727 17.0344 10.5251 16.8478 10.6992 16.6825C12.8788 14.505 15.0581 12.3271 17.2374 10.1489C17.3877 9.99619 17.5547 9.86074 17.7351 9.74509C18.1222 9.5037 18.424 9.54864 18.7525 9.87252C19.0403 10.156 19.326 10.4416 19.6094 10.7294C19.9221 11.0472 19.9604 11.3247 19.7543 11.7186C19.6531 11.9118 19.5051 12.0664 19.3528 12.2187C18.2552 13.3159 17.1572 14.4142 16.0588 15.5136ZM8.72934 10.2866C8.99869 10.5573 9.26805 10.828 9.53809 11.0981C9.79543 11.3554 10.053 11.6125 10.3106 11.8697C11.0439 12.6017 11.7771 13.3337 12.5048 14.0704C12.6932 14.2613 12.8249 14.291 13.0277 14.079C13.595 13.4874 14.1728 12.9046 14.7667 12.3401C15.0218 12.0976 15.0063 11.9299 14.7667 11.6903C12.8068 9.74423 10.8543 7.7905 8.9091 5.82907C8.67354 5.59149 8.50628 5.59632 8.28443 5.82273C7.73692 6.3809 7.18687 6.93704 6.62159 7.47744C6.35609 7.73076 6.33679 7.91555 6.61651 8.18715C7.3287 8.8788 8.02897 9.58264 8.72928 10.2865L8.72929 10.2865L8.72931 10.2865L8.72932 10.2866L8.72934 10.2866ZM4.89912 4.39513C4.67914 4.61511 4.45972 4.83566 4.2403 5.05621C3.80145 5.49731 3.36261 5.93841 2.91926 6.37499C2.06563 7.21288 1.58233 6.80066 1.06401 6.06557C0.862981 5.77976 0.98279 5.37871 1.31378 5.04366C1.90823 4.44138 2.50675 3.84319 3.10528 3.24499L3.10532 3.24496C3.2832 3.06717 3.46109 2.88938 3.63887 2.71148C3.79535 2.555 3.95165 2.39838 4.10795 2.24176C4.57559 1.77316 5.04317 1.30463 5.51516 0.840244C6.01876 0.345276 6.38783 0.351371 6.85843 0.758513C7.60672 1.40527 7.38996 1.86522 6.98155 2.30053C6.50806 2.80545 6.01484 3.29189 5.52161 3.77835L5.52161 3.77835L5.5216 3.77836L5.5216 3.77836C5.31387 3.98323 5.10614 4.18811 4.89989 4.39437L4.89912 4.39513ZM16.9219 15.0517L16.9219 15.0517L16.9218 15.0518C16.6993 15.2751 16.4767 15.4983 16.2538 15.7213C16.0512 15.9238 15.8482 16.1259 15.6452 16.328L15.6435 16.3297L15.6435 16.3297L15.6434 16.3298C15.1587 16.8123 14.6741 17.2947 14.1958 17.7834C13.6691 18.3212 13.6691 18.7436 14.1724 19.247C14.6951 19.7721 15.1063 19.7706 15.6647 19.2406C15.7254 19.1815 15.7845 19.1219 15.8435 19.0623L15.8444 19.0614C15.8736 19.032 15.9028 19.0025 15.9322 18.9731L19.0896 15.8157C19.1586 15.7467 19.2285 15.6785 19.2985 15.6102L19.2985 15.6102L19.2986 15.6101L19.2986 15.6101C19.4817 15.4315 19.6648 15.2528 19.8315 15.06C20.0778 14.7752 20.2638 14.4425 20.0882 14.0566C19.6909 13.1837 18.933 13.0487 18.2606 13.7145C17.8123 14.1584 17.3671 14.605 16.9219 15.0517ZM3.2911 2.77207C3.16864 2.89454 3.04657 3.01745 2.92449 3.14039C2.64653 3.42028 2.36849 3.70027 2.08542 3.97522C1.81738 4.23565 1.66887 4.20747 1.53358 3.86048C1.26376 3.1688 1.52496 2.5685 1.91687 2.01921C2.31869 1.45647 2.86341 1.08741 3.55154 0.937395C3.87669 0.86607 4.17595 0.924697 4.47039 1.05872C4.72295 1.1737 4.75163 1.31661 4.54984 1.51485C4.25699 1.80242 3.96742 2.09329 3.67786 2.38415C3.54904 2.51355 3.42021 2.64296 3.2911 2.77207ZM18.2625 16.922C18.129 17.056 17.9956 17.1901 17.8618 17.3238L17.8625 17.3246C17.741 17.4461 17.6191 17.5673 17.4973 17.6884C17.2077 17.9762 16.9182 18.2641 16.6335 18.5567C16.3878 18.8095 16.421 18.9356 16.7541 19.0742C17.0254 19.1849 17.3256 19.2039 17.6087 19.1283C18.6098 18.8806 19.2439 18.2257 19.5967 17.2814C19.7272 16.9477 19.7268 16.5769 19.5954 16.2435C19.4543 15.8836 19.336 15.8541 19.0657 16.1199C18.7965 16.3857 18.5295 16.6539 18.2625 16.922Z" fill="#9BCA15"/>
</svg>
