<svg width="36" height="42" viewBox="0 0 36 42" fill="none" xmlns="http://www.w3.org/2000/svg">
<path d="M11.9304 3.17969V0.179688H23.8606V3.17969H11.9304ZM16.4004 25.3896H19.4004V13.9597H16.4004V25.3896ZM17.8904 41.8997C15.5071 41.9101 13.1475 41.4267 10.9604 40.4797C8.83878 39.5652 6.90849 38.259 5.27051 36.6296C3.63683 34.9952 2.33002 33.064 1.42041 30.9397C0.483204 28.7478 0 26.3885 0 24.0046C0 21.6207 0.483204 19.2615 1.42041 17.0696C3.2556 12.7813 6.67218 9.36497 10.9604 7.52979C13.1461 6.57832 15.5066 6.09446 17.8904 6.10962C20.0192 6.09191 22.1336 6.46133 24.1304 7.19971C26.0302 7.90862 27.7881 8.9518 29.3206 10.2798L31.8606 7.74976L33.9905 9.90967L31.4504 12.4397C32.7125 13.8792 33.7448 15.5051 34.5105 17.2598C35.3992 19.4 35.8284 21.7031 35.7705 24.0198C35.7844 26.4056 35.3044 28.7684 34.3606 30.9597C32.5256 35.2516 29.1044 38.6693 24.8105 40.4998C22.6258 41.442 20.2696 41.9219 17.8904 41.9097V41.8997Z" fill="url(#paint0_linear_137_108)"/>
<defs>
<linearGradient id="paint0_linear_137_108" x1="1.11366e-05" y1="21.0506" x2="35.7653" y2="21.0506" gradientUnits="userSpaceOnUse">
<stop stop-color="#64D2CC"/>
<stop offset="1" stop-color="#7DD9A3"/>
</linearGradient>
</defs>
</svg>
