<svg width="39" height="44" viewBox="0 0 39 44" fill="none" xmlns="http://www.w3.org/2000/svg">
<path d="M11.5807 23.6398C11.3207 23.4798 11.0707 23.3498 10.8307 23.1898C8.87805 21.908 7.0558 20.4375 5.39049 18.7997C3.49203 16.8381 2.11663 14.4311 1.39049 11.7997C0.838461 9.76876 0.65242 7.65584 0.840681 5.55968C0.899987 4.40058 1.08078 3.251 1.38048 2.12975C1.4322 1.94456 1.49928 1.76391 1.58067 1.58971C1.73425 1.18007 2.01777 0.832228 2.38804 0.599229C2.75832 0.366229 3.19472 0.260886 3.63048 0.299668C4.45989 0.376047 5.2658 0.617648 6.00059 1.00987C9.12584 2.47944 11.6781 4.94027 13.2606 8.00987C13.7718 9.05356 14.2063 10.1331 14.5607 11.2399C14.9907 12.4799 15.3706 13.7399 15.7206 14.9999C16.1983 16.7055 16.5527 18.4433 16.7806 20.1998C16.7741 20.2797 16.7741 20.3599 16.7806 20.4398C17.6871 20.0297 18.6707 19.8175 19.6656 19.8175C20.6606 19.8175 21.6441 20.0297 22.5506 20.4398C22.6006 20.0998 22.6305 19.7898 22.6805 19.4398C23.0053 17.3061 23.5036 15.2024 24.1705 13.1498C24.5905 11.8798 24.9506 10.5797 25.4606 9.33971C26.9262 5.66412 29.7266 2.67818 33.3006 0.979844C33.9796 0.61414 34.7174 0.370472 35.4806 0.259873C35.7547 0.184622 36.0416 0.168614 36.3224 0.212998C36.6031 0.257382 36.8712 0.361066 37.1087 0.517197C37.3463 0.673329 37.5477 0.878384 37.6998 1.11852C37.8519 1.35865 37.951 1.62832 37.9906 1.90978C38.2584 2.80574 38.4525 3.72212 38.5707 4.64977C38.7756 6.05697 38.8157 7.48325 38.6905 8.89977C38.3878 11.9968 37.2123 14.9444 35.3006 17.3998C34.1565 18.8517 32.8093 20.1316 31.3006 21.1998C30.1706 22.0498 29.0007 22.8298 27.8407 23.6498L27.7706 23.7198L28.0406 24.0897C28.5208 24.819 28.8064 25.6591 28.8705 26.5299C28.9221 27.1212 29.0089 27.7087 29.1305 28.2897C29.2499 28.8705 29.5388 29.4029 29.9606 29.8197C30.3206 30.1997 30.6706 30.5898 31.0506 30.9598C31.7435 31.652 32.2664 32.4952 32.5787 33.4234C32.891 34.3517 32.9843 35.3395 32.8507 36.3097C32.7531 37.3937 32.3624 38.4307 31.7206 39.3097C31.1113 40.3048 30.2576 41.1277 29.2406 41.6998C27.5137 42.6048 25.6537 43.2291 23.7306 43.5497C20.58 44.0305 17.3686 43.9392 14.2506 43.2799C12.5992 42.9354 11.0261 42.2877 9.6107 41.3697C8.85615 40.8953 8.20267 40.2765 7.68785 39.5489C7.17303 38.8213 6.80702 37.9992 6.6107 37.1297C6.31371 36.0631 6.30624 34.9367 6.58922 33.8663C6.8722 32.7959 7.43526 31.8201 8.22056 31.0397C8.48056 30.7797 8.71057 30.4899 8.98057 30.2499C9.8216 29.4724 10.3211 28.3941 10.3705 27.2499C10.3705 26.8699 10.4406 26.4897 10.5006 26.1097C10.6117 25.1986 10.9872 24.34 11.5807 23.6398V23.6398Z" fill="#C8C8CD"/>
</svg>
