<svg width="43" height="47" viewBox="0 0 43 47" fill="none" xmlns="http://www.w3.org/2000/svg">
<path d="M1.33919e-05 44.7592V16.4284C-0.00120796 16.0779 0.0811275 15.732 0.240483 15.4185C0.399838 15.1051 0.631751 14.8329 0.917546 14.6236L20.2673 0.448875C20.6626 0.157477 21.1432 0 21.6372 0C22.1313 0 22.612 0.157477 23.0074 0.448875L42.095 14.6113C42.3762 14.8226 42.6041 15.0947 42.761 15.4067C42.918 15.7186 42.9998 16.0619 43 16.4099V44.7469C43.0008 45.0425 42.9424 45.3354 42.8279 45.6087C42.7135 45.882 42.5454 46.1304 42.3331 46.3396C42.1209 46.5489 41.8687 46.7151 41.5912 46.8284C41.3136 46.9417 41.0161 47 40.7155 47H29.555C29.2545 47 28.957 46.9417 28.6794 46.8284C28.4018 46.7151 28.1497 46.5489 27.9374 46.3396C27.7252 46.1304 27.5571 45.882 27.4426 45.6087C27.3282 45.3354 27.2698 45.0425 27.2706 44.7469V30.4189C27.2706 30.1233 27.2113 29.8306 27.0961 29.5576C26.9809 29.2846 26.8121 29.0367 26.5993 28.828C26.3865 28.6193 26.1338 28.4539 25.856 28.3413C25.5781 28.2288 25.2804 28.1712 24.9799 28.172H17.9391C17.6385 28.1712 17.3407 28.2288 17.0628 28.3413C16.7849 28.4539 16.5324 28.6193 16.3196 28.828C16.1068 29.0367 15.9379 29.2846 15.8227 29.5576C15.7075 29.8306 15.6482 30.1233 15.6482 30.4189V44.7469C15.649 45.0425 15.5906 45.3354 15.4762 45.6087C15.3617 45.882 15.1936 46.1304 14.9813 46.3396C14.7691 46.5489 14.5169 46.7151 14.2394 46.8284C13.9618 46.9417 13.6643 47 13.3637 47H2.27822C1.6745 46.9984 1.0959 46.7618 0.669 46.3419C0.242097 45.922 0.00166068 45.353 1.33919e-05 44.7592V44.7592Z" fill="#C8C8CD"/>
</svg>
