<svg width="44" height="45" viewBox="0 0 44 45" fill="none" xmlns="http://www.w3.org/2000/svg">
<path fill-rule="evenodd" clip-rule="evenodd" d="M34.2903 22.8701C33.6633 23.3188 32.9116 23.5601 32.1404 23.5596H15.4805L12.3904 29.2998H39.4807V32.6099H12.8804C12.2392 32.666 11.5947 32.5532 11.0105 32.2832C10.4263 32.0132 9.9231 31.5947 9.55054 31.0698C9.2099 30.5532 9.02832 29.9482 9.02832 29.3301C9.02832 28.7114 9.2099 28.1064 9.55054 27.5898L13.0806 21.0801L4.70044 3.30957H0.390381V0H6.85059L8.85059 4.35986H41.3503C42.5303 4.35986 43.2806 4.71973 43.5906 5.42969C43.7396 5.82422 43.7903 6.24854 43.738 6.66699C43.6857 7.08545 43.5318 7.48438 43.2903 7.83008L35.8406 21.2402C35.4487 21.8896 34.9195 22.4458 34.2903 22.8701ZM13.3804 36.1396C12.4527 36.1313 11.5509 36.4453 10.8293 37.0283C10.1078 37.6113 9.61145 38.4272 9.42505 39.3359C9.23871 40.2451 9.37402 41.1899 9.80786 42.0103C10.2417 42.8301 10.9471 43.4741 11.8032 43.8311C12.6594 44.1885 13.613 44.2368 14.501 43.9683C15.389 43.7002 16.1563 43.1313 16.6711 42.3594C17.186 41.5879 17.4166 40.6611 17.3235 39.7383C17.2303 38.8154 16.819 37.9531 16.1604 37.2998C15.7991 36.9292 15.3666 36.6353 14.8889 36.436C14.4112 36.2368 13.898 36.1357 13.3804 36.1396ZM35.4502 36.1396C34.3893 36.1396 33.3718 36.561 32.6216 37.3115C31.8715 38.0615 31.4502 39.0786 31.4502 40.1396C31.4398 40.6626 31.5372 41.1821 31.7368 41.666C31.9365 42.1494 32.234 42.5864 32.6104 42.9497C33.359 43.6885 34.3686 44.103 35.4204 44.103C36.4723 44.103 37.4819 43.6885 38.2305 42.9497C38.9725 42.2007 39.3887 41.189 39.3887 40.1348C39.3887 39.0806 38.9725 38.0688 38.2305 37.3193C38.071 37.1548 37.8976 37.0049 37.7124 36.8711C37.4787 36.7026 37.2264 36.5605 36.96 36.4473C36.4824 36.2446 35.9691 36.1401 35.4502 36.1396Z" fill="#C8C8CD"/>
</svg>
