<svg width="44" height="45" viewBox="0 0 44 45" fill="none" xmlns="http://www.w3.org/2000/svg">
<path fill-rule="evenodd" clip-rule="evenodd" d="M34.2903 22.8699C33.6633 23.3189 32.9115 23.5601 32.1404 23.5598H15.4805L12.3904 29.2998H39.4807V32.6099H12.8804C12.2392 32.6659 11.5947 32.5534 11.0105 32.2832C10.4263 32.0131 9.92309 31.5946 9.55054 31.0698C9.20991 30.5534 9.02832 29.9484 9.02832 29.3298C9.02832 28.7112 9.20991 28.1062 9.55054 27.5898L13.0806 21.0798L4.70044 3.30981H0.390381V0H6.85059L8.85059 4.35986H41.3503C42.5303 4.35986 43.2806 4.71993 43.5906 5.42993C43.7396 5.82419 43.7903 6.24876 43.738 6.66699C43.6858 7.08523 43.5318 7.4844 43.2903 7.82983L35.8406 21.24C35.4488 21.8897 34.9195 22.4459 34.2903 22.8699ZM13.3804 36.1398C12.4527 36.1312 11.5509 36.4454 10.8293 37.0285C10.1078 37.6116 9.61142 38.4273 9.42505 39.3361C9.23868 40.2449 9.37404 41.1902 9.80786 42.0102C10.2417 42.8302 10.9471 43.474 11.8032 43.8312C12.6594 44.1885 13.613 44.2369 14.501 43.9684C15.389 43.7 16.1563 43.1313 16.6711 42.3595C17.186 41.5878 17.4166 40.6612 17.3235 39.7382C17.2304 38.8152 16.819 37.9531 16.1604 37.2997C15.7991 36.929 15.3667 36.6353 14.8889 36.436C14.4112 36.2366 13.898 36.1358 13.3804 36.1398ZM35.4502 36.1396C34.3894 36.1396 33.3718 36.5611 32.6216 37.3113C31.8715 38.0614 31.4502 39.0788 31.4502 40.1396C31.4398 40.6626 31.5372 41.1822 31.7368 41.6658C31.9365 42.1493 32.234 42.5864 32.6104 42.9497C33.359 43.6886 34.3686 44.103 35.4204 44.103C36.4723 44.103 37.4819 43.6886 38.2305 42.9497C38.9725 42.2007 39.3887 41.1891 39.3887 40.1348C39.3887 39.0805 38.9725 38.0686 38.2305 37.3196C37.8699 36.9466 37.4376 36.65 36.96 36.4473C36.4824 36.2446 35.969 36.1399 35.4502 36.1396Z" fill="url(#paint0_linear_137_125)"/>
<defs>
<linearGradient id="paint0_linear_137_125" x1="0.390394" y1="22.0759" x2="43.7454" y2="22.0759" gradientUnits="userSpaceOnUse">
<stop stop-color="#64D2CC"/>
<stop offset="1" stop-color="#7DD9A3"/>
</linearGradient>
</defs>
</svg>
