<svg width="47" height="44" viewBox="0 0 47 44" fill="none" xmlns="http://www.w3.org/2000/svg">
<path d="M4.32067 43.71C3.87502 43.7161 3.433 43.6303 3.02184 43.4583C2.61069 43.2862 2.23905 43.0316 1.93054 42.71C1.61078 42.4 1.35731 42.0283 1.18542 41.6174C1.01353 41.2066 0.926789 40.7651 0.930536 40.3198V12.21C0.926789 11.7646 1.01353 11.3232 1.18542 10.9124C1.35731 10.5015 1.61078 10.1298 1.93054 9.81982C2.23905 9.49817 2.61069 9.24356 3.02184 9.07153C3.433 8.8995 3.87502 8.81372 4.32067 8.81982H15.1605V3.81982C15.1809 2.91918 15.5479 2.06109 16.1849 1.42407C16.8219 0.787058 17.6798 0.420264 18.5804 0.399902H28.8407C29.7413 0.420264 30.5992 0.787058 31.2362 1.42407C31.8732 2.06109 32.2403 2.91918 32.2606 3.81982V8.81982H43.0907C43.9913 8.84019 44.8492 9.20722 45.4862 9.84424C46.1232 10.4813 46.4903 11.3393 46.5106 12.24V40.3499C46.4903 41.2505 46.1232 42.1086 45.4862 42.7456C44.8492 43.3826 43.9913 43.7497 43.0907 43.77L4.32067 43.71ZM18.5804 8.70996H28.8407V3.70996H18.5804V8.70996Z" fill="url(#paint0_linear_137_106)"/>
<defs>
<linearGradient id="paint0_linear_137_106" x1="0.930434" y1="22.091" x2="46.4974" y2="22.091" gradientUnits="userSpaceOnUse">
<stop stop-color="#64D2CC"/>
<stop offset="1" stop-color="#7DD9A3"/>
</linearGradient>
</defs>
</svg>
