<svg width="19" height="13" viewBox="0 0 19 13" fill="none" xmlns="http://www.w3.org/2000/svg">
<path d="M17.959 6.3754C17.8818 6.24092 17.7783 6.12335 17.6547 6.02971C17.5311 5.93607 17.3899 5.86827 17.2396 5.83034C16.5773 5.66353 15.8901 5.6192 15.2119 5.69952C15.3874 4.70786 15.3226 3.68859 15.023 2.72713C14.9356 2.45364 14.7494 2.2225 14.5009 2.07875C14.2523 1.935 13.9592 1.88892 13.6785 1.94951C13.0032 2.09908 12.359 2.36464 11.7744 2.7344C11.3085 1.75283 10.616 0.895978 9.75408 0.234392C9.55328 0.0823072 9.30829 0 9.0564 0C8.80451 0 8.55952 0.0823072 8.35872 0.234392C7.4968 0.895978 6.80434 1.75283 6.33837 2.7344C5.75383 2.36464 5.10959 2.09908 4.43429 1.94951C4.15363 1.88892 3.86047 1.935 3.61192 2.07875C3.36337 2.2225 3.17725 2.45364 3.08981 2.72713C2.7902 3.68859 2.7254 4.70786 2.90086 5.69952C2.22266 5.6192 1.53549 5.66353 0.873236 5.83034C0.723032 5.86818 0.58197 5.93583 0.458434 6.02928C0.334897 6.12272 0.231409 6.24005 0.154121 6.37429C0.0768333 6.50852 0.0273229 6.65693 0.00853323 6.81068C-0.0102565 6.96444 0.00205814 7.1204 0.044745 7.2693C0.299106 8.185 1.08399 9.93646 3.46772 11.31C5.85145 12.6836 7.92994 12.6763 9.04913 12.6763H9.06367C10.1829 12.6763 12.2759 12.6763 14.6451 11.31C17.0143 9.94372 17.8137 8.185 18.0681 7.2693C18.1102 7.12053 18.1223 6.96485 18.1036 6.81137C18.0849 6.65788 18.0357 6.50966 17.959 6.3754V6.3754ZM13.9183 3.0905C14.1218 3.70097 14.3108 4.79836 13.8965 6.20825L13.8747 6.28819C13.7064 6.83421 13.4747 7.35863 13.1843 7.85069C12.8319 8.4591 12.4073 9.02277 11.9198 9.52948C12.2904 8.65738 12.5448 7.58906 12.5448 6.28092C12.5508 5.45465 12.4357 4.63196 12.2032 3.83905C12.7208 3.48034 13.3034 3.22607 13.9183 3.0905V3.0905ZM9.0564 1.16463C9.75408 1.68788 11.382 3.22859 11.382 6.28092C11.382 9.33326 9.73228 10.903 9.0564 11.3972C8.38053 10.903 6.73081 9.36959 6.73081 6.28092C6.73081 3.19225 8.35872 1.68788 9.0564 1.16463V1.16463ZM4.19447 3.0905C4.80943 3.22607 5.39202 3.48034 5.90959 3.83905C5.67708 4.63196 5.56201 5.45465 5.56802 6.28092C5.56802 7.58906 5.82238 8.65738 6.19302 9.52948C5.70553 9.02277 5.28095 8.4591 4.92848 7.85069C4.63665 7.3568 4.40487 6.82981 4.23807 6.28092L4.21627 6.21551C3.79476 4.79836 3.99098 3.70097 4.19447 3.0905V3.0905ZM1.15667 6.9568C1.60725 6.84052 2.31219 6.75331 3.22063 6.91319C3.4051 7.44143 3.64123 7.9502 3.92557 8.43209C4.54875 9.50882 5.36696 10.4601 6.33837 11.2373C5.53564 11.0321 4.76523 10.7166 4.04912 10.2998C2.02876 9.12977 1.37469 7.69808 1.15667 6.9568V6.9568ZM14.0637 10.2998C13.3476 10.7166 12.5772 11.0321 11.7744 11.2373C12.7458 10.4601 13.5641 9.50882 14.1872 8.43209C14.4716 7.9502 14.7077 7.44143 14.8922 6.91319C15.5728 6.78263 16.2732 6.795 16.9489 6.94953C16.7381 7.69808 16.084 9.12977 14.0637 10.2998V10.2998Z" fill="#81818C"/>
</svg>
