<svg width="11" height="22" viewBox="0 0 11 22" fill="none" xmlns="http://www.w3.org/2000/svg">
<path d="M3.46638 12.9375C2.84698 12.9375 2.22759 12.9375 1.60745 12.9375C1.04606 12.9375 0.809606 12.5438 1.05498 12.037C1.97032 10.1434 2.88379 8.24916 3.79541 6.3543C4.64122 4.60133 5.4941 2.85394 6.33396 1.10172C6.5548 0.640331 7.05671 0.671933 7.27755 0.937016C7.32709 0.992764 7.36374 1.05875 7.38488 1.13027C7.40602 1.20179 7.41114 1.27709 7.39987 1.35081C7.29577 2.08583 7.19316 2.82122 7.08646 3.55624C6.85496 5.14872 6.62209 6.74071 6.38787 8.3322C6.34846 8.60174 6.30682 8.87091 6.27298 9.14083C6.24287 9.38398 6.28117 9.42636 6.52655 9.42636C7.77153 9.42785 9.01664 9.42785 10.2619 9.42636C10.324 9.42636 10.386 9.42413 10.4478 9.42822C10.8738 9.45648 11.1032 9.84871 10.9181 10.2461C10.7017 10.7124 10.4753 11.1756 10.2522 11.6366C9.54755 13.099 8.84265 14.5603 8.13749 16.0207C7.29391 17.7677 6.44364 19.5099 5.60786 21.2573C5.38479 21.7232 4.88511 21.6912 4.66501 21.4313C4.61344 21.3733 4.5755 21.3045 4.55395 21.23C4.5324 21.1554 4.52779 21.077 4.54047 21.0004C4.67208 20.0811 4.80394 19.1629 4.93605 18.2458C5.15317 16.7515 5.37116 15.2573 5.59002 13.7632C5.61679 13.5796 5.64542 13.3963 5.66735 13.2119C5.69449 12.9847 5.65359 12.9401 5.41788 12.9394C4.76725 12.9371 4.11675 12.9365 3.46638 12.9375Z" fill="#81818C"/>
</svg>
